<?xml version="1.0" encoding="UTF-8" standalone="no"?><svg xmlns="http://www.w3.org/2000/svg" xmlns:xlink="http://www.w3.org/1999/xlink" contentScriptType="application/ecmascript" contentStyleType="text/css" height="969.7917px" preserveAspectRatio="none" style="width:1348px;height:969px;background:#313238;" version="1.1" viewBox="0 0 1348 969" width="1348.9583px" zoomAndPan="magnify"><defs/><g><!--MD5=[fc811cf51f9c2276167b9320ad74c775]
class DeepLinkResolver--><rect codeLine="12" fill="#313238" height="67.4723" id="DeepLinkResolver" rx="4.1667" ry="4.1667" style="stroke:#55B2DE;stroke-width:1.0416666666666667;" width="206.25" x="7.2917" y="7.2917"/><rect fill="#227FAB" height="35.3841" rx="4.1667" ry="4.1667" style="stroke:#227FAB;stroke-width:1.0416666666666667;" width="206.25" x="7.2917" y="7.2917"/><rect fill="#227FAB" height="4.1667" style="stroke:#227FAB;stroke-width:1.0416666666666667;" width="206.25" x="7.2917" y="38.5091"/><rect codeLine="12" fill="none" height="67.4723" id="DeepLinkResolver" rx="4.1667" ry="4.1667" style="stroke:#55B2DE;stroke-width:1.0416666666666667;" width="206.25" x="7.2917" y="7.2917"/><ellipse cx="44.375" cy="24.9837" fill="#E840E8" rx="10.4167" ry="10.4167" style="stroke:#444444;stroke-width:1.0416666666666667;"/><path d="M43.3171,25.6673 Q41.9661,25.1465 41.4779,24.5768 Q40.9896,24.0072 40.9896,23.0469 Q40.9896,21.8099 41.7871,21.11 Q42.5846,20.3939 43.9681,20.3939 Q44.6029,20.3939 45.2214,20.5404 Q45.8561,20.6868 46.4746,20.9635 L46.4746,22.7214 Q45.8887,22.3145 45.2865,22.1029 Q44.7005,21.875 44.1146,21.875 Q43.4635,21.875 43.1055,22.1517 Q42.7637,22.4121 42.7637,22.9004 Q42.7637,23.2747 43.0078,23.5189 Q43.2682,23.763 44.0658,24.0723 L44.847,24.3652 Q45.9538,24.7559 46.4583,25.4232 Q46.9792,26.0905 46.9792,27.0996 Q46.9792,28.4831 46.1654,29.1667 Q45.3516,29.8503 43.7077,29.8503 Q43.0241,29.8503 42.3405,29.6875 Q41.6732,29.5247 41.0384,29.1992 L41.0384,27.3438 Q41.7546,27.8646 42.4219,28.1087 Q43.1055,28.3529 43.7565,28.3529 Q44.4238,28.3529 44.7819,28.0599 Q45.1563,27.7507 45.1563,27.2135 Q45.1563,26.8066 44.9121,26.4974 Q44.668,26.1882 44.2122,26.0091 L43.3171,25.6673 Z " fill="#000000"/><text fill="#222222" font-family="Verdana" font-size="12.5" lengthAdjust="spacing" textLength="114.5833" x="68.125" y="29.3111">DeepLinkResolver</text><line style="stroke:#55B2DE;stroke-width:1.0416666666666667;" x1="8.3333" x2="212.5" y1="42.6758" y2="42.6758"/><ellipse cx="18.75" cy="54.1341" fill="#84BE84" rx="3.125" ry="3.125" style="stroke:#038048;stroke-width:1.0416666666666667;"/><text fill="#ADAFAE" font-family="Verdana" font-size="11.4583" lengthAdjust="spacing" textLength="169.7917" x="32.2917" y="62.6867">parse(url: String): DeepLink?</text><!--MD5=[49ec080158085dcbd3ad09715098bc8b]
class DeepLink--><rect codeLine="8" fill="#313238" height="67.4723" id="DeepLink" rx="4.1667" ry="4.1667" style="stroke:#55B2DE;stroke-width:1.0416666666666667;" width="145.8333" x="250" y="7.2917"/><rect fill="#227FAB" height="35.3841" rx="4.1667" ry="4.1667" style="stroke:#227FAB;stroke-width:1.0416666666666667;" width="145.8333" x="250" y="7.2917"/><rect fill="#227FAB" height="4.1667" style="stroke:#227FAB;stroke-width:1.0416666666666667;" width="145.8333" x="250" y="38.5091"/><rect codeLine="8" fill="none" height="67.4723" id="DeepLink" rx="4.1667" ry="4.1667" style="stroke:#55B2DE;stroke-width:1.0416666666666667;" width="145.8333" x="250" y="7.2917"/><ellipse cx="284.7396" cy="24.9837" fill="#10FF30" rx="10.4167" ry="10.4167" style="stroke:#444444;stroke-width:1.0416666666666667;"/><path d="M287.2786,29.6712 L281.5983,29.6712 L281.5983,20.5566 L287.2786,20.5566 L287.2786,22.1517 L283.4049,22.1517 L283.4049,24.1048 L286.9043,24.1048 L286.9043,25.6999 L283.4049,25.6999 L283.4049,28.0762 L287.2786,28.0762 L287.2786,29.6712 Z " fill="#000000"/><text fill="#222222" font-family="Verdana" font-size="12.5" lengthAdjust="spacing" textLength="59.375" x="307.9688" y="29.3111">DeepLink</text><line style="stroke:#55B2DE;stroke-width:1.0416666666666667;" x1="251.0417" x2="394.7917" y1="42.6758" y2="42.6758"/><ellipse cx="261.4583" cy="54.1341" fill="#84BE84" rx="3.125" ry="3.125" style="stroke:#038048;stroke-width:1.0416666666666667;"/><text fill="#ADAFAE" font-family="Verdana" font-size="11.4583" lengthAdjust="spacing" textLength="109.375" x="275" y="62.6867">neoChat(deviceId:)</text><!--MD5=[21816c44a4785c97d5629c4b9046fd8c]
class DeepLinkRepository--><rect codeLine="16" fill="#313238" height="123.3154" id="DeepLinkRepository" rx="4.1667" ry="4.1667" style="stroke:#55B2DE;stroke-width:1.0416666666666667;" width="180.2083" x="13.0208" y="839.5833"/><rect fill="#227FAB" height="35.3841" rx="4.1667" ry="4.1667" style="stroke:#227FAB;stroke-width:1.0416666666666667;" width="180.2083" x="13.0208" y="839.5833"/><rect fill="#227FAB" height="4.1667" style="stroke:#227FAB;stroke-width:1.0416666666666667;" width="180.2083" x="13.0208" y="870.8008"/><rect codeLine="16" fill="none" height="123.3154" id="DeepLinkRepository" rx="4.1667" ry="4.1667" style="stroke:#55B2DE;stroke-width:1.0416666666666667;" width="180.2083" x="13.0208" y="839.5833"/><ellipse cx="32.2917" cy="857.2754" fill="#FB8500" rx="10.4167" ry="10.4167" style="stroke:#444444;stroke-width:1.0416666666666667;"/><path d="M34.196,861.7025 Q33.7728,861.9141 33.3008,862.028 Q32.8288,862.1419 32.3242,862.1419 Q30.4688,862.1419 29.4922,860.9375 Q28.5319,859.7168 28.5319,857.4219 Q28.5319,855.1107 29.4922,853.9063 Q30.4688,852.6855 32.3242,852.6855 Q32.8288,852.6855 33.3008,852.7995 Q33.7891,852.8971 34.196,853.125 L34.196,855.127 Q33.7402,854.7038 33.3008,854.5085 Q32.8613,854.2969 32.4056,854.2969 Q31.4128,854.2969 30.9082,855.0944 Q30.4036,855.8757 30.4036,857.4219 Q30.4036,858.9518 30.9082,859.7331 Q31.4128,860.5143 32.4056,860.5143 Q32.8613,860.5143 33.3008,860.319 Q33.7402,860.1237 34.196,859.7005 L34.196,861.7025 Z " fill="#000000"/><text fill="#222222" font-family="Verdana" font-size="12.5" lengthAdjust="spacing" textLength="128.125" x="52.0833" y="861.6028">DeepLinkRepository</text><line style="stroke:#55B2DE;stroke-width:1.5625;" x1="14.0625" x2="192.1875" y1="874.9674" y2="874.9674"/><ellipse cx="24.4792" cy="886.4258" rx="3.125" ry="3.125" style="stroke:#038048;stroke-width:1.0416666666666667;fill:none;"/><text fill="#ADAFAE" font-family="Verdana" font-size="11.4583" lengthAdjust="spacing" textLength="119.7917" x="38.0208" y="894.9783">deepLink: DeepLink?</text><line style="stroke:#55B2DE;stroke-width:1.0416666666666667;" x1="14.0625" x2="192.1875" y1="907.0557" y2="907.0557"/><ellipse cx="24.4792" cy="918.514" fill="#84BE84" rx="3.125" ry="3.125" style="stroke:#038048;stroke-width:1.0416666666666667;"/><text fill="#ADAFAE" font-family="Verdana" font-size="11.4583" lengthAdjust="spacing" textLength="143.75" x="38.0208" y="927.0665">setDeepLink(_:DeepLink)</text><ellipse cx="24.4792" cy="942.2689" fill="#84BE84" rx="3.125" ry="3.125" style="stroke:#038048;stroke-width:1.0416666666666667;"/><text fill="#ADAFAE" font-family="Verdana" font-size="11.4583" lengthAdjust="spacing" textLength="92.7083" x="38.0208" y="950.8214">resetDeepLink()</text><!--MD5=[fffc840f707a2c6ec0b6288dd00bfd10]
class DashboardRouter--><rect codeLine="6" fill="#313238" height="67.4723" id="DashboardRouter" rx="4.1667" ry="4.1667" style="stroke:#55B2DE;stroke-width:1.0416666666666667;" width="189.5833" x="347.9167" y="262.5"/><rect fill="#227FAB" height="35.3841" rx="4.1667" ry="4.1667" style="stroke:#227FAB;stroke-width:1.0416666666666667;" width="189.5833" x="347.9167" y="262.5"/><rect fill="#227FAB" height="4.1667" style="stroke:#227FAB;stroke-width:1.0416666666666667;" width="189.5833" x="347.9167" y="293.7174"/><rect codeLine="6" fill="none" height="67.4723" id="DashboardRouter" rx="4.1667" ry="4.1667" style="stroke:#55B2DE;stroke-width:1.0416666666666667;" width="189.5833" x="347.9167" y="262.5"/><ellipse cx="377.0313" cy="280.1921" fill="#FB8500" rx="10.4167" ry="10.4167" style="stroke:#444444;stroke-width:1.0416666666666667;"/><path d="M378.9355,284.6191 Q378.5124,284.8307 378.0404,284.9447 Q377.5684,285.0586 377.0638,285.0586 Q375.2083,285.0586 374.2318,283.8542 Q373.2715,282.6335 373.2715,280.3385 Q373.2715,278.0273 374.2318,276.8229 Q375.2083,275.6022 377.0638,275.6022 Q377.5684,275.6022 378.0404,275.7161 Q378.5286,275.8138 378.9355,276.0417 L378.9355,278.0436 Q378.4798,277.6204 378.0404,277.4251 Q377.6009,277.2135 377.1452,277.2135 Q376.1523,277.2135 375.6478,278.0111 Q375.1432,278.7923 375.1432,280.3385 Q375.1432,281.8685 375.6478,282.6497 Q376.1523,283.431 377.1452,283.431 Q377.6009,283.431 378.0404,283.2357 Q378.4798,283.0404 378.9355,282.6172 L378.9355,284.6191 Z " fill="#000000"/><text fill="#222222" font-family="Verdana" font-size="12.5" lengthAdjust="spacing" textLength="115.625" x="399.0104" y="284.5194">DashboardRouter</text><line style="stroke:#55B2DE;stroke-width:1.0416666666666667;" x1="348.9583" x2="536.4583" y1="297.8841" y2="297.8841"/><ellipse cx="359.375" cy="309.3424" fill="#84BE84" rx="3.125" ry="3.125" style="stroke:#038048;stroke-width:1.0416666666666667;"/><text fill="#ADAFAE" font-family="Verdana" font-size="11.4583" lengthAdjust="spacing" textLength="153.125" x="372.9167" y="317.895">navigateToChatDetails(...)</text><!--MD5=[c01dcf3d57a4a52b3bfa5fde8363aecc]
class AppDelegate--><rect fill="#313238" height="35.3841" id="AppDelegate" rx="4.1667" ry="4.1667" style="stroke:#55B2DE;stroke-width:1.0416666666666667;" width="126.0417" x="47.3958" y="138.5417"/><rect fill="#227FAB" height="35.3841" rx="4.1667" ry="4.1667" style="stroke:#227FAB;stroke-width:1.0416666666666667;" width="126.0417" x="47.3958" y="138.5417"/><rect fill="#227FAB" height="4.1667" style="stroke:#227FAB;stroke-width:1.0416666666666667;" width="126.0417" x="47.3958" y="169.7591"/><rect fill="none" height="35.3841" id="AppDelegate" rx="4.1667" ry="4.1667" style="stroke:#55B2DE;stroke-width:1.0416666666666667;" width="126.0417" x="47.3958" y="138.5417"/><ellipse cx="61.9792" cy="156.2337" fill="#FB8500" rx="10.4167" ry="10.4167" style="stroke:#444444;stroke-width:1.0416666666666667;"/><path d="M63.8835,160.6608 Q63.4603,160.8724 62.9883,160.9863 Q62.5163,161.1003 62.0117,161.1003 Q60.1563,161.1003 59.1797,159.8958 Q58.2194,158.6751 58.2194,156.3802 Q58.2194,154.069 59.1797,152.8646 Q60.1563,151.6439 62.0117,151.6439 Q62.5163,151.6439 62.9883,151.7578 Q63.4766,151.8555 63.8835,152.0833 L63.8835,154.0853 Q63.4277,153.6621 62.9883,153.4668 Q62.5488,153.2552 62.0931,153.2552 Q61.1003,153.2552 60.5957,154.0527 Q60.0911,154.834 60.0911,156.3802 Q60.0911,157.9102 60.5957,158.6914 Q61.1003,159.4727 62.0931,159.4727 Q62.5488,159.4727 62.9883,159.2773 Q63.4277,159.082 63.8835,158.6589 L63.8835,160.6608 Z " fill="#000000"/><text fill="#222222" font-family="Verdana" font-size="12.5" lengthAdjust="spacing" textLength="84.375" x="80.7292" y="160.5611">AppDelegate</text><!--MD5=[8aec3159cc151200ebc10dad0bb2dd80]
class MainRouter--><rect fill="#313238" height="35.3841" id="MainRouter" rx="4.1667" ry="4.1667" style="stroke:#55B2DE;stroke-width:1.0416666666666667;" width="115.625" x="52.6042" y="278.6458"/><rect fill="#227FAB" height="35.3841" rx="4.1667" ry="4.1667" style="stroke:#227FAB;stroke-width:1.0416666666666667;" width="115.625" x="52.6042" y="278.6458"/><rect fill="#227FAB" height="4.1667" style="stroke:#227FAB;stroke-width:1.0416666666666667;" width="115.625" x="52.6042" y="309.8633"/><rect fill="none" height="35.3841" id="MainRouter" rx="4.1667" ry="4.1667" style="stroke:#55B2DE;stroke-width:1.0416666666666667;" width="115.625" x="52.6042" y="278.6458"/><ellipse cx="67.1875" cy="296.3379" fill="#FB8500" rx="10.4167" ry="10.4167" style="stroke:#444444;stroke-width:1.0416666666666667;"/><path d="M69.0918,300.765 Q68.6686,300.9766 68.1966,301.0905 Q67.7246,301.2044 67.2201,301.2044 Q65.3646,301.2044 64.388,300 Q63.4277,298.7793 63.4277,296.4844 Q63.4277,294.1732 64.388,292.9688 Q65.3646,291.748 67.2201,291.748 Q67.7246,291.748 68.1966,291.862 Q68.6849,291.9596 69.0918,292.1875 L69.0918,294.1895 Q68.6361,293.7663 68.1966,293.571 Q67.7572,293.3594 67.3014,293.3594 Q66.3086,293.3594 65.804,294.1569 Q65.2995,294.9382 65.2995,296.4844 Q65.2995,298.0143 65.804,298.7956 Q66.3086,299.5768 67.3014,299.5768 Q67.7572,299.5768 68.1966,299.3815 Q68.6361,299.1862 69.0918,298.763 L69.0918,300.765 Z " fill="#000000"/><text fill="#222222" font-family="Verdana" font-size="12.5" lengthAdjust="spacing" textLength="73.9583" x="85.9375" y="300.6653">MainRouter</text><!--MD5=[bc130e996e7972261fd5c00d4ef8f87e]
class DashboardContainerController--><rect fill="#313238" height="35.3841" id="DashboardContainerController" rx="4.1667" ry="4.1667" style="stroke:#55B2DE;stroke-width:1.0416666666666667;" width="240.625" x="322.3958" y="418.75"/><rect fill="#227FAB" height="35.3841" rx="4.1667" ry="4.1667" style="stroke:#227FAB;stroke-width:1.0416666666666667;" width="240.625" x="322.3958" y="418.75"/><rect fill="#227FAB" height="4.1667" style="stroke:#227FAB;stroke-width:1.0416666666666667;" width="240.625" x="322.3958" y="449.9674"/><rect fill="none" height="35.3841" id="DashboardContainerController" rx="4.1667" ry="4.1667" style="stroke:#55B2DE;stroke-width:1.0416666666666667;" width="240.625" x="322.3958" y="418.75"/><ellipse cx="336.9792" cy="436.4421" fill="#FB8500" rx="10.4167" ry="10.4167" style="stroke:#444444;stroke-width:1.0416666666666667;"/><path d="M338.8835,440.8691 Q338.4603,441.0807 337.9883,441.1947 Q337.5163,441.3086 337.0117,441.3086 Q335.1563,441.3086 334.1797,440.1042 Q333.2194,438.8835 333.2194,436.5885 Q333.2194,434.2773 334.1797,433.0729 Q335.1563,431.8522 337.0117,431.8522 Q337.5163,431.8522 337.9883,431.9661 Q338.4766,432.0638 338.8835,432.2917 L338.8835,434.2936 Q338.4277,433.8704 337.9883,433.6751 Q337.5488,433.4635 337.0931,433.4635 Q336.1003,433.4635 335.5957,434.2611 Q335.0911,435.0423 335.0911,436.5885 Q335.0911,438.1185 335.5957,438.8997 Q336.1003,439.681 337.0931,439.681 Q337.5488,439.681 337.9883,439.4857 Q338.4277,439.2904 338.8835,438.8672 L338.8835,440.8691 Z " fill="#000000"/><text fill="#222222" font-family="Verdana" font-size="12.5" lengthAdjust="spacing" textLength="198.9583" x="355.7292" y="440.7694">DashboardContainerController</text><!--MD5=[ca91d73d6f18027c28c062c1299fd929]
class DashboardViewModel--><rect fill="#313238" height="35.3841" id="DashboardViewModel" rx="4.1667" ry="4.1667" style="stroke:#55B2DE;stroke-width:1.0416666666666667;" width="181.25" x="815.625" y="418.75"/><rect fill="#227FAB" height="35.3841" rx="4.1667" ry="4.1667" style="stroke:#227FAB;stroke-width:1.0416666666666667;" width="181.25" x="815.625" y="418.75"/><rect fill="#227FAB" height="4.1667" style="stroke:#227FAB;stroke-width:1.0416666666666667;" width="181.25" x="815.625" y="449.9674"/><rect fill="none" height="35.3841" id="DashboardViewModel" rx="4.1667" ry="4.1667" style="stroke:#55B2DE;stroke-width:1.0416666666666667;" width="181.25" x="815.625" y="418.75"/><ellipse cx="830.2083" cy="436.4421" fill="#FB8500" rx="10.4167" ry="10.4167" style="stroke:#444444;stroke-width:1.0416666666666667;"/><path d="M832.1126,440.8691 Q831.6895,441.0807 831.2174,441.1947 Q830.7454,441.3086 830.2409,441.3086 Q828.3854,441.3086 827.4089,440.1042 Q826.4486,438.8835 826.4486,436.5885 Q826.4486,434.2773 827.4089,433.0729 Q828.3854,431.8522 830.2409,431.8522 Q830.7454,431.8522 831.2174,431.9661 Q831.7057,432.0638 832.1126,432.2917 L832.1126,434.2936 Q831.6569,433.8704 831.2174,433.6751 Q830.778,433.4635 830.3223,433.4635 Q829.3294,433.4635 828.8249,434.2611 Q828.3203,435.0423 828.3203,436.5885 Q828.3203,438.1185 828.8249,438.8997 Q829.3294,439.681 830.3223,439.681 Q830.778,439.681 831.2174,439.4857 Q831.6569,439.2904 832.1126,438.8672 L832.1126,440.8691 Z " fill="#000000"/><text fill="#222222" font-family="Verdana" font-size="12.5" lengthAdjust="spacing" textLength="139.5833" x="848.9583" y="440.7694">DashboardViewModel</text><!--MD5=[d1cd822d190c74499caf3abbde8347a0]
class DashboardDetailsContainerViewModel--><rect fill="#313238" height="35.3841" id="DashboardDetailsContainerViewModel" rx="4.1667" ry="4.1667" style="stroke:#55B2DE;stroke-width:1.0416666666666667;" width="289.5833" x="916.6667" y="559.8958"/><rect fill="#227FAB" height="35.3841" rx="4.1667" ry="4.1667" style="stroke:#227FAB;stroke-width:1.0416666666666667;" width="289.5833" x="916.6667" y="559.8958"/><rect fill="#227FAB" height="4.1667" style="stroke:#227FAB;stroke-width:1.0416666666666667;" width="289.5833" x="916.6667" y="591.1133"/><rect fill="none" height="35.3841" id="DashboardDetailsContainerViewModel" rx="4.1667" ry="4.1667" style="stroke:#55B2DE;stroke-width:1.0416666666666667;" width="289.5833" x="916.6667" y="559.8958"/><ellipse cx="931.25" cy="577.5879" fill="#FB8500" rx="10.4167" ry="10.4167" style="stroke:#444444;stroke-width:1.0416666666666667;"/><path d="M933.1543,582.015 Q932.7311,582.2266 932.2591,582.3405 Q931.7871,582.4544 931.2826,582.4544 Q929.4271,582.4544 928.4505,581.25 Q927.4902,580.0293 927.4902,577.7344 Q927.4902,575.4232 928.4505,574.2188 Q929.4271,572.998 931.2826,572.998 Q931.7871,572.998 932.2591,573.112 Q932.7474,573.2096 933.1543,573.4375 L933.1543,575.4395 Q932.6986,575.0163 932.2591,574.821 Q931.8197,574.6094 931.3639,574.6094 Q930.3711,574.6094 929.8665,575.4069 Q929.362,576.1882 929.362,577.7344 Q929.362,579.2643 929.8665,580.0456 Q930.3711,580.8268 931.3639,580.8268 Q931.8197,580.8268 932.2591,580.6315 Q932.6986,580.4362 933.1543,580.013 L933.1543,582.015 Z " fill="#000000"/><text fill="#222222" font-family="Verdana" font-size="12.5" lengthAdjust="spacing" textLength="247.9167" x="950" y="581.9153">DashboardDetailsContainerViewModel</text><!--MD5=[56f8b6c557c3ca934b1b6e8347ba90d6]
class DashboardDetailsContainerViewController--><rect fill="#313238" height="35.3841" id="DashboardDetailsContainerViewController" rx="4.1667" ry="4.1667" style="stroke:#55B2DE;stroke-width:1.0416666666666667;" width="314.5833" x="285.4167" y="559.8958"/><rect fill="#227FAB" height="35.3841" rx="4.1667" ry="4.1667" style="stroke:#227FAB;stroke-width:1.0416666666666667;" width="314.5833" x="285.4167" y="559.8958"/><rect fill="#227FAB" height="4.1667" style="stroke:#227FAB;stroke-width:1.0416666666666667;" width="314.5833" x="285.4167" y="591.1133"/><rect fill="none" height="35.3841" id="DashboardDetailsContainerViewController" rx="4.1667" ry="4.1667" style="stroke:#55B2DE;stroke-width:1.0416666666666667;" width="314.5833" x="285.4167" y="559.8958"/><ellipse cx="300" cy="577.5879" fill="#FB8500" rx="10.4167" ry="10.4167" style="stroke:#444444;stroke-width:1.0416666666666667;"/><path d="M301.9043,582.015 Q301.4811,582.2266 301.0091,582.3405 Q300.5371,582.4544 300.0326,582.4544 Q298.1771,582.4544 297.2005,581.25 Q296.2402,580.0293 296.2402,577.7344 Q296.2402,575.4232 297.2005,574.2188 Q298.1771,572.998 300.0326,572.998 Q300.5371,572.998 301.0091,573.112 Q301.4974,573.2096 301.9043,573.4375 L301.9043,575.4395 Q301.4486,575.0163 301.0091,574.821 Q300.5697,574.6094 300.1139,574.6094 Q299.1211,574.6094 298.6165,575.4069 Q298.112,576.1882 298.112,577.7344 Q298.112,579.2643 298.6165,580.0456 Q299.1211,580.8268 300.1139,580.8268 Q300.5697,580.8268 301.0091,580.6315 Q301.4486,580.4362 301.9043,580.013 L301.9043,582.015 Z " fill="#000000"/><text fill="#222222" font-family="Verdana" font-size="12.5" lengthAdjust="spacing" textLength="272.9167" x="318.75" y="581.9153">DashboardDetailsContainerViewController</text><!--MD5=[0141def5517ee1429dd4f3af3ef995f2]
class KidsWatchViewStateProducer--><rect fill="#313238" height="35.3841" id="KidsWatchViewStateProducer" rx="4.1667" ry="4.1667" style="stroke:#55B2DE;stroke-width:1.0416666666666667;" width="232.2917" x="945.3125" y="701.0417"/><rect fill="#227FAB" height="35.3841" rx="4.1667" ry="4.1667" style="stroke:#227FAB;stroke-width:1.0416666666666667;" width="232.2917" x="945.3125" y="701.0417"/><rect fill="#227FAB" height="4.1667" style="stroke:#227FAB;stroke-width:1.0416666666666667;" width="232.2917" x="945.3125" y="732.2591"/><rect fill="none" height="35.3841" id="KidsWatchViewStateProducer" rx="4.1667" ry="4.1667" style="stroke:#55B2DE;stroke-width:1.0416666666666667;" width="232.2917" x="945.3125" y="701.0417"/><ellipse cx="959.8958" cy="718.7337" fill="#FB8500" rx="10.4167" ry="10.4167" style="stroke:#444444;stroke-width:1.0416666666666667;"/><path d="M961.8001,723.1608 Q961.377,723.3724 960.9049,723.4863 Q960.4329,723.6003 959.9284,723.6003 Q958.0729,723.6003 957.0964,722.3958 Q956.1361,721.1751 956.1361,718.8802 Q956.1361,716.569 957.0964,715.3646 Q958.0729,714.1439 959.9284,714.1439 Q960.4329,714.1439 960.9049,714.2578 Q961.3932,714.3555 961.8001,714.5833 L961.8001,716.5853 Q961.3444,716.1621 960.9049,715.9668 Q960.4655,715.7552 960.0098,715.7552 Q959.0169,715.7552 958.5124,716.5527 Q958.0078,717.334 958.0078,718.8802 Q958.0078,720.4102 958.5124,721.1914 Q959.0169,721.9727 960.0098,721.9727 Q960.4655,721.9727 960.9049,721.7773 Q961.3444,721.582 961.8001,721.1589 L961.8001,723.1608 Z " fill="#000000"/><text fill="#222222" font-family="Verdana" font-size="12.5" lengthAdjust="spacing" textLength="190.625" x="978.6458" y="723.0611">KidsWatchViewStateProducer</text><!--MD5=[0b267776ad60d47510760946ff620390]
class ChatListViewController--><rect fill="#313238" height="35.3841" id="ChatListViewController" rx="4.1667" ry="4.1667" style="stroke:#55B2DE;stroke-width:1.0416666666666667;" width="186.4583" x="968.2292" y="883.3333"/><rect fill="#227FAB" height="35.3841" rx="4.1667" ry="4.1667" style="stroke:#227FAB;stroke-width:1.0416666666666667;" width="186.4583" x="968.2292" y="883.3333"/><rect fill="#227FAB" height="4.1667" style="stroke:#227FAB;stroke-width:1.0416666666666667;" width="186.4583" x="968.2292" y="914.5508"/><rect fill="none" height="35.3841" id="ChatListViewController" rx="4.1667" ry="4.1667" style="stroke:#55B2DE;stroke-width:1.0416666666666667;" width="186.4583" x="968.2292" y="883.3333"/><ellipse cx="982.8125" cy="901.0254" fill="#FB8500" rx="10.4167" ry="10.4167" style="stroke:#444444;stroke-width:1.0416666666666667;"/><path d="M984.7168,905.4525 Q984.2936,905.6641 983.8216,905.778 Q983.3496,905.8919 982.8451,905.8919 Q980.9896,905.8919 980.013,904.6875 Q979.0527,903.4668 979.0527,901.1719 Q979.0527,898.8607 980.013,897.6563 Q980.9896,896.4355 982.8451,896.4355 Q983.3496,896.4355 983.8216,896.5495 Q984.3099,896.6471 984.7168,896.875 L984.7168,898.877 Q984.2611,898.4538 983.8216,898.2585 Q983.3822,898.0469 982.9264,898.0469 Q981.9336,898.0469 981.429,898.8444 Q980.9245,899.6257 980.9245,901.1719 Q980.9245,902.7018 981.429,903.4831 Q981.9336,904.2643 982.9264,904.2643 Q983.3822,904.2643 983.8216,904.069 Q984.2611,903.8737 984.7168,903.4505 L984.7168,905.4525 Z " fill="#000000"/><text fill="#222222" font-family="Verdana" font-size="12.5" lengthAdjust="spacing" textLength="144.7917" x="1001.5625" y="905.3528">ChatListViewController</text><!--MD5=[a22c9e35290616dcf15d1bea63b7ccd2]
class ChatListViewModel--><rect fill="#313238" height="35.3841" id="ChatListViewModel" rx="4.1667" ry="4.1667" style="stroke:#55B2DE;stroke-width:1.0416666666666667;" width="161.4583" x="453.6458" y="701.0417"/><rect fill="#227FAB" height="35.3841" rx="4.1667" ry="4.1667" style="stroke:#227FAB;stroke-width:1.0416666666666667;" width="161.4583" x="453.6458" y="701.0417"/><rect fill="#227FAB" height="4.1667" style="stroke:#227FAB;stroke-width:1.0416666666666667;" width="161.4583" x="453.6458" y="732.2591"/><rect fill="none" height="35.3841" id="ChatListViewModel" rx="4.1667" ry="4.1667" style="stroke:#55B2DE;stroke-width:1.0416666666666667;" width="161.4583" x="453.6458" y="701.0417"/><ellipse cx="468.2292" cy="718.7337" fill="#FB8500" rx="10.4167" ry="10.4167" style="stroke:#444444;stroke-width:1.0416666666666667;"/><path d="M470.1335,723.1608 Q469.7103,723.3724 469.2383,723.4863 Q468.7663,723.6003 468.2617,723.6003 Q466.4063,723.6003 465.4297,722.3958 Q464.4694,721.1751 464.4694,718.8802 Q464.4694,716.569 465.4297,715.3646 Q466.4063,714.1439 468.2617,714.1439 Q468.7663,714.1439 469.2383,714.2578 Q469.7266,714.3555 470.1335,714.5833 L470.1335,716.5853 Q469.6777,716.1621 469.2383,715.9668 Q468.7988,715.7552 468.3431,715.7552 Q467.3503,715.7552 466.8457,716.5527 Q466.3411,717.334 466.3411,718.8802 Q466.3411,720.4102 466.8457,721.1914 Q467.3503,721.9727 468.3431,721.9727 Q468.7988,721.9727 469.2383,721.7773 Q469.6777,721.582 470.1335,721.1589 L470.1335,723.1608 Z " fill="#000000"/><text fill="#222222" font-family="Verdana" font-size="12.5" lengthAdjust="spacing" textLength="119.7917" x="486.9792" y="723.0611">ChatListViewModel</text><!--MD5=[9635ea968ed8ab5a3cf4051654c50d51]
reverse link DeepLinkResolver to AppDelegate--><path codeLine="10" d="M110.4167,80.625 C110.4167,100.2812 110.4167,123.1771 110.4167,138.375 " fill="none" id="DeepLinkResolver-backto-AppDelegate" style="stroke:#2A9FD6;stroke-width:3.125;"/><polygon fill="#2A9FD6" points="110.4167,75.1771,106.25,84.5521,110.4167,80.3854,114.5833,84.5521,110.4167,75.1771" style="stroke:#2A9FD6;stroke-width:3.125;"/><!--MD5=[c4e996042323fb87f94aea8da27d34dc]
link DeepLinkResolver to DeepLink--><path codeLine="11" d="M213.7604,41.1458 C223.9271,41.1458 234.0938,41.1458 244.2604,41.1458 " fill="none" id="DeepLinkResolver-to-DeepLink" style="stroke:#2A9FD6;stroke-width:3.125;"/><polygon fill="#2A9FD6" points="249.5729,41.1458,240.1979,36.9792,244.3646,41.1458,240.1979,45.3125,249.5729,41.1458" style="stroke:#2A9FD6;stroke-width:3.125;"/><!--MD5=[364377e12987df2901a5536546566582]
link AppDelegate to MainRouter--><path codeLine="12" d="M110.4167,174.2188 C110.4167,199.0521 110.4167,245.3958 110.4167,272.9896 " fill="none" id="AppDelegate-to-MainRouter" style="stroke:#2A9FD6;stroke-width:3.125;"/><polygon fill="#2A9FD6" points="110.4167,278.25,114.5833,268.875,110.4167,273.0417,106.25,268.875,110.4167,278.25" style="stroke:#2A9FD6;stroke-width:3.125;"/><text fill="#FFFFFF" font-family="Verdana" font-size="12.5" lengthAdjust="spacing" textLength="29.1667" x="116.6667" y="223.0611">calls</text><!--MD5=[8a8f4855a3b2e18fd8fcf7c882cc1be8]
link MainRouter to DashboardRouter--><path codeLine="13" d="M168.3021,296.3542 C216.2083,296.3542 285.4063,296.3542 342.3229,296.3542 " fill="none" id="MainRouter-to-DashboardRouter" style="stroke:#2A9FD6;stroke-width:3.125;"/><polygon fill="#2A9FD6" points="347.7917,296.3542,338.4167,292.1875,342.5833,296.3542,338.4167,300.5208,347.7917,296.3542" style="stroke:#2A9FD6;stroke-width:3.125;"/><text fill="#FFFFFF" font-family="Verdana" font-size="12.5" lengthAdjust="spacing" textLength="123.9583" x="196.0938" y="285.0403">sets as root router</text><!--MD5=[d0abecb9b3fd2782859bf88b0882b199]
link MainRouter to DeepLinkRepository--><path codeLine="14" d="M108.9375,314.375 C106.8125,340.4063 103.125,391.75 103.125,435.4167 C103.125,435.4167 103.125,435.4167 103.125,719.7917 C103.125,757.6563 103.125,800 103.125,834.1146 " fill="none" id="MainRouter-to-DeepLinkRepository" style="stroke:#2A9FD6;stroke-width:3.125;"/><polygon fill="#2A9FD6" points="103.125,839.5208,107.2917,830.1458,103.125,834.3125,98.9583,830.1458,103.125,839.5208" style="stroke:#2A9FD6;stroke-width:3.125;"/><text fill="#FFFFFF" font-family="Verdana" font-size="12.5" lengthAdjust="spacing" textLength="28.125" x="125" y="575.1444">sets</text><text fill="#FFFFFF" font-family="Verdana" font-size="12.5" lengthAdjust="spacing" textLength="59.375" x="109.375" y="589.6952">deep link</text><!--MD5=[41de488edc391051b0e0fb6703078506]
link DashboardRouter to DashboardContainerController--><path codeLine="15" d="M442.7083,330.4583 C442.7083,356.0417 442.7083,390.7708 442.7083,413.1458 " fill="none" id="DashboardRouter-to-DashboardContainerController" style="stroke:#2A9FD6;stroke-width:3.125;"/><polygon fill="#2A9FD6" points="442.7083,418.5521,446.875,409.1771,442.7083,413.3438,438.5417,409.1771,442.7083,418.5521" style="stroke:#2A9FD6;stroke-width:3.125;"/><text fill="#FFFFFF" font-family="Verdana" font-size="12.5" lengthAdjust="spacing" textLength="50" x="448.9583" y="379.3111">creates</text><!--MD5=[ffa24c4fcb68f4d8959c68f364a8efff]
link DashboardRouter to DashboardViewModel--><path codeLine="16" d="M537.6354,325.6563 C629.6458,353.0521 766.4792,393.8021 844.9688,417.1667 " fill="none" id="DashboardRouter-to-DashboardViewModel" style="stroke:#2A9FD6;stroke-width:3.125;"/><polygon fill="#2A9FD6" points="850.0521,418.6875,842.2369,412.0411,845.0561,417.2155,839.8817,420.0346,850.0521,418.6875" style="stroke:#2A9FD6;stroke-width:3.125;"/><text fill="#FFFFFF" font-family="Verdana" font-size="12.5" lengthAdjust="spacing" textLength="50" x="748.9583" y="379.3111">creates</text><!--MD5=[b87f348b0d94a05693a578081a2d8a8a]
reverse link DashboardContainerController to DashboardViewModel--><path codeLine="17" d="M568.875,436.4583 C646.8854,436.4583 745.2188,436.4583 815.5625,436.4583 " fill="none" id="DashboardContainerController-backto-DashboardViewModel" style="stroke:#2A9FD6;stroke-width:3.125;stroke-dasharray:7.0,7.0;"/><polygon fill="#2A9FD6" points="563.2917,436.4583,572.6667,440.625,568.5,436.4583,572.6667,432.2917,563.2917,436.4583" style="stroke:#2A9FD6;stroke-width:3.125;"/><text fill="#FFFFFF" font-family="Verdana" font-size="12.5" lengthAdjust="spacing" textLength="35.4167" x="671.6146" y="410.5611">emits</text><text fill="#FFFFFF" font-family="Verdana" font-size="12.5" lengthAdjust="spacing" textLength="204.1667" x="587.2396" y="425.1119">DashboardDetailsCLEViewState</text><!--MD5=[75e9c274f3630222eddf6ca66a6d68cc]
link DashboardContainerController to DashboardDetailsContainerViewModel--><path codeLine="18" d="M517.0417,454.2083 C634.2604,480.5521 861.1042,531.5313 981.6458,558.625 " fill="none" id="DashboardContainerController-to-DashboardDetailsContainerViewModel" style="stroke:#2A9FD6;stroke-width:3.125;"/><polygon fill="#2A9FD6" points="986.9583,559.8229,978.7275,553.6988,981.8772,558.6789,976.8971,561.8286,986.9583,559.8229" style="stroke:#2A9FD6;stroke-width:3.125;"/><text fill="#FFFFFF" font-family="Verdana" font-size="12.5" lengthAdjust="spacing" textLength="50" x="831.25" y="510.5611">creates</text><!--MD5=[2250dd872176cc3548d35b1ff3e74001]
link DashboardContainerController to DashboardDetailsContainerViewController--><path codeLine="19" d="M442.7083,454.2708 C442.7083,479.3333 442.7083,526.5625 442.7083,554.4271 " fill="none" id="DashboardContainerController-to-DashboardDetailsContainerViewController" style="stroke:#2A9FD6;stroke-width:3.125;"/><polygon fill="#2A9FD6" points="442.7083,559.7292,446.875,550.3542,442.7083,554.5208,438.5417,550.3542,442.7083,559.7292" style="stroke:#2A9FD6;stroke-width:3.125;"/><text fill="#FFFFFF" font-family="Verdana" font-size="12.5" lengthAdjust="spacing" textLength="50" x="448.9583" y="510.5611">creates</text><!--MD5=[3d93237e28759372047cdd37eb900700]
reverse link DashboardDetailsContainerViewController to DashboardDetailsContainerViewModel--><path codeLine="20" d="M605.4896,577.6042 C702.0313,577.6042 823.3333,577.6042 916.5521,577.6042 " fill="none" id="DashboardDetailsContainerViewController-backto-DashboardDetailsContainerViewModel" style="stroke:#2A9FD6;stroke-width:3.125;stroke-dasharray:7.0,7.0;"/><polygon fill="#2A9FD6" points="600.0417,577.6042,609.4167,581.7708,605.25,577.6042,609.4167,573.4375,600.0417,577.6042" style="stroke:#2A9FD6;stroke-width:3.125;"/><text fill="#FFFFFF" font-family="Verdana" font-size="12.5" lengthAdjust="spacing" textLength="35.4167" x="740.625" y="551.7069">emits</text><text fill="#FFFFFF" font-family="Verdana" font-size="12.5" lengthAdjust="spacing" textLength="267.7083" x="624.4792" y="566.2577">DashboardDetailsContainerCLEViewState</text><!--MD5=[97b53fc688facd66742d128c9b2d6b3a]
reverse link DashboardDetailsContainerViewModel to KidsWatchViewStateProducer--><path codeLine="21" d="M1061.4583,600.7188 C1061.4583,628.5417 1061.4583,675.7813 1061.4583,700.875 " fill="none" id="DashboardDetailsContainerViewModel-backto-KidsWatchViewStateProducer" style="stroke:#2A9FD6;stroke-width:3.125;stroke-dasharray:7.0,7.0;"/><polygon fill="#2A9FD6" points="1061.4583,595.4167,1057.2917,604.7917,1061.4583,600.625,1065.625,604.7917,1061.4583,595.4167" style="stroke:#2A9FD6;stroke-width:3.125;"/><text fill="#FFFFFF" font-family="Verdana" font-size="12.5" lengthAdjust="spacing" textLength="35.4167" x="1183.8542" y="647.0194">emits</text><text fill="#FFFFFF" font-family="Verdana" font-size="12.5" lengthAdjust="spacing" textLength="267.7083" x="1067.7083" y="661.5702">DashboardDetailsContainerCLEViewState</text><!--MD5=[d6b100c7867e64bb9caabd8742fd3735]
link KidsWatchViewStateProducer to ChatListViewController--><path codeLine="22" d="M1061.4583,736.75 C1061.4583,769.3438 1061.4583,840.7917 1061.4583,877.3958 " fill="none" id="KidsWatchViewStateProducer-to-ChatListViewController" style="stroke:#2A9FD6;stroke-width:3.125;"/><polygon fill="#2A9FD6" points="1061.4583,882.9583,1065.625,873.5833,1061.4583,877.75,1057.2917,873.5833,1061.4583,882.9583" style="stroke:#2A9FD6;stroke-width:3.125;"/><text fill="#FFFFFF" font-family="Verdana" font-size="12.5" lengthAdjust="spacing" textLength="50" x="1067.7083" y="792.8528">creates</text><!--MD5=[e9838d209ae87fa31cf9b0f2640be4ba]
reverse link ChatListViewModel to KidsWatchViewStateProducer--><path codeLine="23" d="M620.5104,718.75 C708.9688,718.75 847.2083,718.75 945.2917,718.75 " fill="none" id="ChatListViewModel-backto-KidsWatchViewStateProducer" style="stroke:#2A9FD6;stroke-width:3.125;"/><polygon fill="#2A9FD6" points="615.2917,718.75,624.6667,722.9167,620.5,718.75,624.6667,714.5833,615.2917,718.75" style="stroke:#2A9FD6;stroke-width:3.125;"/><text fill="#FFFFFF" font-family="Verdana" font-size="12.5" lengthAdjust="spacing" textLength="50" x="755.2083" y="692.8528">creates</text><text fill="#FFFFFF" font-family="Verdana" font-size="12.5" lengthAdjust="spacing" textLength="281.25" x="639.5833" y="707.4036">via DashboardDetailsContainerTabsFactory</text><!--MD5=[41a3fa10037205bb5d23807369a840c6]
link ChatListViewModel to DashboardRouter--><path codeLine="24" d="M453.5208,705.5 C390.7188,691.3125 307.6458,661.1563 266.6667,597.9167 C222.4167,529.6458 261.0938,487.7708 304.1667,418.75 C325.3854,384.75 359.0313,354.9583 387.8542,333.3958 " fill="none" id="ChatListViewModel-to-DashboardRouter" style="stroke:#2A9FD6;stroke-width:3.125;"/><polygon fill="#2A9FD6" points="392.0729,330.2708,382.0587,332.4995,387.8867,333.3696,387.0166,339.1975,392.0729,330.2708" style="stroke:#2A9FD6;stroke-width:3.125;"/><text fill="#FFFFFF" font-family="Verdana" font-size="12.5" lengthAdjust="spacing" textLength="67.7083" x="278.6458" y="503.2694">calls when</text><text fill="#FFFFFF" font-family="Verdana" font-size="12.5" lengthAdjust="spacing" textLength="85.4167" x="269.7917" y="517.8202">done loading</text><!--MD5=[75c22dd125ab7e32e02848d3642c934c]
link ChatListViewModel to DeepLinkRepository--><path codeLine="25" d="M494.1875,736.5833 C427.2188,764.5625 291.0208,821.4792 198.3958,860.1875 " fill="none" id="ChatListViewModel-to-DeepLinkRepository" style="stroke:#2A9FD6;stroke-width:3.125;"/><polygon fill="#2A9FD6" points="193.4688,862.25,203.7254,862.4791,198.2742,860.2415,200.5118,854.7903,193.4688,862.25" style="stroke:#2A9FD6;stroke-width:3.125;"/><text fill="#FFFFFF" font-family="Verdana" font-size="12.5" lengthAdjust="spacing" textLength="41.6667" x="433.8542" y="785.5611">resets</text><text fill="#FFFFFF" font-family="Verdana" font-size="12.5" lengthAdjust="spacing" textLength="59.375" x="425" y="800.1119">deep link</text><!--MD5=[7bc48815f6eef5919de21aca85205945]
@startuml
!include ../../design.puml
!include ../deep-links-classes-include.puml

show DashboardRouter methods

class DashboardRouter {
+navigateToChatDetails(...)
}

AppDelegate -up-> DeepLinkResolver
DeepLinkResolver -right-> DeepLink
AppDelegate -d-> MainRouter: calls
MainRouter -right-> DashboardRouter: sets as root router
MainRouter - - - -down-> DeepLinkRepository: sets\ndeep link
DashboardRouter -down-> DashboardContainerController: creates
DashboardRouter -down-> DashboardViewModel: creates
DashboardViewModel .left.> DashboardContainerController: emits\nDashboardDetailsCLEViewState
DashboardContainerController - -> DashboardDetailsContainerViewModel: creates
DashboardContainerController - -> DashboardDetailsContainerViewController: creates
DashboardDetailsContainerViewModel .left.> DashboardDetailsContainerViewController: emits\nDashboardDetailsContainerCLEViewState
    KidsWatchViewStateProducer .up.> DashboardDetailsContainerViewModel : emits\nDashboardDetailsContainerCLEViewState
KidsWatchViewStateProducer -down-> ChatListViewController: creates
KidsWatchViewStateProducer -left-> ChatListViewModel: creates\nvia DashboardDetailsContainerTabsFactory
ChatListViewModel -[norank]-> DashboardRouter: calls when\ndone loading
ChatListViewModel -[norank]-> DeepLinkRepository: resets\ndeep link

@enduml

@startuml




skinparam backgroundColor transparent
skinparam useBetaStyle false







skinparam defaultFontName       "Verdana"
skinparam defaultFontSize       12
skinparam dpi                   100
skinparam shadowing             false
skinparam roundcorner           8
skinparam ParticipantPadding    40
skinparam BoxPadding            40
skinparam Padding               5
skinparam ArrowColor            #ADAFAE
skinparam stereotype {
    CBackgroundColor #777777
    CBorderColor #444444
    ABackgroundColor #5F8F00
    ABorderColor #92C233
    IBackgroundColor #a30000
    IBorderColor #D63333
    EBackgroundColor #cc6d00
    EBorderColor #FFA033
    NBackgroundColor #7a29a3
    NBorderColor #AD5CD6
}
skinparam title {
	FontColor	                 #2A9FD6
	BorderColor	                 #777777
	FontSize	    	         20
	BorderRoundCorner            8
	BorderThickness 	         1
	BackgroundColor              transparent
}

skinparam legend {
	BackgroundColor transparent
	BorderColor #777777
	FontColor #ADAFAE
}

skinparam swimlane {
	BorderColor #9933CC
	BorderThickness 2
	TitleBackgroundColor  #444444-#555
	TitleFontColor #2A9FD6
}


skinparam activity {
		FontColor #2A9FD6
	BorderColor #55B2DE
	BackgroundColor transparent
	BarColor #77B300
	StartColor #9933CC
	EndColor #9933CC
	DiamondBackgroundColor transparent
  	DiamondBorderColor #777777
  	DiamondFontColor #777777
}


skinparam participant {
		FontColor #2A9FD6
	BorderColor #55B2DE
	BackgroundColor transparent
	ParticipantBorderThickness 2
}


skinparam actor {
		FontColor #2A9FD6
	BorderColor #55B2DE
	BackgroundColor transparent
	FontColor #2A9FD6
}


skinparam arrow {
	Thickness 3
	Color #2A9FD6
	FontColor #FFF
}


skinparam sequence {
	BorderColor #2A9FD6
	TitleFontColor #2A9FD6
	BackgroundColor transparent
	StartColor #2A9FD6
	EndColor #2A9FD6
	BoxBackgroundColor transparent
	BoxBorderColor #ADAFAE
	BoxFontColor #ADAFAE
	DelayFontColor #ADAFAE
	LifeLineBorderColor #555
	LifeLineBorderThickness 2
	LifeLineBackgroundColor transparent
	GroupBorderColor #ADAFAE
	GroupFontColor #ADAFAE
	GroupHeaderFontColor #9933CC
	GroupBackgroundColor transparent
	GroupBodyBackgroundColor transparent
	GroupHeaderBackgroundColor transparent
	DividerBackgroundColor transparent
    DividerBorderColor #ADAFAE
    DividerBorderThickness 2
    DividerFontColor #ADAFAE
	ReferenceBackgroundColor transparent
	ReferenceBorderColor #ADAFAE
	ReferenceFontColor #ADAFAE
	ReferenceHeaderFontColor #9933CC
	ReferenceHeaderBackgroundColor transparent
	StereotypeFontColor #2A9FD6
}


skinparam partition {
	BorderColor #2A9FD6
	FontColor #2A9FD6
	BackgroundColor transparent
}


skinparam collections {
		FontColor #2A9FD6
	BorderColor #55B2DE
	BackgroundColor transparent
}


skinparam control {
		FontColor #2A9FD6
	BorderColor #55B2DE
	BackgroundColor transparent
	FontColor #2A9FD6
}


skinparam entity {
		FontColor #2A9FD6
	BorderColor #55B2DE
	BackgroundColor transparent
	FontColor #2A9FD6
}


skinparam boundary {
		FontColor #2A9FD6
	BorderColor #55B2DE
	BackgroundColor transparent
	FontColor #2A9FD6
}


skinparam agent {
	BackgroundColor transparent
	BorderColor #cc6d00
	FontColor #ADAFAE
}


skinparam note {
	BorderThickness 1
	BackgroundColor transparent
	BorderColor #AD5CD6
	FontColor #AD5CD6
}


skinparam artifact {
	BackgroundColor transparent
	BorderColor #BDBFBE
	FontColor #BDBFBE
}


skinparam component {
		FontColor #2A9FD6
	BorderColor #55B2DE
	BackgroundColor transparent
}


skinparam interface {
	BackgroundColor  transparent
	BorderColor  #CC0000
	FontColor #ADAFAE
}


skinparam storage {
	BackgroundColor transparent
  	BorderColor #FFA033
	FontColor #FF8800
}


skinparam node {
	BackgroundColor  transparent
	BorderColor #ADAFAE
	FontColor #ADAFAE
}


skinparam cloud {
	BackgroundColor transparent
	BorderColor #F2FCFE
	FontColor #ADAFAE
}


skinparam database {
		FontColor #2A9FD6
	BorderColor #55B2DE
	BackgroundColor transparent
	FontColor #2A9FD6
}



skinparam class {
		FontColor #2A9FD6
	BorderColor #55B2DE
	BackgroundColor transparent
        FontColor #222
	HeaderBackgroundColor #227FAB
	StereotypeFontColor #ADAFAE
	BorderThickness 1
	AttributeFontColor #ADAFAE
	AttributeFontSize 11
}


skinparam object {
		FontColor #2A9FD6
	BorderColor #55B2DE
	BackgroundColor transparent
	StereotypeFontColor #ADAFAE
	BorderThickness 1
	AttributeFontColor #777777
	AttributeFontSize 11
}


skinparam usecase {
		FontColor #2A9FD6
	BorderColor #55B2DE
	BackgroundColor transparent
	BorderThickness 2
	StereotypeFontColor #2A9FD6
}


skinparam rectangle {
		FontColor #2A9FD6
	BorderColor #55B2DE
	BackgroundColor transparent
	BorderThickness 2
	StereotypeFontColor #2A9FD6
}


skinparam package {
	BackgroundColor transparent
  	BorderColor #2A9FD6
	FontColor #2A9FD6
	BorderThickness 2
}


skinparam folder {
	BackgroundColor transparent
  	BorderColor #FF8800
	FontColor #FF8800
	BorderThickness 2
}


skinparam frame {
	BackgroundColor transparent
  	BorderColor #9933CC
	FontColor #9933CC
	BorderThickness 2
}


skinparam state {
		FontColor #2A9FD6
	BorderColor #55B2DE
	BackgroundColor transparent
	StartColor #9933CC
	EndColor #9933CC
	AttributeFontColor #777777
	AttributeFontSize 11
}


skinparam queue {
		FontColor #2A9FD6
	BorderColor #55B2DE
	BackgroundColor transparent
}


skinparam card {
	BackgroundColor transparent
	BorderColor #9933CC
	FontColor #9933CC
}


skinparam file {
	BackgroundColor transparent
	BorderColor #555
	FontColor #555
}



skinparam BackgroundColor #313238
skinparam StereotypeCBackgroundColor #fb8500

skinparam StereotypeCBackgroundColor<<S>> #e840e8
skinparam SpotChar<<S>> S
hide <<S>> stereotype

skinparam StereotypeCBackgroundColor<<E>> #10FF30
skinparam SpotChar<<E>> E
hide <<E>> stereotype




hide members
show DeepLinkResolver methods
show DeepLink methods
show DeepLinkRepository methods

class DeepLink <<E>> {
+neoChat(deviceId:)
}

class DeepLinkResolver<<S>> {
+parse(url: String): DeepLink?
}

class DeepLinkRepository {
+deepLink: DeepLink?
- -
+setDeepLink(_:DeepLink)
+resetDeepLink()
}


show DashboardRouter methods

class DashboardRouter {
+navigateToChatDetails(...)
}

AppDelegate -up-> DeepLinkResolver
DeepLinkResolver -right-> DeepLink
AppDelegate -d-> MainRouter: calls
MainRouter -right-> DashboardRouter: sets as root router
MainRouter - - - -down-> DeepLinkRepository: sets\ndeep link
DashboardRouter -down-> DashboardContainerController: creates
DashboardRouter -down-> DashboardViewModel: creates
DashboardViewModel .left.> DashboardContainerController: emits\nDashboardDetailsCLEViewState
DashboardContainerController - -> DashboardDetailsContainerViewModel: creates
DashboardContainerController - -> DashboardDetailsContainerViewController: creates
DashboardDetailsContainerViewModel .left.> DashboardDetailsContainerViewController: emits\nDashboardDetailsContainerCLEViewState
    KidsWatchViewStateProducer .up.> DashboardDetailsContainerViewModel : emits\nDashboardDetailsContainerCLEViewState
KidsWatchViewStateProducer -down-> ChatListViewController: creates
KidsWatchViewStateProducer -left-> ChatListViewModel: creates\nvia DashboardDetailsContainerTabsFactory
ChatListViewModel -[norank]-> DashboardRouter: calls when\ndone loading
ChatListViewModel -[norank]-> DeepLinkRepository: resets\ndeep link

@enduml

PlantUML version 1.2021.11(Sat Oct 02 13:26:11 GMT 2021)
(GPL source distribution)
Java Runtime: OpenJDK Runtime Environment
JVM: OpenJDK 64-Bit Server VM
Default Encoding: UTF-8
Language: en
Country: US
--></g></svg>