<?xml version="1.0" encoding="UTF-8" standalone="no"?><svg xmlns="http://www.w3.org/2000/svg" xmlns:xlink="http://www.w3.org/1999/xlink" contentScriptType="application/ecmascript" contentStyleType="text/css" height="903.125px" preserveAspectRatio="none" style="width:1298px;height:903px;background:#313238;" version="1.1" viewBox="0 0 1298 903" width="1298.9583px" zoomAndPan="magnify"><defs/><g><!--MD5=[fc811cf51f9c2276167b9320ad74c775]
class DeepLinkResolver--><rect codeLine="32" fill="#313238" height="67.4723" id="DeepLinkResolver" rx="4.1667" ry="4.1667" style="stroke:#55B2DE;stroke-width:1.0416666666666667;" width="204.1667" x="17.1875" y="7.2917"/><rect fill="#227FAB" height="35.3841" rx="4.1667" ry="4.1667" style="stroke:#227FAB;stroke-width:1.0416666666666667;" width="204.1667" x="17.1875" y="7.2917"/><rect fill="#227FAB" height="4.1667" style="stroke:#227FAB;stroke-width:1.0416666666666667;" width="204.1667" x="17.1875" y="38.5091"/><rect codeLine="32" fill="none" height="67.4723" id="DeepLinkResolver" rx="4.1667" ry="4.1667" style="stroke:#55B2DE;stroke-width:1.0416666666666667;" width="204.1667" x="17.1875" y="7.2917"/><ellipse cx="53.8021" cy="24.9837" fill="#E840E8" rx="10.4167" ry="10.4167" style="stroke:#444444;stroke-width:1.0416666666666667;"/><path d="M56.6178,21.9889 C56.6178,21.6634 56.6016,21.5658 56.5365,21.4518 C56.4388,21.2728 56.2109,21.1751 55.9993,21.1751 C55.7552,21.1751 55.6413,21.2728 55.5111,21.582 C55.0879,21.3053 54.5345,21.1751 53.8997,21.1751 C52.3372,21.1751 51.1816,22.1191 51.1816,23.3724 C51.1816,24.0885 51.5723,24.7559 52.207,25.1139 C52.6139,25.3418 53.0046,25.472 53.8184,25.6022 C54.6647,25.7487 54.8763,25.7975 55.1367,25.944 C55.4134,26.0905 55.5762,26.3346 55.5762,26.6113 C55.5762,27.1484 54.86,27.5553 53.9323,27.5553 C53.1022,27.5553 52.321,27.1973 52.1908,26.7415 C52.0931,26.3997 52.0931,26.3997 52.0117,26.3184 C51.8978,26.2044 51.735,26.1393 51.556,26.1393 C51.3607,26.1393 51.1654,26.237 51.0514,26.3997 C50.9538,26.5137 50.9375,26.6602 50.9375,26.9694 L50.9375,27.7995 C50.9375,28.3529 51.1328,28.6133 51.5723,28.6133 C51.7676,28.6133 51.849,28.5645 52.0768,28.3203 C52.679,28.6458 53.3464,28.8086 54.0137,28.8086 C55.7389,28.8086 56.8783,27.9297 56.8783,26.6276 C56.8783,25.9766 56.6504,25.472 56.1458,25.0651 C55.7552,24.7559 55.2832,24.5768 54.1927,24.3815 C53.2487,24.2025 53.1999,24.1862 52.9395,24.056 C52.6628,23.9095 52.4837,23.6328 52.4837,23.3724 C52.4837,22.8353 53.1022,22.4121 53.8997,22.4121 C54.6647,22.4121 55.2669,22.7539 55.3809,23.2585 C55.4622,23.6491 55.4622,23.6491 55.5599,23.7467 C55.6576,23.8607 55.8366,23.9258 55.9993,23.9258 C56.1947,23.9258 56.3737,23.8281 56.5039,23.6654 C56.6016,23.5352 56.6178,23.4375 56.6178,23.0957 L56.6178,21.9889 Z " fill="#000000"/><text fill="#222222" font-family="Verdana" font-size="12.5" lengthAdjust="spacing" textLength="113.5417" x="77.4479" y="29.3111">DeepLinkResolver</text><line style="stroke:#55B2DE;stroke-width:1.0416666666666667;" x1="18.2292" x2="220.3125" y1="42.6758" y2="42.6758"/><ellipse cx="28.6458" cy="54.1341" fill="#84BE84" rx="3.125" ry="3.125" style="stroke:#038048;stroke-width:1.0416666666666667;"/><text fill="#ADAFAE" font-family="Verdana" font-size="11.4583" lengthAdjust="spacing" textLength="167.7083" x="42.1875" y="62.6867">parse(url: String): DeepLink?</text><!--MD5=[49ec080158085dcbd3ad09715098bc8b]
class DeepLink--><rect codeLine="28" fill="#313238" height="67.4723" id="DeepLink" rx="4.1667" ry="4.1667" style="stroke:#55B2DE;stroke-width:1.0416666666666667;" width="148.9583" x="258.3333" y="7.2917"/><rect fill="#227FAB" height="35.3841" rx="4.1667" ry="4.1667" style="stroke:#227FAB;stroke-width:1.0416666666666667;" width="148.9583" x="258.3333" y="7.2917"/><rect fill="#227FAB" height="4.1667" style="stroke:#227FAB;stroke-width:1.0416666666666667;" width="148.9583" x="258.3333" y="38.5091"/><rect codeLine="28" fill="none" height="67.4723" id="DeepLink" rx="4.1667" ry="4.1667" style="stroke:#55B2DE;stroke-width:1.0416666666666667;" width="148.9583" x="258.3333" y="7.2917"/><ellipse cx="294.9479" cy="24.9837" fill="#10FF30" rx="10.4167" ry="10.4167" style="stroke:#444444;stroke-width:1.0416666666666667;"/><path d="M294.248,25.5859 L295.306,25.5859 L295.306,25.6836 C295.306,25.9766 295.3385,26.0905 295.4036,26.2044 C295.5176,26.3997 295.7292,26.4974 295.9408,26.4974 C296.1198,26.4974 296.3151,26.3997 296.429,26.237 C296.5267,26.123 296.543,26.0091 296.543,25.6836 L296.543,24.2676 C296.543,24.1536 296.543,24.1211 296.543,24.0072 C296.4779,23.6491 296.2663,23.4375 295.9245,23.4375 C295.7292,23.4375 295.5501,23.5352 295.4199,23.6979 C295.3385,23.8118 295.306,23.9258 295.306,24.2676 L295.306,24.349 L294.248,24.349 L294.248,22.5911 L297.1777,22.5911 L297.1777,23.2096 C297.1777,23.5189 297.194,23.6491 297.2591,23.7467 C297.3893,23.9421 297.5846,24.056 297.7962,24.056 C297.9915,24.056 298.1868,23.9583 298.3171,23.7956 C298.3984,23.6654 298.431,23.5677 298.431,23.2096 L298.431,21.3379 L292.8158,21.3379 C292.4902,21.3379 292.3926,21.3542 292.2786,21.4355 C292.0996,21.5495 291.9857,21.7611 291.9857,21.9727 C291.9857,22.168 292.0833,22.347 292.2461,22.4772 C292.36,22.5749 292.4902,22.5911 292.8158,22.5911 L292.9948,22.5911 L292.9948,27.3763 L292.8158,27.3763 C292.5065,27.3763 292.3926,27.3926 292.2786,27.474 C292.0996,27.5879 291.9857,27.7995 291.9857,28.0111 C291.9857,28.2064 292.0833,28.3854 292.2461,28.4993 C292.3438,28.597 292.5228,28.6296 292.8158,28.6296 L298.6914,28.6296 L298.6914,26.7253 C298.6914,26.416 298.6751,26.3021 298.61,26.1882 C298.4798,26.0091 298.2845,25.8952 298.0729,25.8952 C297.8776,25.8952 297.6823,25.9766 297.5684,26.1556 C297.4707,26.2858 297.4544,26.3835 297.4544,26.7253 L297.4544,27.3763 L294.248,27.3763 L294.248,25.5859 Z " fill="#000000"/><text fill="#222222" font-family="Verdana" font-size="12.5" lengthAdjust="spacing" textLength="58.3333" x="318.5938" y="29.3111">DeepLink</text><line style="stroke:#55B2DE;stroke-width:1.0416666666666667;" x1="259.375" x2="406.25" y1="42.6758" y2="42.6758"/><ellipse cx="269.7917" cy="54.1341" fill="#84BE84" rx="3.125" ry="3.125" style="stroke:#038048;stroke-width:1.0416666666666667;"/><text fill="#ADAFAE" font-family="Verdana" font-size="11.4583" lengthAdjust="spacing" textLength="112.5" x="283.3333" y="62.6867">neoChat(deviceId:)</text><!--MD5=[21816c44a4785c97d5629c4b9046fd8c]
class DeepLinkRepository--><rect codeLine="36" fill="#313238" height="123.3154" id="DeepLinkRepository" rx="4.1667" ry="4.1667" style="stroke:#55B2DE;stroke-width:1.0416666666666667;" width="185.4167" x="26.5625" y="772.9167"/><rect fill="#227FAB" height="35.3841" rx="4.1667" ry="4.1667" style="stroke:#227FAB;stroke-width:1.0416666666666667;" width="185.4167" x="26.5625" y="772.9167"/><rect fill="#227FAB" height="4.1667" style="stroke:#227FAB;stroke-width:1.0416666666666667;" width="185.4167" x="26.5625" y="804.1341"/><rect codeLine="36" fill="none" height="123.3154" id="DeepLinkRepository" rx="4.1667" ry="4.1667" style="stroke:#55B2DE;stroke-width:1.0416666666666667;" width="185.4167" x="26.5625" y="772.9167"/><ellipse cx="49.1146" cy="790.6087" fill="#FB8500" rx="10.4167" ry="10.4167" style="stroke:#444444;stroke-width:1.0416666666666667;"/><path d="M51.0514,787.2233 C50.3678,786.8978 49.9284,786.8001 49.2773,786.8001 C47.3568,786.8001 45.8757,788.3138 45.8757,790.3158 L45.8757,791.1458 C45.8757,793.0501 47.4382,794.4336 49.554,794.4336 C50.4492,794.4336 51.3118,794.2057 51.849,793.7988 C52.2884,793.5059 52.5163,793.1803 52.5163,792.8874 C52.5163,792.5618 52.2233,792.2689 51.8978,792.2689 C51.735,792.2689 51.5885,792.334 51.4421,792.4642 C51.1003,792.8223 51.1003,792.8223 50.9701,792.8874 C50.6608,793.0827 50.1563,793.1803 49.5866,793.1803 C48.0892,793.1803 47.1289,792.3665 47.1289,791.1133 L47.1289,790.3158 C47.1289,788.9974 48.0566,788.0371 49.3262,788.0371 C49.7493,788.0371 50.2051,788.151 50.5469,788.3464 C50.9049,788.5417 51.0352,788.7044 51.1003,788.9974 C51.1491,789.3066 51.1654,789.388 51.263,789.4857 C51.3607,789.5996 51.5397,789.6647 51.7025,789.6647 C51.9141,789.6647 52.0931,789.5671 52.2233,789.4043 C52.3047,789.2904 52.3372,789.1602 52.3372,788.8346 L52.3372,787.793 C52.3372,787.4837 52.321,787.3861 52.2396,787.2721 C52.1257,787.0768 51.9303,786.9629 51.7025,786.9629 C51.4909,786.9629 51.3444,787.0443 51.1816,787.2721 L51.0514,787.2233 Z " fill="#000000"/><text fill="#222222" font-family="Verdana" font-size="12.5" lengthAdjust="spacing" textLength="126.0417" x="69.6354" y="794.9361">DeepLinkRepository</text><line style="stroke:#55B2DE;stroke-width:1.5625;" x1="27.6042" x2="210.9375" y1="808.3008" y2="808.3008"/><ellipse cx="38.0208" cy="819.7591" rx="3.125" ry="3.125" style="stroke:#038048;stroke-width:1.0416666666666667;fill:none;"/><text fill="#ADAFAE" font-family="Verdana" font-size="11.4583" lengthAdjust="spacing" textLength="123.9583" x="51.5625" y="828.3117">deepLink: DeepLink?</text><line style="stroke:#55B2DE;stroke-width:1.0416666666666667;" x1="27.6042" x2="210.9375" y1="840.389" y2="840.389"/><ellipse cx="38.0208" cy="851.8473" fill="#84BE84" rx="3.125" ry="3.125" style="stroke:#038048;stroke-width:1.0416666666666667;"/><text fill="#ADAFAE" font-family="Verdana" font-size="11.4583" lengthAdjust="spacing" textLength="148.9583" x="51.5625" y="860.3999">setDeepLink(_:DeepLink)</text><ellipse cx="38.0208" cy="875.6022" fill="#84BE84" rx="3.125" ry="3.125" style="stroke:#038048;stroke-width:1.0416666666666667;"/><text fill="#ADAFAE" font-family="Verdana" font-size="11.4583" lengthAdjust="spacing" textLength="95.8333" x="51.5625" y="884.1548">resetDeepLink()</text><!--MD5=[fffc840f707a2c6ec0b6288dd00bfd10]
class DashboardRouter--><rect codeLine="47" fill="#313238" height="67.4723" id="DashboardRouter" rx="4.1667" ry="4.1667" style="stroke:#55B2DE;stroke-width:1.0416666666666667;" width="189.5833" x="398.4375" y="163.5417"/><rect fill="#227FAB" height="35.3841" rx="4.1667" ry="4.1667" style="stroke:#227FAB;stroke-width:1.0416666666666667;" width="189.5833" x="398.4375" y="163.5417"/><rect fill="#227FAB" height="4.1667" style="stroke:#227FAB;stroke-width:1.0416666666666667;" width="189.5833" x="398.4375" y="194.7591"/><rect codeLine="47" fill="none" height="67.4723" id="DashboardRouter" rx="4.1667" ry="4.1667" style="stroke:#55B2DE;stroke-width:1.0416666666666667;" width="189.5833" x="398.4375" y="163.5417"/><ellipse cx="430.3646" cy="181.2337" fill="#FB8500" rx="10.4167" ry="10.4167" style="stroke:#444444;stroke-width:1.0416666666666667;"/><path d="M432.3014,177.8483 C431.6178,177.5228 431.1784,177.4251 430.5273,177.4251 C428.6068,177.4251 427.1257,178.9388 427.1257,180.9408 L427.1257,181.7708 C427.1257,183.6751 428.6882,185.0586 430.804,185.0586 C431.6992,185.0586 432.5618,184.8307 433.099,184.4238 C433.5384,184.1309 433.7663,183.8053 433.7663,183.5124 C433.7663,183.1868 433.4733,182.8939 433.1478,182.8939 C432.985,182.8939 432.8385,182.959 432.6921,183.0892 C432.3503,183.4473 432.3503,183.4473 432.2201,183.5124 C431.9108,183.7077 431.4063,183.8053 430.8366,183.8053 C429.3392,183.8053 428.3789,182.9915 428.3789,181.7383 L428.3789,180.9408 C428.3789,179.6224 429.3066,178.6621 430.5762,178.6621 C430.9993,178.6621 431.4551,178.776 431.7969,178.9714 C432.1549,179.1667 432.2852,179.3294 432.3503,179.6224 C432.3991,179.9316 432.4154,180.013 432.513,180.1107 C432.6107,180.2246 432.7897,180.2897 432.9525,180.2897 C433.1641,180.2897 433.3431,180.1921 433.4733,180.0293 C433.5547,179.9154 433.5872,179.7852 433.5872,179.4596 L433.5872,178.418 C433.5872,178.1087 433.571,178.0111 433.4896,177.8971 C433.3757,177.7018 433.1803,177.5879 432.9525,177.5879 C432.7409,177.5879 432.5944,177.6693 432.4316,177.8971 L432.3014,177.8483 Z " fill="#000000"/><text fill="#222222" font-family="Verdana" font-size="12.5" lengthAdjust="spacing" textLength="109.375" x="452.9688" y="185.5611">DashboardRouter</text><line style="stroke:#55B2DE;stroke-width:1.0416666666666667;" x1="399.4792" x2="586.9792" y1="198.9258" y2="198.9258"/><ellipse cx="409.8958" cy="210.3841" fill="#84BE84" rx="3.125" ry="3.125" style="stroke:#038048;stroke-width:1.0416666666666667;"/><text fill="#ADAFAE" font-family="Verdana" font-size="11.4583" lengthAdjust="spacing" textLength="153.125" x="423.4375" y="218.9367">navigateToChatDetails(...)</text><!--MD5=[6d563827d0b0fb7c016e684175200a45]
class KidsWatchPageProvider--><rect codeLine="51" fill="#313238" height="67.4723" id="KidsWatchPageProvider" rx="4.1667" ry="4.1667" style="stroke:#55B2DE;stroke-width:1.0416666666666667;" width="218.75" x="1009.8958" y="602.0833"/><rect fill="#227FAB" height="35.3841" rx="4.1667" ry="4.1667" style="stroke:#227FAB;stroke-width:1.0416666666666667;" width="218.75" x="1009.8958" y="602.0833"/><rect fill="#227FAB" height="4.1667" style="stroke:#227FAB;stroke-width:1.0416666666666667;" width="218.75" x="1009.8958" y="633.3008"/><rect codeLine="51" fill="none" height="67.4723" id="KidsWatchPageProvider" rx="4.1667" ry="4.1667" style="stroke:#55B2DE;stroke-width:1.0416666666666667;" width="218.75" x="1009.8958" y="602.0833"/><ellipse cx="1037.6042" cy="619.7754" fill="#FB8500" rx="10.4167" ry="10.4167" style="stroke:#444444;stroke-width:1.0416666666666667;"/><path d="M1039.541,616.39 C1038.8574,616.0645 1038.418,615.9668 1037.7669,615.9668 C1035.8464,615.9668 1034.3652,617.4805 1034.3652,619.4824 L1034.3652,620.3125 C1034.3652,622.2168 1035.9277,623.6003 1038.0436,623.6003 C1038.9388,623.6003 1039.8014,623.3724 1040.3385,622.9655 C1040.778,622.6725 1041.0059,622.347 1041.0059,622.054 C1041.0059,621.7285 1040.7129,621.4355 1040.3874,621.4355 C1040.2246,621.4355 1040.0781,621.5007 1039.9316,621.6309 C1039.5898,621.9889 1039.5898,621.9889 1039.4596,622.054 C1039.1504,622.2493 1038.6458,622.347 1038.0762,622.347 C1036.5788,622.347 1035.6185,621.5332 1035.6185,620.2799 L1035.6185,619.4824 C1035.6185,618.1641 1036.5462,617.2038 1037.8158,617.2038 C1038.2389,617.2038 1038.6947,617.3177 1039.0365,617.513 C1039.3945,617.7083 1039.5247,617.8711 1039.5898,618.1641 C1039.6387,618.4733 1039.6549,618.5547 1039.7526,618.6523 C1039.8503,618.7663 1040.0293,618.8314 1040.1921,618.8314 C1040.4036,618.8314 1040.5827,618.7337 1040.7129,618.571 C1040.7943,618.457 1040.8268,618.3268 1040.8268,618.0013 L1040.8268,616.9596 C1040.8268,616.6504 1040.8105,616.5527 1040.7292,616.4388 C1040.6152,616.2435 1040.4199,616.1296 1040.1921,616.1296 C1039.9805,616.1296 1039.834,616.2109 1039.6712,616.4388 L1039.541,616.39 Z " fill="#000000"/><text fill="#222222" font-family="Verdana" font-size="12.5" lengthAdjust="spacing" textLength="147.9167" x="1059.2708" y="624.1028">KidsWatchPageProvider</text><line style="stroke:#55B2DE;stroke-width:1.0416666666666667;" x1="1010.9375" x2="1227.6042" y1="637.4674" y2="637.4674"/><ellipse cx="1021.3542" cy="648.9258" fill="#84BE84" rx="3.125" ry="3.125" style="stroke:#038048;stroke-width:1.0416666666666667;"/><text fill="#ADAFAE" font-family="Verdana" font-size="11.4583" lengthAdjust="spacing" textLength="182.2917" x="1034.8958" y="657.4783">provideForSuccess(deviceUid:)</text><!--MD5=[b9c9e1bc57b1ed23f0130a2929553fbd]
class DashboardActivityViewModel--><rect fill="#313238" height="35.3841" id="DashboardActivityViewModel" rx="4.1667" ry="4.1667" style="stroke:#55B2DE;stroke-width:1.0416666666666667;" width="223.9583" x="7.2917" y="179.6875"/><rect fill="#227FAB" height="35.3841" rx="4.1667" ry="4.1667" style="stroke:#227FAB;stroke-width:1.0416666666666667;" width="223.9583" x="7.2917" y="179.6875"/><rect fill="#227FAB" height="4.1667" style="stroke:#227FAB;stroke-width:1.0416666666666667;" width="223.9583" x="7.2917" y="210.9049"/><rect fill="none" height="35.3841" id="DashboardActivityViewModel" rx="4.1667" ry="4.1667" style="stroke:#55B2DE;stroke-width:1.0416666666666667;" width="223.9583" x="7.2917" y="179.6875"/><ellipse cx="21.875" cy="197.3796" fill="#FB8500" rx="10.4167" ry="10.4167" style="stroke:#444444;stroke-width:1.0416666666666667;"/><path d="M23.8118,193.9941 C23.1283,193.6686 22.6888,193.571 22.0378,193.571 C20.1172,193.571 18.6361,195.0846 18.6361,197.0866 L18.6361,197.9167 C18.6361,199.821 20.1986,201.2044 22.3145,201.2044 C23.2096,201.2044 24.0723,200.9766 24.6094,200.5697 C25.0488,200.2767 25.2767,199.9512 25.2767,199.6582 C25.2767,199.3327 24.9837,199.0397 24.6582,199.0397 C24.4954,199.0397 24.349,199.1048 24.2025,199.235 C23.8607,199.5931 23.8607,199.5931 23.7305,199.6582 C23.4212,199.8535 22.9167,199.9512 22.347,199.9512 C20.8496,199.9512 19.8893,199.1374 19.8893,197.8841 L19.8893,197.0866 C19.8893,195.7682 20.8171,194.8079 22.0866,194.8079 C22.5098,194.8079 22.9655,194.9219 23.3073,195.1172 C23.6654,195.3125 23.7956,195.4753 23.8607,195.7682 C23.9095,196.0775 23.9258,196.1589 24.0234,196.2565 C24.1211,196.3704 24.3001,196.4355 24.4629,196.4355 C24.6745,196.4355 24.8535,196.3379 24.9837,196.1751 C25.0651,196.0612 25.0977,195.931 25.0977,195.6055 L25.0977,194.5638 C25.0977,194.2546 25.0814,194.1569 25,194.043 C24.8861,193.8477 24.6908,193.7337 24.4629,193.7337 C24.2513,193.7337 24.1048,193.8151 23.9421,194.043 L23.8118,193.9941 Z " fill="#000000"/><text fill="#222222" font-family="Verdana" font-size="12.5" lengthAdjust="spacing" textLength="182.2917" x="40.625" y="201.7069">DashboardActivityViewModel</text><!--MD5=[04c635c5d9f0f897add151ed51da2c5e]
class DashboardFragment--><rect fill="#313238" height="35.3841" id="DashboardFragment" rx="4.1667" ry="4.1667" style="stroke:#55B2DE;stroke-width:1.0416666666666667;" width="169.7917" x="408.3333" y="319.7917"/><rect fill="#227FAB" height="35.3841" rx="4.1667" ry="4.1667" style="stroke:#227FAB;stroke-width:1.0416666666666667;" width="169.7917" x="408.3333" y="319.7917"/><rect fill="#227FAB" height="4.1667" style="stroke:#227FAB;stroke-width:1.0416666666666667;" width="169.7917" x="408.3333" y="351.0091"/><rect fill="none" height="35.3841" id="DashboardFragment" rx="4.1667" ry="4.1667" style="stroke:#55B2DE;stroke-width:1.0416666666666667;" width="169.7917" x="408.3333" y="319.7917"/><ellipse cx="422.9167" cy="337.4837" fill="#FB8500" rx="10.4167" ry="10.4167" style="stroke:#444444;stroke-width:1.0416666666666667;"/><path d="M424.8535,334.0983 C424.1699,333.7728 423.7305,333.6751 423.0794,333.6751 C421.1589,333.6751 419.6777,335.1888 419.6777,337.1908 L419.6777,338.0208 C419.6777,339.9251 421.2402,341.3086 423.3561,341.3086 C424.2513,341.3086 425.1139,341.0807 425.651,340.6738 C426.0905,340.3809 426.3184,340.0553 426.3184,339.7624 C426.3184,339.4368 426.0254,339.1439 425.6999,339.1439 C425.5371,339.1439 425.3906,339.209 425.2441,339.3392 C424.9023,339.6973 424.9023,339.6973 424.7721,339.7624 C424.4629,339.9577 423.9583,340.0553 423.3887,340.0553 C421.8913,340.0553 420.931,339.2415 420.931,337.9883 L420.931,337.1908 C420.931,335.8724 421.8587,334.9121 423.1283,334.9121 C423.5514,334.9121 424.0072,335.026 424.349,335.2214 C424.707,335.4167 424.8372,335.5794 424.9023,335.8724 C424.9512,336.1816 424.9674,336.263 425.0651,336.3607 C425.1628,336.4746 425.3418,336.5397 425.5046,336.5397 C425.7161,336.5397 425.8952,336.4421 426.0254,336.2793 C426.1068,336.1654 426.1393,336.0352 426.1393,335.7096 L426.1393,334.668 C426.1393,334.3587 426.123,334.2611 426.0417,334.1471 C425.9277,333.9518 425.7324,333.8379 425.5046,333.8379 C425.293,333.8379 425.1465,333.9193 424.9837,334.1471 L424.8535,334.0983 Z " fill="#000000"/><text fill="#222222" font-family="Verdana" font-size="12.5" lengthAdjust="spacing" textLength="128.125" x="441.6667" y="341.8111">DashboardFragment</text><!--MD5=[ca91d73d6f18027c28c062c1299fd929]
class DashboardViewModel--><rect fill="#313238" height="35.3841" id="DashboardViewModel" rx="4.1667" ry="4.1667" style="stroke:#55B2DE;stroke-width:1.0416666666666667;" width="179.1667" x="868.2292" y="319.7917"/><rect fill="#227FAB" height="35.3841" rx="4.1667" ry="4.1667" style="stroke:#227FAB;stroke-width:1.0416666666666667;" width="179.1667" x="868.2292" y="319.7917"/><rect fill="#227FAB" height="4.1667" style="stroke:#227FAB;stroke-width:1.0416666666666667;" width="179.1667" x="868.2292" y="351.0091"/><rect fill="none" height="35.3841" id="DashboardViewModel" rx="4.1667" ry="4.1667" style="stroke:#55B2DE;stroke-width:1.0416666666666667;" width="179.1667" x="868.2292" y="319.7917"/><ellipse cx="882.8125" cy="337.4837" fill="#FB8500" rx="10.4167" ry="10.4167" style="stroke:#444444;stroke-width:1.0416666666666667;"/><path d="M884.7493,334.0983 C884.0658,333.7728 883.6263,333.6751 882.9753,333.6751 C881.0547,333.6751 879.5736,335.1888 879.5736,337.1908 L879.5736,338.0208 C879.5736,339.9251 881.1361,341.3086 883.252,341.3086 C884.1471,341.3086 885.0098,341.0807 885.5469,340.6738 C885.9863,340.3809 886.2142,340.0553 886.2142,339.7624 C886.2142,339.4368 885.9212,339.1439 885.5957,339.1439 C885.4329,339.1439 885.2865,339.209 885.14,339.3392 C884.7982,339.6973 884.7982,339.6973 884.668,339.7624 C884.3587,339.9577 883.8542,340.0553 883.2845,340.0553 C881.7871,340.0553 880.8268,339.2415 880.8268,337.9883 L880.8268,337.1908 C880.8268,335.8724 881.7546,334.9121 883.0241,334.9121 C883.4473,334.9121 883.903,335.026 884.2448,335.2214 C884.6029,335.4167 884.7331,335.5794 884.7982,335.8724 C884.847,336.1816 884.8633,336.263 884.9609,336.3607 C885.0586,336.4746 885.2376,336.5397 885.4004,336.5397 C885.612,336.5397 885.791,336.4421 885.9212,336.2793 C886.0026,336.1654 886.0352,336.0352 886.0352,335.7096 L886.0352,334.668 C886.0352,334.3587 886.0189,334.2611 885.9375,334.1471 C885.8236,333.9518 885.6283,333.8379 885.4004,333.8379 C885.1888,333.8379 885.0423,333.9193 884.8796,334.1471 L884.7493,334.0983 Z " fill="#000000"/><text fill="#222222" font-family="Verdana" font-size="12.5" lengthAdjust="spacing" textLength="137.5" x="901.5625" y="341.8111">DashboardViewModel</text><!--MD5=[3216987a7a8c60c776b29c641e30e7f6]
class DashboardDeviceDetailsFragment--><rect fill="#313238" height="35.3841" id="DashboardDeviceDetailsFragment" rx="4.1667" ry="4.1667" style="stroke:#55B2DE;stroke-width:1.0416666666666667;" width="256.25" x="365.1042" y="460.9375"/><rect fill="#227FAB" height="35.3841" rx="4.1667" ry="4.1667" style="stroke:#227FAB;stroke-width:1.0416666666666667;" width="256.25" x="365.1042" y="460.9375"/><rect fill="#227FAB" height="4.1667" style="stroke:#227FAB;stroke-width:1.0416666666666667;" width="256.25" x="365.1042" y="492.1549"/><rect fill="none" height="35.3841" id="DashboardDeviceDetailsFragment" rx="4.1667" ry="4.1667" style="stroke:#55B2DE;stroke-width:1.0416666666666667;" width="256.25" x="365.1042" y="460.9375"/><ellipse cx="379.6875" cy="478.6296" fill="#FB8500" rx="10.4167" ry="10.4167" style="stroke:#444444;stroke-width:1.0416666666666667;"/><path d="M381.6243,475.2441 C380.9408,474.9186 380.5013,474.821 379.8503,474.821 C377.9297,474.821 376.4486,476.3346 376.4486,478.3366 L376.4486,479.1667 C376.4486,481.071 378.0111,482.4544 380.127,482.4544 C381.0221,482.4544 381.8848,482.2266 382.4219,481.8197 C382.8613,481.5267 383.0892,481.2012 383.0892,480.9082 C383.0892,480.5827 382.7962,480.2897 382.4707,480.2897 C382.3079,480.2897 382.1615,480.3548 382.015,480.485 C381.6732,480.8431 381.6732,480.8431 381.543,480.9082 C381.2337,481.1035 380.7292,481.2012 380.1595,481.2012 C378.6621,481.2012 377.7018,480.3874 377.7018,479.1341 L377.7018,478.3366 C377.7018,477.0182 378.6296,476.0579 379.8991,476.0579 C380.3223,476.0579 380.778,476.1719 381.1198,476.3672 C381.4779,476.5625 381.6081,476.7253 381.6732,477.0182 C381.722,477.3275 381.7383,477.4089 381.8359,477.5065 C381.9336,477.6204 382.1126,477.6855 382.2754,477.6855 C382.487,477.6855 382.666,477.5879 382.7962,477.4251 C382.8776,477.3112 382.9102,477.181 382.9102,476.8555 L382.9102,475.8138 C382.9102,475.5046 382.8939,475.4069 382.8125,475.293 C382.6986,475.0977 382.5033,474.9837 382.2754,474.9837 C382.0638,474.9837 381.9173,475.0651 381.7546,475.293 L381.6243,475.2441 Z " fill="#000000"/><text fill="#222222" font-family="Verdana" font-size="12.5" lengthAdjust="spacing" textLength="214.5833" x="398.4375" y="482.9569">DashboardDeviceDetailsFragment</text><!--MD5=[d1cd822d190c74499caf3abbde8347a0]
class DashboardDetailsContainerViewModel--><rect fill="#313238" height="35.3841" id="DashboardDetailsContainerViewModel" rx="4.1667" ry="4.1667" style="stroke:#55B2DE;stroke-width:1.0416666666666667;" width="281.25" x="979.6875" y="460.9375"/><rect fill="#227FAB" height="35.3841" rx="4.1667" ry="4.1667" style="stroke:#227FAB;stroke-width:1.0416666666666667;" width="281.25" x="979.6875" y="460.9375"/><rect fill="#227FAB" height="4.1667" style="stroke:#227FAB;stroke-width:1.0416666666666667;" width="281.25" x="979.6875" y="492.1549"/><rect fill="none" height="35.3841" id="DashboardDetailsContainerViewModel" rx="4.1667" ry="4.1667" style="stroke:#55B2DE;stroke-width:1.0416666666666667;" width="281.25" x="979.6875" y="460.9375"/><ellipse cx="994.2708" cy="478.6296" fill="#FB8500" rx="10.4167" ry="10.4167" style="stroke:#444444;stroke-width:1.0416666666666667;"/><path d="M996.2077,475.2441 C995.5241,474.9186 995.0846,474.821 994.4336,474.821 C992.513,474.821 991.0319,476.3346 991.0319,478.3366 L991.0319,479.1667 C991.0319,481.071 992.5944,482.4544 994.7103,482.4544 C995.6055,482.4544 996.4681,482.2266 997.0052,481.8197 C997.4447,481.5267 997.6725,481.2012 997.6725,480.9082 C997.6725,480.5827 997.3796,480.2897 997.054,480.2897 C996.8913,480.2897 996.7448,480.3548 996.5983,480.485 C996.2565,480.8431 996.2565,480.8431 996.1263,480.9082 C995.8171,481.1035 995.3125,481.2012 994.7428,481.2012 C993.2454,481.2012 992.2852,480.3874 992.2852,479.1341 L992.2852,478.3366 C992.2852,477.0182 993.2129,476.0579 994.4824,476.0579 C994.9056,476.0579 995.3613,476.1719 995.7031,476.3672 C996.0612,476.5625 996.1914,476.7253 996.2565,477.0182 C996.3053,477.3275 996.3216,477.4089 996.4193,477.5065 C996.5169,477.6204 996.696,477.6855 996.8587,477.6855 C997.0703,477.6855 997.2493,477.5879 997.3796,477.4251 C997.4609,477.3112 997.4935,477.181 997.4935,476.8555 L997.4935,475.8138 C997.4935,475.5046 997.4772,475.4069 997.3958,475.293 C997.2819,475.0977 997.0866,474.9837 996.8587,474.9837 C996.6471,474.9837 996.5007,475.0651 996.3379,475.293 L996.2077,475.2441 Z " fill="#000000"/><text fill="#222222" font-family="Verdana" font-size="12.5" lengthAdjust="spacing" textLength="239.5833" x="1013.0208" y="482.9569">DashboardDetailsContainerViewModel</text><!--MD5=[a2115fab3adb4bf4ccfe70f86527b6f3]
class ChatFragment--><rect fill="#313238" height="35.3841" id="ChatFragment" rx="4.1667" ry="4.1667" style="stroke:#55B2DE;stroke-width:1.0416666666666667;" width="128.125" x="429.1667" y="618.2292"/><rect fill="#227FAB" height="35.3841" rx="4.1667" ry="4.1667" style="stroke:#227FAB;stroke-width:1.0416666666666667;" width="128.125" x="429.1667" y="618.2292"/><rect fill="#227FAB" height="4.1667" style="stroke:#227FAB;stroke-width:1.0416666666666667;" width="128.125" x="429.1667" y="649.4466"/><rect fill="none" height="35.3841" id="ChatFragment" rx="4.1667" ry="4.1667" style="stroke:#55B2DE;stroke-width:1.0416666666666667;" width="128.125" x="429.1667" y="618.2292"/><ellipse cx="443.75" cy="635.9212" fill="#FB8500" rx="10.4167" ry="10.4167" style="stroke:#444444;stroke-width:1.0416666666666667;"/><path d="M445.6868,632.5358 C445.0033,632.2103 444.5638,632.1126 443.9128,632.1126 C441.9922,632.1126 440.5111,633.6263 440.5111,635.6283 L440.5111,636.4583 C440.5111,638.3626 442.0736,639.7461 444.1895,639.7461 C445.0846,639.7461 445.9473,639.5182 446.4844,639.1113 C446.9238,638.8184 447.1517,638.4928 447.1517,638.1999 C447.1517,637.8743 446.8587,637.5814 446.5332,637.5814 C446.3704,637.5814 446.224,637.6465 446.0775,637.7767 C445.7357,638.1348 445.7357,638.1348 445.6055,638.1999 C445.2962,638.3952 444.7917,638.4928 444.222,638.4928 C442.7246,638.4928 441.7643,637.679 441.7643,636.4258 L441.7643,635.6283 C441.7643,634.3099 442.6921,633.3496 443.9616,633.3496 C444.3848,633.3496 444.8405,633.4635 445.1823,633.6589 C445.5404,633.8542 445.6706,634.0169 445.7357,634.3099 C445.7845,634.6191 445.8008,634.7005 445.8984,634.7982 C445.9961,634.9121 446.1751,634.9772 446.3379,634.9772 C446.5495,634.9772 446.7285,634.8796 446.8587,634.7168 C446.9401,634.6029 446.9727,634.4727 446.9727,634.1471 L446.9727,633.1055 C446.9727,632.7962 446.9564,632.6986 446.875,632.5846 C446.7611,632.3893 446.5658,632.2754 446.3379,632.2754 C446.1263,632.2754 445.9798,632.3568 445.8171,632.5846 L445.6868,632.5358 Z " fill="#000000"/><text fill="#222222" font-family="Verdana" font-size="12.5" lengthAdjust="spacing" textLength="86.4583" x="462.5" y="640.2486">ChatFragment</text><!--MD5=[100069edc0eb6e31eded194d89e1e47d]
class ChatViewModel--><rect fill="#313238" height="35.3841" id="ChatViewModel" rx="4.1667" ry="4.1667" style="stroke:#55B2DE;stroke-width:1.0416666666666667;" width="137.5" x="364.0625" y="816.6667"/><rect fill="#227FAB" height="35.3841" rx="4.1667" ry="4.1667" style="stroke:#227FAB;stroke-width:1.0416666666666667;" width="137.5" x="364.0625" y="816.6667"/><rect fill="#227FAB" height="4.1667" style="stroke:#227FAB;stroke-width:1.0416666666666667;" width="137.5" x="364.0625" y="847.8841"/><rect fill="none" height="35.3841" id="ChatViewModel" rx="4.1667" ry="4.1667" style="stroke:#55B2DE;stroke-width:1.0416666666666667;" width="137.5" x="364.0625" y="816.6667"/><ellipse cx="378.6458" cy="834.3587" fill="#FB8500" rx="10.4167" ry="10.4167" style="stroke:#444444;stroke-width:1.0416666666666667;"/><path d="M380.5827,830.9733 C379.8991,830.6478 379.4596,830.5501 378.8086,830.5501 C376.888,830.5501 375.4069,832.0638 375.4069,834.0658 L375.4069,834.8958 C375.4069,836.8001 376.9694,838.1836 379.0853,838.1836 C379.9805,838.1836 380.8431,837.9557 381.3802,837.5488 C381.8197,837.2559 382.0475,836.9303 382.0475,836.6374 C382.0475,836.3118 381.7546,836.0189 381.429,836.0189 C381.2663,836.0189 381.1198,836.084 380.9733,836.2142 C380.6315,836.5723 380.6315,836.5723 380.5013,836.6374 C380.1921,836.8327 379.6875,836.9303 379.1178,836.9303 C377.6204,836.9303 376.6602,836.1165 376.6602,834.8633 L376.6602,834.0658 C376.6602,832.7474 377.5879,831.7871 378.8574,831.7871 C379.2806,831.7871 379.7363,831.901 380.0781,832.0964 C380.4362,832.2917 380.5664,832.4544 380.6315,832.7474 C380.6803,833.0566 380.6966,833.138 380.7943,833.2357 C380.8919,833.3496 381.071,833.4147 381.2337,833.4147 C381.4453,833.4147 381.6243,833.3171 381.7546,833.1543 C381.8359,833.0404 381.8685,832.9102 381.8685,832.5846 L381.8685,831.543 C381.8685,831.2337 381.8522,831.1361 381.7708,831.0221 C381.6569,830.8268 381.4616,830.7129 381.2337,830.7129 C381.0221,830.7129 380.8757,830.7943 380.7129,831.0221 L380.5827,830.9733 Z " fill="#000000"/><text fill="#222222" font-family="Verdana" font-size="12.5" lengthAdjust="spacing" textLength="95.8333" x="397.3958" y="838.6861">ChatViewModel</text><!--MD5=[3ea268f261326f0f65f9bfdc6766a73f]
reverse link DeepLinkResolver to DashboardActivityViewModel--><path codeLine="55" d="M119.2708,80.6458 C119.2708,112.3917 119.2708,155.925 119.2708,179.5104 " fill="none" id="DeepLinkResolver-backto-DashboardActivityViewModel" style="stroke:#2A9FD6;stroke-width:3.125;"/><polygon fill="#2A9FD6" points="119.2708,75.2604,115.1042,84.6354,119.2708,80.4688,123.4375,84.6354,119.2708,75.2604" style="stroke:#2A9FD6;stroke-width:3.125;"/><text fill="#FFFFFF" font-family="Verdana" font-size="12.5" lengthAdjust="spacing" textLength="28.125" x="125.5208" y="124.1028">calls</text><!--MD5=[58990dbff09fb3af6025d0e61cefd99b]
link DashboardActivityViewModel to DeepLinkRepository--><path codeLine="56" d="M119.2708,215.4365 C119.2708,241.4854 119.2708,292.8479 119.2708,336.4583 C119.2708,336.4583 119.2708,336.4583 119.2708,636.9792 C119.2708,680.3552 119.2708,729.1208 119.2708,767.2031 " fill="none" id="DashboardActivityViewModel-to-DeepLinkRepository" style="stroke:#2A9FD6;stroke-width:3.125;"/><polygon fill="#2A9FD6" points="119.2708,772.7417,123.4375,763.3667,119.2708,767.5333,115.1042,763.3667,119.2708,772.7417" style="stroke:#2A9FD6;stroke-width:3.125;"/><text fill="#FFFFFF" font-family="Verdana" font-size="12.5" lengthAdjust="spacing" textLength="27.0833" x="141.1458" y="476.1861">sets</text><text fill="#FFFFFF" font-family="Verdana" font-size="12.5" lengthAdjust="spacing" textLength="58.3333" x="125.5208" y="490.7369">deep link</text><!--MD5=[c4e996042323fb87f94aea8da27d34dc]
link DeepLinkResolver to DeepLink--><path codeLine="57" d="M221.4542,41.1458 C231.826,41.1458 242.1979,41.1458 252.5698,41.1458 " fill="none" id="DeepLinkResolver-to-DeepLink" style="stroke:#2A9FD6;stroke-width:3.125;"/><polygon fill="#2A9FD6" points="257.9938,41.1458,248.6188,36.9792,252.7854,41.1458,248.6188,45.3125,257.9938,41.1458" style="stroke:#2A9FD6;stroke-width:3.125;"/><!--MD5=[678af52f19026a6849f890289abba55e]
link DashboardActivityViewModel to DashboardRouter--><path codeLine="58" d="M231.4708,197.3958 C282.7417,197.3958 342.9948,197.3958 392.7604,197.3958 " fill="none" id="DashboardActivityViewModel-to-DashboardRouter" style="stroke:#2A9FD6;stroke-width:3.125;"/><polygon fill="#2A9FD6" points="398.1573,197.3958,388.7823,193.2292,392.949,197.3958,388.7823,201.5625,398.1573,197.3958" style="stroke:#2A9FD6;stroke-width:3.125;"/><text fill="#FFFFFF" font-family="Verdana" font-size="12.5" lengthAdjust="spacing" textLength="118.75" x="255.4688" y="186.0819">sets as root router</text><!--MD5=[678af52f19026a6849f890289abba55e]
link DashboardActivityViewModel to DashboardRouter--><path codeLine="59" d="M190.5656,215.1885 C232.5542,223.624 286.7594,230.9906 335.1563,226.5625 C353.9542,224.8427 373.8531,221.9958 392.9604,218.7365 " fill="none" id="DashboardActivityViewModel-to-DashboardRouter-1" style="stroke:#2A9FD6;stroke-width:3.125;"/><polygon fill="#2A9FD6" points="398.3271,217.8073,388.3788,215.3007,393.1951,218.6956,389.8001,223.5119,398.3271,217.8073" style="stroke:#2A9FD6;stroke-width:3.125;"/><text fill="#FFFFFF" font-family="Verdana" font-size="12.5" lengthAdjust="spacing" textLength="28.125" x="300.7813" y="218.3736">calls</text><!--MD5=[60a1ca6b67bb1f4434b2b7a6a464fa20]
link DashboardRouter to DashboardFragment--><path codeLine="60" d="M493.2292,231.4969 C493.2292,257.0823 493.2292,291.8135 493.2292,314.1844 " fill="none" id="DashboardRouter-to-DashboardFragment" style="stroke:#2A9FD6;stroke-width:3.125;"/><polygon fill="#2A9FD6" points="493.2292,319.5927,497.3958,310.2177,493.2292,314.3844,489.0625,310.2177,493.2292,319.5927" style="stroke:#2A9FD6;stroke-width:3.125;"/><text fill="#FFFFFF" font-family="Verdana" font-size="12.5" lengthAdjust="spacing" textLength="47.9167" x="499.4792" y="280.3528">creates</text><!--MD5=[8317ec8c3172135589751294de2def6a]
link DashboardFragment to DashboardViewModel--><path codeLine="61" d="M578.4656,352.725 C613.7719,358.3052 655.2198,363.925 692.9688,366.6667 C750.174,370.8208 814.0948,364.1094 864.8052,356.0823 " fill="none" id="DashboardFragment-to-DashboardViewModel" style="stroke:#2A9FD6;stroke-width:3.125;"/><polygon fill="#2A9FD6" points="869.9823,355.251,860.0652,352.6236,864.8398,356.0769,861.3866,360.8515,869.9823,355.251" style="stroke:#2A9FD6;stroke-width:3.125;"/><text fill="#FFFFFF" font-family="Verdana" font-size="12.5" lengthAdjust="spacing" textLength="47.9167" x="699.2188" y="358.4778">creates</text><!--MD5=[0fd4ae11549783f22e0d00a720729239]
reverse link DashboardFragment to DashboardViewModel--><path codeLine="62" d="M583.5188,337.5 C665.5625,337.5 785.9531,337.5 867.8844,337.5 " fill="none" id="DashboardFragment-backto-DashboardViewModel" style="stroke:#2A9FD6;stroke-width:3.125;stroke-dasharray:7.0,7.0;"/><polygon fill="#2A9FD6" points="578.1708,337.5,587.5458,341.6667,583.3792,337.5,587.5458,333.3333,578.1708,337.5" style="stroke:#2A9FD6;stroke-width:3.125;"/><text fill="#FFFFFF" font-family="Verdana" font-size="12.5" lengthAdjust="spacing" textLength="241.6667" x="602.3438" y="326.1861">emits DashboardViewModel.ViewState</text><!--MD5=[e8a44f2fea85060cbe997746b22d13ec]
link DashboardFragment to DashboardDeviceDetailsFragment--><path codeLine="63" d="M493.2292,355.3156 C493.2292,380.374 493.2292,427.6083 493.2292,455.4688 " fill="none" id="DashboardFragment-to-DashboardDeviceDetailsFragment" style="stroke:#2A9FD6;stroke-width:3.125;"/><polygon fill="#2A9FD6" points="493.2292,460.7708,497.3958,451.3958,493.2292,455.5625,489.0625,451.3958,493.2292,460.7708" style="stroke:#2A9FD6;stroke-width:3.125;"/><text fill="#FFFFFF" font-family="Verdana" font-size="12.5" lengthAdjust="spacing" textLength="47.9167" x="499.4792" y="411.6028">creates</text><!--MD5=[de4407d473de0a609d48b076c30891a4]
link DashboardDeviceDetailsFragment to DashboardDetailsContainerViewModel--><path codeLine="64" d="M621.649,494.9979 C668.3698,500.1969 721.6458,505.2583 770.3125,507.8125 C845.9771,511.7844 930.651,505.0281 997.7604,497.0229 " fill="none" id="DashboardDeviceDetailsFragment-to-DashboardDetailsContainerViewModel" style="stroke:#2A9FD6;stroke-width:3.125;"/><polygon fill="#2A9FD6" points="1002.9698,496.3948,993.1634,493.3804,997.7989,497.0183,994.161,501.6538,1002.9698,496.3948" style="stroke:#2A9FD6;stroke-width:3.125;"/><text fill="#FFFFFF" font-family="Verdana" font-size="12.5" lengthAdjust="spacing" textLength="47.9167" x="776.5625" y="499.6236">creates</text><!--MD5=[800286f1a670f1f88256c7b7f5826ee0]
reverse link DashboardDeviceDetailsFragment to DashboardDetailsContainerViewModel--><path codeLine="65" d="M626.8615,478.6458 C730.5885,478.6458 874.0219,478.6458 979.5198,478.6458 " fill="none" id="DashboardDeviceDetailsFragment-backto-DashboardDetailsContainerViewModel" style="stroke:#2A9FD6;stroke-width:3.125;stroke-dasharray:7.0,7.0;"/><polygon fill="#2A9FD6" points="621.6417,478.6458,631.0167,482.8125,626.85,478.6458,631.0167,474.4792,621.6417,478.6458" style="stroke:#2A9FD6;stroke-width:3.125;"/><text fill="#FFFFFF" font-family="Verdana" font-size="12.5" lengthAdjust="spacing" textLength="34.375" x="783.3333" y="452.7486">emits</text><text fill="#FFFFFF" font-family="Verdana" font-size="12.5" lengthAdjust="spacing" textLength="305.2083" x="650" y="467.2994">DashboardDetailsContainerViewModel.ViewState</text><!--MD5=[f40cf1b70f4660b83adfaf9386fb7c06]
link DashboardDetailsContainerViewModel to KidsWatchPageProvider--><path codeLine="66" d="M1093.7083,496.5646 C1082.6771,505.1521 1071.0729,516.6531 1065.1042,530.2083 C1057.8229,546.7323 1058.8958,553.8781 1065.1042,570.8333 C1068.5729,580.2958 1074.1146,589.3229 1080.3646,597.4594 " fill="none" id="DashboardDetailsContainerViewModel-to-KidsWatchPageProvider" style="stroke:#2A9FD6;stroke-width:3.125;"/><polygon fill="#2A9FD6" points="1083.9063,601.8844,1081.3188,591.9568,1080.659,597.8123,1074.8035,597.1524,1083.9063,601.8844" style="stroke:#2A9FD6;stroke-width:3.125;"/><text fill="#FFFFFF" font-family="Verdana" font-size="12.5" lengthAdjust="spacing" textLength="48.9583" x="1071.3542" y="555.3528">invokes</text><!--MD5=[c042391c50c7ec32c9b828a1bceb99d2]
reverse link DashboardDetailsContainerViewModel to KidsWatchPageProvider--><path codeLine="67" d="M1125.8542,501.6698 C1127.8125,510.4802 1129.7708,520.7646 1130.7292,530.2083 C1132.5625,548.1708 1132.3229,552.8479 1130.7292,570.8333 C1129.8333,580.9625 1128.1458,591.8875 1126.3438,601.7969 " fill="none" id="DashboardDetailsContainerViewModel-backto-KidsWatchPageProvider" style="stroke:#2A9FD6;stroke-width:3.125;"/><polygon fill="#2A9FD6" points="1124.6458,496.3948,1122.6765,506.4632,1125.8082,501.4718,1130.7997,504.6035,1124.6458,496.3948" style="stroke:#2A9FD6;stroke-width:3.125;"/><text fill="#FFFFFF" font-family="Verdana" font-size="12.5" lengthAdjust="spacing" textLength="44.7917" x="1189.5833" y="548.0611">returns</text><text fill="#FFFFFF" font-family="Verdana" font-size="12.5" lengthAdjust="spacing" textLength="147.9167" x="1138.0208" y="562.6119">KidsWatchPageProvider</text><!--MD5=[317d4eecefd030dd5f001755a7a5de7a]
link DashboardDeviceDetailsFragment to ChatFragment--><path codeLine="68" d="M493.2292,496.5927 C493.2292,524.699 493.2292,581.0469 493.2292,612.45 " fill="none" id="DashboardDeviceDetailsFragment-to-ChatFragment" style="stroke:#2A9FD6;stroke-width:3.125;"/><polygon fill="#2A9FD6" points="493.2292,618.0115,497.3958,608.6365,493.2292,612.8031,489.0625,608.6365,493.2292,618.0115" style="stroke:#2A9FD6;stroke-width:3.125;"/><text fill="#FFFFFF" font-family="Verdana" font-size="12.5" lengthAdjust="spacing" textLength="47.9167" x="499.4792" y="555.3528">creates</text><!--MD5=[4fcca091f4c468e6df09091f2a763be1]
reverse link ChatFragment to ChatViewModel--><path codeLine="69" d="M423.8656,652.7083 C398.2583,662.2375 371.8344,677.3281 356.7708,701.0417 C331.0604,741.5146 379.7188,790.8885 410.4365,816.344 " fill="none" id="ChatFragment-backto-ChatViewModel" style="stroke:#2A9FD6;stroke-width:3.125;stroke-dasharray:7.0,7.0;"/><polygon fill="#2A9FD6" points="428.9729,650.876,418.7416,650.1196,424.0705,652.6347,421.5554,657.9635,428.9729,650.876" style="stroke:#2A9FD6;stroke-width:3.125;"/><text fill="#FFFFFF" font-family="Verdana" font-size="12.5" lengthAdjust="spacing" textLength="34.375" x="421.3542" y="718.8944">emits</text><text fill="#FFFFFF" font-family="Verdana" font-size="12.5" lengthAdjust="spacing" textLength="151.0417" x="363.0208" y="733.4452">ViewEvent.ChatSelected</text><!--MD5=[e90dd59be6ffe082b6811ca60d9d5a62]
link ChatFragment to ChatViewModel--><path codeLine="70" d="M505.1469,653.6604 C518.5656,674.6292 536.9635,711.526 524.4792,741.6667 C512.0448,771.6865 484.4802,797.0015 462.8063,813.37 " fill="none" id="ChatFragment-to-ChatViewModel" style="stroke:#2A9FD6;stroke-width:3.125;"/><polygon fill="#2A9FD6" points="458.5563,816.5232,468.5682,814.2846,462.7394,813.4203,463.6036,807.5915,458.5563,816.5232" style="stroke:#2A9FD6;stroke-width:3.125;"/><text fill="#FFFFFF" font-family="Verdana" font-size="12.5" lengthAdjust="spacing" textLength="47.9167" x="534.8958" y="726.1861">creates</text><!--MD5=[edd6a8929f1cedaeec4b79b7636b26a4]
reverse link DeepLinkRepository to ChatViewModel--><path codeLine="71" d="M217.5188,834.375 C264.9667,834.375 320.7656,834.375 363.6667,834.375 " fill="none" id="DeepLinkRepository-backto-ChatViewModel" style="stroke:#2A9FD6;stroke-width:3.125;"/><polygon fill="#2A9FD6" points="212.0708,834.375,221.4458,838.5417,217.2792,834.375,221.4458,830.2083,212.0708,834.375" style="stroke:#2A9FD6;stroke-width:3.125;"/><text fill="#FFFFFF" font-family="Verdana" font-size="12.5" lengthAdjust="spacing" textLength="103.125" x="236.4583" y="823.0611">resets deep link</text><!--MD5=[594bd15855c646acdf0dcfcc390682ba]
link ChatFragment to DashboardRouter--><path codeLine="72" d="M466.275,618.1875 C409.0208,580.3906 283.4896,483.999 321.3542,386.4583 C345.7521,323.6073 402.0406,268.9375 443.5875,234.9917 " fill="none" id="ChatFragment-to-DashboardRouter" style="stroke:#2A9FD6;stroke-width:3.125;"/><polygon fill="#2A9FD6" points="448.0677,231.3646,438.1594,234.025,444.0196,234.6417,443.4029,240.5019,448.0677,231.3646" style="stroke:#2A9FD6;stroke-width:3.125;"/><text fill="#FFFFFF" font-family="Verdana" font-size="12.5" lengthAdjust="spacing" textLength="65.625" x="370.3125" y="404.3111">notifies on</text><text fill="#FFFFFF" font-family="Verdana" font-size="12.5" lengthAdjust="spacing" textLength="151.0417" x="327.6042" y="418.8619">ViewEvent.ChatSelected</text><!--MD5=[dc1bd77e4cf09e5af923d7b5d9b46679]
@startuml
!include https://raw.githubusercontent.com/bschwarz/puml-themes/master/themes/cyborg-outline/puml-theme-cyborg-outline.puml

skinparam BackgroundColor #313238
skinparam StereotypeCBackgroundColor #fb8500

skinparam StereotypeCBackgroundColor<<S>> #e840e8
skinparam SpotChar<<S>> S
hide <<S>> stereotype

skinparam StereotypeCBackgroundColor<<E>> #10FF30
skinparam SpotChar<<E>> E
hide <<E>> stereotype

' skinparam linetype polyline
' skinparam linetype ortho

!procedure loop_arrowR()
  <<-[#pink]- -
!endprocedure



hide members
show DeepLinkResolver methods
show DeepLink methods
show DeepLinkRepository methods

class DeepLink <<E>> {
+neoChat(deviceId:)
}

class DeepLinkResolver<<S>> {
+parse(url: String): DeepLink?
}

class DeepLinkRepository {
+deepLink: DeepLink?
- -
+setDeepLink(_:DeepLink)
+resetDeepLink()
}


show DashboardRouter methods
show KidsWatchPageProvider methods

class DashboardRouter {
+navigateToChatDetails(...)
}

class KidsWatchPageProvider {
+provideForSuccess(deviceUid:)
}

DashboardActivityViewModel -up-> DeepLinkResolver: calls
DashboardActivityViewModel - - - - -> DeepLinkRepository: sets\ndeep link
DeepLinkResolver -right-> DeepLink
DashboardActivityViewModel -right-> DashboardRouter: sets as root router
DashboardActivityViewModel -right-> DashboardRouter: calls
DashboardRouter -down-> DashboardFragment: creates
DashboardFragment -down-> DashboardViewModel: creates
DashboardViewModel .left.> DashboardFragment: emits DashboardViewModel.ViewState
DashboardFragment - -> DashboardDeviceDetailsFragment: creates
DashboardDeviceDetailsFragment -right-> DashboardDetailsContainerViewModel: creates
DashboardDetailsContainerViewModel .left.> DashboardDeviceDetailsFragment: emits\n DashboardDetailsContainerViewModel.ViewState
DashboardDetailsContainerViewModel -down-> KidsWatchPageProvider : invokes
KidsWatchPageProvider -up-> DashboardDetailsContainerViewModel : returns\nKidsWatchPageProvider
DashboardDeviceDetailsFragment - -> ChatFragment: creates
ChatViewModel .up.> ChatFragment: emits\nViewEvent.ChatSelected
ChatFragment -down-> ChatViewModel: creates
ChatViewModel -left-> DeepLinkRepository: resets deep link
ChatFragment -[norank]-> DashboardRouter: notifies on\nViewEvent.ChatSelected
@enduml

@startuml



skinparam backgroundColor transparent
skinparam useBetaStyle false







skinparam defaultFontName       "Verdana"
skinparam defaultFontSize       12
skinparam dpi                   100
skinparam shadowing             false
skinparam roundcorner           8
skinparam ParticipantPadding    40
skinparam BoxPadding            40
skinparam Padding               5
skinparam ArrowColor            #ADAFAE
skinparam stereotype {
    CBackgroundColor #777777
    CBorderColor #444444
    ABackgroundColor #5F8F00
    ABorderColor #92C233
    IBackgroundColor #a30000
    IBorderColor #D63333
    EBackgroundColor #cc6d00
    EBorderColor #FFA033
    NBackgroundColor #7a29a3
    NBorderColor #AD5CD6
}
skinparam title {
	FontColor	                 #2A9FD6
	BorderColor	                 #777777
	FontSize	    	         20
	BorderRoundCorner            8
	BorderThickness 	         1
	BackgroundColor              transparent
}

skinparam legend {
	BackgroundColor transparent
	BorderColor #777777
	FontColor #ADAFAE
}

skinparam swimlane {
	BorderColor #9933CC
	BorderThickness 2
	TitleBackgroundColor  #444444-#555
	TitleFontColor #2A9FD6
}


skinparam activity {
		FontColor #2A9FD6
	BorderColor #55B2DE
	BackgroundColor transparent
	BarColor #77B300
	StartColor #9933CC
	EndColor #9933CC
	DiamondBackgroundColor transparent
  	DiamondBorderColor #777777
  	DiamondFontColor #777777
}


skinparam participant {
		FontColor #2A9FD6
	BorderColor #55B2DE
	BackgroundColor transparent
	ParticipantBorderThickness 2
}


skinparam actor {
		FontColor #2A9FD6
	BorderColor #55B2DE
	BackgroundColor transparent
	FontColor #2A9FD6
}


skinparam arrow {
	Thickness 3
	Color #2A9FD6
	FontColor #FFF
}


skinparam sequence {
	BorderColor #2A9FD6
	TitleFontColor #2A9FD6
	BackgroundColor transparent
	StartColor #2A9FD6
	EndColor #2A9FD6
	BoxBackgroundColor transparent
	BoxBorderColor #ADAFAE
	BoxFontColor #ADAFAE
	DelayFontColor #ADAFAE
	LifeLineBorderColor #555
	LifeLineBorderThickness 2
	LifeLineBackgroundColor transparent
	GroupBorderColor #ADAFAE
	GroupFontColor #ADAFAE
	GroupHeaderFontColor #9933CC
	GroupBackgroundColor transparent
	GroupBodyBackgroundColor transparent
	GroupHeaderBackgroundColor transparent
	DividerBackgroundColor transparent
    DividerBorderColor #ADAFAE
    DividerBorderThickness 2
    DividerFontColor #ADAFAE
	ReferenceBackgroundColor transparent
	ReferenceBorderColor #ADAFAE
	ReferenceFontColor #ADAFAE
	ReferenceHeaderFontColor #9933CC
	ReferenceHeaderBackgroundColor transparent
	StereotypeFontColor #2A9FD6
}


skinparam partition {
	BorderColor #2A9FD6
	FontColor #2A9FD6
	BackgroundColor transparent
}


skinparam collections {
		FontColor #2A9FD6
	BorderColor #55B2DE
	BackgroundColor transparent
}


skinparam control {
		FontColor #2A9FD6
	BorderColor #55B2DE
	BackgroundColor transparent
	FontColor #2A9FD6
}


skinparam entity {
		FontColor #2A9FD6
	BorderColor #55B2DE
	BackgroundColor transparent
	FontColor #2A9FD6
}


skinparam boundary {
		FontColor #2A9FD6
	BorderColor #55B2DE
	BackgroundColor transparent
	FontColor #2A9FD6
}


skinparam agent {
	BackgroundColor transparent
	BorderColor #cc6d00
	FontColor #ADAFAE
}


skinparam note {
	BorderThickness 1
	BackgroundColor transparent
	BorderColor #AD5CD6
	FontColor #AD5CD6
}


skinparam artifact {
	BackgroundColor transparent
	BorderColor #BDBFBE
	FontColor #BDBFBE
}


skinparam component {
		FontColor #2A9FD6
	BorderColor #55B2DE
	BackgroundColor transparent
}


skinparam interface {
	BackgroundColor  transparent
	BorderColor  #CC0000
	FontColor #ADAFAE
}


skinparam storage {
	BackgroundColor transparent
  	BorderColor #FFA033
	FontColor #FF8800
}


skinparam node {
	BackgroundColor  transparent
	BorderColor #ADAFAE
	FontColor #ADAFAE
}


skinparam cloud {
	BackgroundColor transparent
	BorderColor #F2FCFE
	FontColor #ADAFAE
}


skinparam database {
		FontColor #2A9FD6
	BorderColor #55B2DE
	BackgroundColor transparent
	FontColor #2A9FD6
}



skinparam class {
		FontColor #2A9FD6
	BorderColor #55B2DE
	BackgroundColor transparent
        FontColor #222
	HeaderBackgroundColor #227FAB
	StereotypeFontColor #ADAFAE
	BorderThickness 1
	AttributeFontColor #ADAFAE
	AttributeFontSize 11
}


skinparam object {
		FontColor #2A9FD6
	BorderColor #55B2DE
	BackgroundColor transparent
	StereotypeFontColor #ADAFAE
	BorderThickness 1
	AttributeFontColor #777777
	AttributeFontSize 11
}


skinparam usecase {
		FontColor #2A9FD6
	BorderColor #55B2DE
	BackgroundColor transparent
	BorderThickness 2
	StereotypeFontColor #2A9FD6
}


skinparam rectangle {
		FontColor #2A9FD6
	BorderColor #55B2DE
	BackgroundColor transparent
	BorderThickness 2
	StereotypeFontColor #2A9FD6
}


skinparam package {
	BackgroundColor transparent
  	BorderColor #2A9FD6
	FontColor #2A9FD6
	BorderThickness 2
}


skinparam folder {
	BackgroundColor transparent
  	BorderColor #FF8800
	FontColor #FF8800
	BorderThickness 2
}


skinparam frame {
	BackgroundColor transparent
  	BorderColor #9933CC
	FontColor #9933CC
	BorderThickness 2
}


skinparam state {
		FontColor #2A9FD6
	BorderColor #55B2DE
	BackgroundColor transparent
	StartColor #9933CC
	EndColor #9933CC
	AttributeFontColor #777777
	AttributeFontSize 11
}


skinparam queue {
		FontColor #2A9FD6
	BorderColor #55B2DE
	BackgroundColor transparent
}


skinparam card {
	BackgroundColor transparent
	BorderColor #9933CC
	FontColor #9933CC
}


skinparam file {
	BackgroundColor transparent
	BorderColor #555
	FontColor #555
}



skinparam BackgroundColor #313238
skinparam StereotypeCBackgroundColor #fb8500

skinparam StereotypeCBackgroundColor<<S>> #e840e8
skinparam SpotChar<<S>> S
hide <<S>> stereotype

skinparam StereotypeCBackgroundColor<<E>> #10FF30
skinparam SpotChar<<E>> E
hide <<E>> stereotype





hide members
show DeepLinkResolver methods
show DeepLink methods
show DeepLinkRepository methods

class DeepLink <<E>> {
+neoChat(deviceId:)
}

class DeepLinkResolver<<S>> {
+parse(url: String): DeepLink?
}

class DeepLinkRepository {
+deepLink: DeepLink?
- -
+setDeepLink(_:DeepLink)
+resetDeepLink()
}


show DashboardRouter methods
show KidsWatchPageProvider methods

class DashboardRouter {
+navigateToChatDetails(...)
}

class KidsWatchPageProvider {
+provideForSuccess(deviceUid:)
}

DashboardActivityViewModel -up-> DeepLinkResolver: calls
DashboardActivityViewModel - - - - -> DeepLinkRepository: sets\ndeep link
DeepLinkResolver -right-> DeepLink
DashboardActivityViewModel -right-> DashboardRouter: sets as root router
DashboardActivityViewModel -right-> DashboardRouter: calls
DashboardRouter -down-> DashboardFragment: creates
DashboardFragment -down-> DashboardViewModel: creates
DashboardViewModel .left.> DashboardFragment: emits DashboardViewModel.ViewState
DashboardFragment - -> DashboardDeviceDetailsFragment: creates
DashboardDeviceDetailsFragment -right-> DashboardDetailsContainerViewModel: creates
DashboardDetailsContainerViewModel .left.> DashboardDeviceDetailsFragment: emits\n DashboardDetailsContainerViewModel.ViewState
DashboardDetailsContainerViewModel -down-> KidsWatchPageProvider : invokes
KidsWatchPageProvider -up-> DashboardDetailsContainerViewModel : returns\nKidsWatchPageProvider
DashboardDeviceDetailsFragment - -> ChatFragment: creates
ChatViewModel .up.> ChatFragment: emits\nViewEvent.ChatSelected
ChatFragment -down-> ChatViewModel: creates
ChatViewModel -left-> DeepLinkRepository: resets deep link
ChatFragment -[norank]-> DashboardRouter: notifies on\nViewEvent.ChatSelected
@enduml

PlantUML version 1.2021.10(Mon Aug 30 13:43:48 UTC 2021)
(GPL source distribution)
Java Runtime: Java(TM) SE Runtime Environment
JVM: Java HotSpot(TM) 64-Bit Server VM
Default Encoding: UTF-8
Language: en
Country: US
--></g></svg>