<?xml version="1.0" encoding="UTF-8" standalone="no"?><svg xmlns="http://www.w3.org/2000/svg" xmlns:xlink="http://www.w3.org/1999/xlink" contentScriptType="application/ecmascript" contentStyleType="text/css" height="969.7917px" preserveAspectRatio="none" style="width:1306px;height:969px;background:#313238;" version="1.1" viewBox="0 0 1306 969" width="1306.25px" zoomAndPan="magnify"><defs/><g><!--MD5=[fc811cf51f9c2276167b9320ad74c775]
class DeepLinkResolver--><rect codeLine="32" fill="#313238" height="67.4723" id="DeepLinkResolver" rx="4.1667" ry="4.1667" style="stroke:#55B2DE;stroke-width:1.0416666666666667;" width="204.1667" x="7.2917" y="7.2917"/><rect fill="#227FAB" height="35.3841" rx="4.1667" ry="4.1667" style="stroke:#227FAB;stroke-width:1.0416666666666667;" width="204.1667" x="7.2917" y="7.2917"/><rect fill="#227FAB" height="4.1667" style="stroke:#227FAB;stroke-width:1.0416666666666667;" width="204.1667" x="7.2917" y="38.5091"/><rect codeLine="32" fill="none" height="67.4723" id="DeepLinkResolver" rx="4.1667" ry="4.1667" style="stroke:#55B2DE;stroke-width:1.0416666666666667;" width="204.1667" x="7.2917" y="7.2917"/><ellipse cx="43.9063" cy="24.9837" fill="#E840E8" rx="10.4167" ry="10.4167" style="stroke:#444444;stroke-width:1.0416666666666667;"/><path d="M46.722,21.9889 C46.722,21.6634 46.7057,21.5658 46.6406,21.4518 C46.543,21.2728 46.3151,21.1751 46.1035,21.1751 C45.8594,21.1751 45.7454,21.2728 45.6152,21.582 C45.1921,21.3053 44.6387,21.1751 44.0039,21.1751 C42.4414,21.1751 41.2858,22.1191 41.2858,23.3724 C41.2858,24.0885 41.6764,24.7559 42.3112,25.1139 C42.7181,25.3418 43.1087,25.472 43.9225,25.6022 C44.7689,25.7487 44.9805,25.7975 45.2409,25.944 C45.5176,26.0905 45.6803,26.3346 45.6803,26.6113 C45.6803,27.1484 44.9642,27.5553 44.0365,27.5553 C43.2064,27.5553 42.4251,27.1973 42.2949,26.7415 C42.1973,26.3997 42.1973,26.3997 42.1159,26.3184 C42.002,26.2044 41.8392,26.1393 41.6602,26.1393 C41.4648,26.1393 41.2695,26.237 41.1556,26.3997 C41.0579,26.5137 41.0417,26.6602 41.0417,26.9694 L41.0417,27.7995 C41.0417,28.3529 41.237,28.6133 41.6764,28.6133 C41.8717,28.6133 41.9531,28.5645 42.181,28.3203 C42.7832,28.6458 43.4505,28.8086 44.1178,28.8086 C45.8431,28.8086 46.9824,27.9297 46.9824,26.6276 C46.9824,25.9766 46.7546,25.472 46.25,25.0651 C45.8594,24.7559 45.3874,24.5768 44.2969,24.3815 C43.3529,24.2025 43.304,24.1862 43.0436,24.056 C42.7669,23.9095 42.5879,23.6328 42.5879,23.3724 C42.5879,22.8353 43.2064,22.4121 44.0039,22.4121 C44.7689,22.4121 45.3711,22.7539 45.485,23.2585 C45.5664,23.6491 45.5664,23.6491 45.6641,23.7467 C45.7617,23.8607 45.9408,23.9258 46.1035,23.9258 C46.2988,23.9258 46.4779,23.8281 46.6081,23.6654 C46.7057,23.5352 46.722,23.4375 46.722,23.0957 L46.722,21.9889 Z " fill="#000000"/><text fill="#222222" font-family="Verdana" font-size="12.5" lengthAdjust="spacing" textLength="113.5417" x="67.5521" y="29.3111">DeepLinkResolver</text><line style="stroke:#55B2DE;stroke-width:1.0416666666666667;" x1="8.3333" x2="210.4167" y1="42.6758" y2="42.6758"/><ellipse cx="18.75" cy="54.1341" fill="#84BE84" rx="3.125" ry="3.125" style="stroke:#038048;stroke-width:1.0416666666666667;"/><text fill="#ADAFAE" font-family="Verdana" font-size="11.4583" lengthAdjust="spacing" textLength="167.7083" x="32.2917" y="62.6867">parse(url: String): DeepLink?</text><!--MD5=[49ec080158085dcbd3ad09715098bc8b]
class DeepLink--><rect codeLine="28" fill="#313238" height="67.4723" id="DeepLink" rx="4.1667" ry="4.1667" style="stroke:#55B2DE;stroke-width:1.0416666666666667;" width="148.9583" x="248.4375" y="7.2917"/><rect fill="#227FAB" height="35.3841" rx="4.1667" ry="4.1667" style="stroke:#227FAB;stroke-width:1.0416666666666667;" width="148.9583" x="248.4375" y="7.2917"/><rect fill="#227FAB" height="4.1667" style="stroke:#227FAB;stroke-width:1.0416666666666667;" width="148.9583" x="248.4375" y="38.5091"/><rect codeLine="28" fill="none" height="67.4723" id="DeepLink" rx="4.1667" ry="4.1667" style="stroke:#55B2DE;stroke-width:1.0416666666666667;" width="148.9583" x="248.4375" y="7.2917"/><ellipse cx="285.0521" cy="24.9837" fill="#10FF30" rx="10.4167" ry="10.4167" style="stroke:#444444;stroke-width:1.0416666666666667;"/><path d="M284.3522,25.5859 L285.4102,25.5859 L285.4102,25.6836 C285.4102,25.9766 285.4427,26.0905 285.5078,26.2044 C285.6217,26.3997 285.8333,26.4974 286.0449,26.4974 C286.224,26.4974 286.4193,26.3997 286.5332,26.237 C286.6309,26.123 286.6471,26.0091 286.6471,25.6836 L286.6471,24.2676 C286.6471,24.1536 286.6471,24.1211 286.6471,24.0072 C286.582,23.6491 286.3704,23.4375 286.0286,23.4375 C285.8333,23.4375 285.6543,23.5352 285.5241,23.6979 C285.4427,23.8118 285.4102,23.9258 285.4102,24.2676 L285.4102,24.349 L284.3522,24.349 L284.3522,22.5911 L287.2819,22.5911 L287.2819,23.2096 C287.2819,23.5189 287.2982,23.6491 287.3633,23.7467 C287.4935,23.9421 287.6888,24.056 287.9004,24.056 C288.0957,24.056 288.291,23.9583 288.4212,23.7956 C288.5026,23.6654 288.5352,23.5677 288.5352,23.2096 L288.5352,21.3379 L282.9199,21.3379 C282.5944,21.3379 282.4967,21.3542 282.3828,21.4355 C282.2038,21.5495 282.0898,21.7611 282.0898,21.9727 C282.0898,22.168 282.1875,22.347 282.3503,22.4772 C282.4642,22.5749 282.5944,22.5911 282.9199,22.5911 L283.099,22.5911 L283.099,27.3763 L282.9199,27.3763 C282.6107,27.3763 282.4967,27.3926 282.3828,27.474 C282.2038,27.5879 282.0898,27.7995 282.0898,28.0111 C282.0898,28.2064 282.1875,28.3854 282.3503,28.4993 C282.4479,28.597 282.627,28.6296 282.9199,28.6296 L288.7956,28.6296 L288.7956,26.7253 C288.7956,26.416 288.7793,26.3021 288.7142,26.1882 C288.584,26.0091 288.3887,25.8952 288.1771,25.8952 C287.9818,25.8952 287.7865,25.9766 287.6725,26.1556 C287.5749,26.2858 287.5586,26.3835 287.5586,26.7253 L287.5586,27.3763 L284.3522,27.3763 L284.3522,25.5859 Z " fill="#000000"/><text fill="#222222" font-family="Verdana" font-size="12.5" lengthAdjust="spacing" textLength="58.3333" x="308.6979" y="29.3111">DeepLink</text><line style="stroke:#55B2DE;stroke-width:1.0416666666666667;" x1="249.4792" x2="396.3542" y1="42.6758" y2="42.6758"/><ellipse cx="259.8958" cy="54.1341" fill="#84BE84" rx="3.125" ry="3.125" style="stroke:#038048;stroke-width:1.0416666666666667;"/><text fill="#ADAFAE" font-family="Verdana" font-size="11.4583" lengthAdjust="spacing" textLength="112.5" x="273.4375" y="62.6867">neoChat(deviceId:)</text><!--MD5=[21816c44a4785c97d5629c4b9046fd8c]
class DeepLinkRepository--><rect codeLine="36" fill="#313238" height="123.3154" id="DeepLinkRepository" rx="4.1667" ry="4.1667" style="stroke:#55B2DE;stroke-width:1.0416666666666667;" width="185.4167" x="8.3333" y="839.5833"/><rect fill="#227FAB" height="35.3841" rx="4.1667" ry="4.1667" style="stroke:#227FAB;stroke-width:1.0416666666666667;" width="185.4167" x="8.3333" y="839.5833"/><rect fill="#227FAB" height="4.1667" style="stroke:#227FAB;stroke-width:1.0416666666666667;" width="185.4167" x="8.3333" y="870.8008"/><rect codeLine="36" fill="none" height="123.3154" id="DeepLinkRepository" rx="4.1667" ry="4.1667" style="stroke:#55B2DE;stroke-width:1.0416666666666667;" width="185.4167" x="8.3333" y="839.5833"/><ellipse cx="30.8854" cy="857.2754" fill="#FB8500" rx="10.4167" ry="10.4167" style="stroke:#444444;stroke-width:1.0416666666666667;"/><path d="M32.8223,853.89 C32.1387,853.5645 31.6992,853.4668 31.0482,853.4668 C29.1276,853.4668 27.6465,854.9805 27.6465,856.9824 L27.6465,857.8125 C27.6465,859.7168 29.209,861.1003 31.3249,861.1003 C32.2201,861.1003 33.0827,860.8724 33.6198,860.4655 C34.0592,860.1725 34.2871,859.847 34.2871,859.554 C34.2871,859.2285 33.9941,858.9355 33.6686,858.9355 C33.5059,858.9355 33.3594,859.0007 33.2129,859.1309 C32.8711,859.4889 32.8711,859.4889 32.7409,859.554 C32.4316,859.7493 31.9271,859.847 31.3574,859.847 C29.86,859.847 28.8997,859.0332 28.8997,857.7799 L28.8997,856.9824 C28.8997,855.6641 29.8275,854.7038 31.097,854.7038 C31.5202,854.7038 31.9759,854.8177 32.3177,855.013 C32.6758,855.2083 32.806,855.3711 32.8711,855.6641 C32.9199,855.9733 32.9362,856.0547 33.0339,856.1523 C33.1315,856.2663 33.3105,856.3314 33.4733,856.3314 C33.6849,856.3314 33.8639,856.2337 33.9941,856.071 C34.0755,855.957 34.1081,855.8268 34.1081,855.5013 L34.1081,854.4596 C34.1081,854.1504 34.0918,854.0527 34.0104,853.9388 C33.8965,853.7435 33.7012,853.6296 33.4733,853.6296 C33.2617,853.6296 33.1152,853.7109 32.9525,853.9388 L32.8223,853.89 Z " fill="#000000"/><text fill="#222222" font-family="Verdana" font-size="12.5" lengthAdjust="spacing" textLength="126.0417" x="51.4063" y="861.6028">DeepLinkRepository</text><line style="stroke:#55B2DE;stroke-width:1.5625;" x1="9.375" x2="192.7083" y1="874.9674" y2="874.9674"/><ellipse cx="19.7917" cy="886.4258" rx="3.125" ry="3.125" style="stroke:#038048;stroke-width:1.0416666666666667;fill:none;"/><text fill="#ADAFAE" font-family="Verdana" font-size="11.4583" lengthAdjust="spacing" textLength="123.9583" x="33.3333" y="894.9783">deepLink: DeepLink?</text><line style="stroke:#55B2DE;stroke-width:1.0416666666666667;" x1="9.375" x2="192.7083" y1="907.0557" y2="907.0557"/><ellipse cx="19.7917" cy="918.514" fill="#84BE84" rx="3.125" ry="3.125" style="stroke:#038048;stroke-width:1.0416666666666667;"/><text fill="#ADAFAE" font-family="Verdana" font-size="11.4583" lengthAdjust="spacing" textLength="148.9583" x="33.3333" y="927.0665">setDeepLink(_:DeepLink)</text><ellipse cx="19.7917" cy="942.2689" fill="#84BE84" rx="3.125" ry="3.125" style="stroke:#038048;stroke-width:1.0416666666666667;"/><text fill="#ADAFAE" font-family="Verdana" font-size="11.4583" lengthAdjust="spacing" textLength="95.8333" x="33.3333" y="950.8214">resetDeepLink()</text><!--MD5=[fffc840f707a2c6ec0b6288dd00bfd10]
class DashboardRouter--><rect codeLine="46" fill="#313238" height="67.4723" id="DashboardRouter" rx="4.1667" ry="4.1667" style="stroke:#55B2DE;stroke-width:1.0416666666666667;" width="189.5833" x="339.5833" y="262.5"/><rect fill="#227FAB" height="35.3841" rx="4.1667" ry="4.1667" style="stroke:#227FAB;stroke-width:1.0416666666666667;" width="189.5833" x="339.5833" y="262.5"/><rect fill="#227FAB" height="4.1667" style="stroke:#227FAB;stroke-width:1.0416666666666667;" width="189.5833" x="339.5833" y="293.7174"/><rect codeLine="46" fill="none" height="67.4723" id="DashboardRouter" rx="4.1667" ry="4.1667" style="stroke:#55B2DE;stroke-width:1.0416666666666667;" width="189.5833" x="339.5833" y="262.5"/><ellipse cx="371.5104" cy="280.1921" fill="#FB8500" rx="10.4167" ry="10.4167" style="stroke:#444444;stroke-width:1.0416666666666667;"/><path d="M373.4473,276.8066 C372.7637,276.4811 372.3242,276.3835 371.6732,276.3835 C369.7526,276.3835 368.2715,277.8971 368.2715,279.8991 L368.2715,280.7292 C368.2715,282.6335 369.834,284.0169 371.9499,284.0169 C372.8451,284.0169 373.7077,283.7891 374.2448,283.3822 C374.6842,283.0892 374.9121,282.7637 374.9121,282.4707 C374.9121,282.1452 374.6191,281.8522 374.2936,281.8522 C374.1309,281.8522 373.9844,281.9173 373.8379,282.0475 C373.4961,282.4056 373.4961,282.4056 373.3659,282.4707 C373.0566,282.666 372.5521,282.7637 371.9824,282.7637 C370.485,282.7637 369.5247,281.9499 369.5247,280.6966 L369.5247,279.8991 C369.5247,278.5807 370.4525,277.6204 371.722,277.6204 C372.1452,277.6204 372.6009,277.7344 372.9427,277.9297 C373.3008,278.125 373.431,278.2878 373.4961,278.5807 C373.5449,278.89 373.5612,278.9714 373.6589,279.069 C373.7565,279.1829 373.9355,279.248 374.0983,279.248 C374.3099,279.248 374.4889,279.1504 374.6191,278.9876 C374.7005,278.8737 374.7331,278.7435 374.7331,278.418 L374.7331,277.3763 C374.7331,277.0671 374.7168,276.9694 374.6354,276.8555 C374.5215,276.6602 374.3262,276.5462 374.0983,276.5462 C373.8867,276.5462 373.7402,276.6276 373.5775,276.8555 L373.4473,276.8066 Z " fill="#000000"/><text fill="#222222" font-family="Verdana" font-size="12.5" lengthAdjust="spacing" textLength="109.375" x="394.1146" y="284.5194">DashboardRouter</text><line style="stroke:#55B2DE;stroke-width:1.0416666666666667;" x1="340.625" x2="528.125" y1="297.8841" y2="297.8841"/><ellipse cx="351.0417" cy="309.3424" fill="#84BE84" rx="3.125" ry="3.125" style="stroke:#038048;stroke-width:1.0416666666666667;"/><text fill="#ADAFAE" font-family="Verdana" font-size="11.4583" lengthAdjust="spacing" textLength="153.125" x="364.5833" y="317.895">navigateToChatDetails(...)</text><!--MD5=[c01dcf3d57a4a52b3bfa5fde8363aecc]
class AppDelegate--><rect fill="#313238" height="35.3841" id="AppDelegate" rx="4.1667" ry="4.1667" style="stroke:#55B2DE;stroke-width:1.0416666666666667;" width="123.9583" x="47.3958" y="138.5417"/><rect fill="#227FAB" height="35.3841" rx="4.1667" ry="4.1667" style="stroke:#227FAB;stroke-width:1.0416666666666667;" width="123.9583" x="47.3958" y="138.5417"/><rect fill="#227FAB" height="4.1667" style="stroke:#227FAB;stroke-width:1.0416666666666667;" width="123.9583" x="47.3958" y="169.7591"/><rect fill="none" height="35.3841" id="AppDelegate" rx="4.1667" ry="4.1667" style="stroke:#55B2DE;stroke-width:1.0416666666666667;" width="123.9583" x="47.3958" y="138.5417"/><ellipse cx="61.9792" cy="156.2337" fill="#FB8500" rx="10.4167" ry="10.4167" style="stroke:#444444;stroke-width:1.0416666666666667;"/><path d="M63.916,152.8483 C63.2324,152.5228 62.793,152.4251 62.1419,152.4251 C60.2214,152.4251 58.7402,153.9388 58.7402,155.9408 L58.7402,156.7708 C58.7402,158.6751 60.3027,160.0586 62.4186,160.0586 C63.3138,160.0586 64.1764,159.8307 64.7135,159.4238 C65.153,159.1309 65.3809,158.8053 65.3809,158.5124 C65.3809,158.1868 65.0879,157.8939 64.7624,157.8939 C64.5996,157.8939 64.4531,157.959 64.3066,158.0892 C63.9648,158.4473 63.9648,158.4473 63.8346,158.5124 C63.5254,158.7077 63.0208,158.8053 62.4512,158.8053 C60.9538,158.8053 59.9935,157.9915 59.9935,156.7383 L59.9935,155.9408 C59.9935,154.6224 60.9212,153.6621 62.1908,153.6621 C62.6139,153.6621 63.0697,153.776 63.4115,153.9714 C63.7695,154.1667 63.8997,154.3294 63.9648,154.6224 C64.0137,154.9316 64.0299,155.013 64.1276,155.1107 C64.2253,155.2246 64.4043,155.2897 64.5671,155.2897 C64.7786,155.2897 64.9577,155.1921 65.0879,155.0293 C65.1693,154.9154 65.2018,154.7852 65.2018,154.4596 L65.2018,153.418 C65.2018,153.1087 65.1855,153.0111 65.1042,152.8971 C64.9902,152.7018 64.7949,152.5879 64.5671,152.5879 C64.3555,152.5879 64.209,152.6693 64.0462,152.8971 L63.916,152.8483 Z " fill="#000000"/><text fill="#222222" font-family="Verdana" font-size="12.5" lengthAdjust="spacing" textLength="82.2917" x="80.7292" y="160.5611">AppDelegate</text><!--MD5=[8aec3159cc151200ebc10dad0bb2dd80]
class MainRouter--><rect fill="#313238" height="35.3841" id="MainRouter" rx="4.1667" ry="4.1667" style="stroke:#55B2DE;stroke-width:1.0416666666666667;" width="110.4167" x="54.1667" y="278.6458"/><rect fill="#227FAB" height="35.3841" rx="4.1667" ry="4.1667" style="stroke:#227FAB;stroke-width:1.0416666666666667;" width="110.4167" x="54.1667" y="278.6458"/><rect fill="#227FAB" height="4.1667" style="stroke:#227FAB;stroke-width:1.0416666666666667;" width="110.4167" x="54.1667" y="309.8633"/><rect fill="none" height="35.3841" id="MainRouter" rx="4.1667" ry="4.1667" style="stroke:#55B2DE;stroke-width:1.0416666666666667;" width="110.4167" x="54.1667" y="278.6458"/><ellipse cx="68.75" cy="296.3379" fill="#FB8500" rx="10.4167" ry="10.4167" style="stroke:#444444;stroke-width:1.0416666666666667;"/><path d="M70.6868,292.9525 C70.0033,292.627 69.5638,292.5293 68.9128,292.5293 C66.9922,292.5293 65.5111,294.043 65.5111,296.0449 L65.5111,296.875 C65.5111,298.7793 67.0736,300.1628 69.1895,300.1628 C70.0846,300.1628 70.9473,299.9349 71.4844,299.528 C71.9238,299.235 72.1517,298.9095 72.1517,298.6165 C72.1517,298.291 71.8587,297.998 71.5332,297.998 C71.3704,297.998 71.224,298.0632 71.0775,298.1934 C70.7357,298.5514 70.7357,298.5514 70.6055,298.6165 C70.2962,298.8118 69.7917,298.9095 69.222,298.9095 C67.7246,298.9095 66.7643,298.0957 66.7643,296.8424 L66.7643,296.0449 C66.7643,294.7266 67.6921,293.7663 68.9616,293.7663 C69.3848,293.7663 69.8405,293.8802 70.1823,294.0755 C70.5404,294.2708 70.6706,294.4336 70.7357,294.7266 C70.7845,295.0358 70.8008,295.1172 70.8984,295.2148 C70.9961,295.3288 71.1751,295.3939 71.3379,295.3939 C71.5495,295.3939 71.7285,295.2962 71.8587,295.1335 C71.9401,295.0195 71.9727,294.8893 71.9727,294.5638 L71.9727,293.5221 C71.9727,293.2129 71.9564,293.1152 71.875,293.0013 C71.7611,292.806 71.5658,292.6921 71.3379,292.6921 C71.1263,292.6921 70.9798,292.7734 70.8171,293.0013 L70.6868,292.9525 Z " fill="#000000"/><text fill="#222222" font-family="Verdana" font-size="12.5" lengthAdjust="spacing" textLength="68.75" x="87.5" y="300.6653">MainRouter</text><!--MD5=[bc130e996e7972261fd5c00d4ef8f87e]
class DashboardContainerController--><rect fill="#313238" height="35.3841" id="DashboardContainerController" rx="4.1667" ry="4.1667" style="stroke:#55B2DE;stroke-width:1.0416666666666667;" width="231.25" x="318.75" y="418.75"/><rect fill="#227FAB" height="35.3841" rx="4.1667" ry="4.1667" style="stroke:#227FAB;stroke-width:1.0416666666666667;" width="231.25" x="318.75" y="418.75"/><rect fill="#227FAB" height="4.1667" style="stroke:#227FAB;stroke-width:1.0416666666666667;" width="231.25" x="318.75" y="449.9674"/><rect fill="none" height="35.3841" id="DashboardContainerController" rx="4.1667" ry="4.1667" style="stroke:#55B2DE;stroke-width:1.0416666666666667;" width="231.25" x="318.75" y="418.75"/><ellipse cx="333.3333" cy="436.4421" fill="#FB8500" rx="10.4167" ry="10.4167" style="stroke:#444444;stroke-width:1.0416666666666667;"/><path d="M335.2702,433.0566 C334.5866,432.7311 334.1471,432.6335 333.4961,432.6335 C331.5755,432.6335 330.0944,434.1471 330.0944,436.1491 L330.0944,436.9792 C330.0944,438.8835 331.6569,440.2669 333.7728,440.2669 C334.668,440.2669 335.5306,440.0391 336.0677,439.6322 C336.5072,439.3392 336.735,439.0137 336.735,438.7207 C336.735,438.3952 336.4421,438.1022 336.1165,438.1022 C335.9538,438.1022 335.8073,438.1673 335.6608,438.2975 C335.319,438.6556 335.319,438.6556 335.1888,438.7207 C334.8796,438.916 334.375,439.0137 333.8053,439.0137 C332.3079,439.0137 331.3477,438.1999 331.3477,436.9466 L331.3477,436.1491 C331.3477,434.8307 332.2754,433.8704 333.5449,433.8704 C333.9681,433.8704 334.4238,433.9844 334.7656,434.1797 C335.1237,434.375 335.2539,434.5378 335.319,434.8307 C335.3678,435.14 335.3841,435.2214 335.4818,435.319 C335.5794,435.4329 335.7585,435.498 335.9212,435.498 C336.1328,435.498 336.3118,435.4004 336.4421,435.2376 C336.5234,435.1237 336.556,434.9935 336.556,434.668 L336.556,433.6263 C336.556,433.3171 336.5397,433.2194 336.4583,433.1055 C336.3444,432.9102 336.1491,432.7962 335.9212,432.7962 C335.7096,432.7962 335.5632,432.8776 335.4004,433.1055 L335.2702,433.0566 Z " fill="#000000"/><text fill="#222222" font-family="Verdana" font-size="12.5" lengthAdjust="spacing" textLength="189.5833" x="352.0833" y="440.7694">DashboardContainerController</text><!--MD5=[ca91d73d6f18027c28c062c1299fd929]
class DashboardViewModel--><rect fill="#313238" height="35.3841" id="DashboardViewModel" rx="4.1667" ry="4.1667" style="stroke:#55B2DE;stroke-width:1.0416666666666667;" width="179.1667" x="794.7917" y="418.75"/><rect fill="#227FAB" height="35.3841" rx="4.1667" ry="4.1667" style="stroke:#227FAB;stroke-width:1.0416666666666667;" width="179.1667" x="794.7917" y="418.75"/><rect fill="#227FAB" height="4.1667" style="stroke:#227FAB;stroke-width:1.0416666666666667;" width="179.1667" x="794.7917" y="449.9674"/><rect fill="none" height="35.3841" id="DashboardViewModel" rx="4.1667" ry="4.1667" style="stroke:#55B2DE;stroke-width:1.0416666666666667;" width="179.1667" x="794.7917" y="418.75"/><ellipse cx="809.375" cy="436.4421" fill="#FB8500" rx="10.4167" ry="10.4167" style="stroke:#444444;stroke-width:1.0416666666666667;"/><path d="M811.3118,433.0566 C810.6283,432.7311 810.1888,432.6335 809.5378,432.6335 C807.6172,432.6335 806.1361,434.1471 806.1361,436.1491 L806.1361,436.9792 C806.1361,438.8835 807.6986,440.2669 809.8145,440.2669 C810.7096,440.2669 811.5723,440.0391 812.1094,439.6322 C812.5488,439.3392 812.7767,439.0137 812.7767,438.7207 C812.7767,438.3952 812.4837,438.1022 812.1582,438.1022 C811.9954,438.1022 811.849,438.1673 811.7025,438.2975 C811.3607,438.6556 811.3607,438.6556 811.2305,438.7207 C810.9212,438.916 810.4167,439.0137 809.847,439.0137 C808.3496,439.0137 807.3893,438.1999 807.3893,436.9466 L807.3893,436.1491 C807.3893,434.8307 808.3171,433.8704 809.5866,433.8704 C810.0098,433.8704 810.4655,433.9844 810.8073,434.1797 C811.1654,434.375 811.2956,434.5378 811.3607,434.8307 C811.4095,435.14 811.4258,435.2214 811.5234,435.319 C811.6211,435.4329 811.8001,435.498 811.9629,435.498 C812.1745,435.498 812.3535,435.4004 812.4837,435.2376 C812.5651,435.1237 812.5977,434.9935 812.5977,434.668 L812.5977,433.6263 C812.5977,433.3171 812.5814,433.2194 812.5,433.1055 C812.3861,432.9102 812.1908,432.7962 811.9629,432.7962 C811.7513,432.7962 811.6048,432.8776 811.4421,433.1055 L811.3118,433.0566 Z " fill="#000000"/><text fill="#222222" font-family="Verdana" font-size="12.5" lengthAdjust="spacing" textLength="137.5" x="828.125" y="440.7694">DashboardViewModel</text><!--MD5=[d1cd822d190c74499caf3abbde8347a0]
class DashboardDetailsContainerViewModel--><rect fill="#313238" height="35.3841" id="DashboardDetailsContainerViewModel" rx="4.1667" ry="4.1667" style="stroke:#55B2DE;stroke-width:1.0416666666666667;" width="281.25" x="890.625" y="559.8958"/><rect fill="#227FAB" height="35.3841" rx="4.1667" ry="4.1667" style="stroke:#227FAB;stroke-width:1.0416666666666667;" width="281.25" x="890.625" y="559.8958"/><rect fill="#227FAB" height="4.1667" style="stroke:#227FAB;stroke-width:1.0416666666666667;" width="281.25" x="890.625" y="591.1133"/><rect fill="none" height="35.3841" id="DashboardDetailsContainerViewModel" rx="4.1667" ry="4.1667" style="stroke:#55B2DE;stroke-width:1.0416666666666667;" width="281.25" x="890.625" y="559.8958"/><ellipse cx="905.2083" cy="577.5879" fill="#FB8500" rx="10.4167" ry="10.4167" style="stroke:#444444;stroke-width:1.0416666666666667;"/><path d="M907.1452,574.2025 C906.4616,573.877 906.0221,573.7793 905.3711,573.7793 C903.4505,573.7793 901.9694,575.293 901.9694,577.2949 L901.9694,578.125 C901.9694,580.0293 903.5319,581.4128 905.6478,581.4128 C906.543,581.4128 907.4056,581.1849 907.9427,580.778 C908.3822,580.485 908.61,580.1595 908.61,579.8665 C908.61,579.541 908.3171,579.248 907.9915,579.248 C907.8288,579.248 907.6823,579.3132 907.5358,579.4434 C907.194,579.8014 907.194,579.8014 907.0638,579.8665 C906.7546,580.0618 906.25,580.1595 905.6803,580.1595 C904.1829,580.1595 903.2227,579.3457 903.2227,578.0924 L903.2227,577.2949 C903.2227,575.9766 904.1504,575.0163 905.4199,575.0163 C905.8431,575.0163 906.2988,575.1302 906.6406,575.3255 C906.9987,575.5208 907.1289,575.6836 907.194,575.9766 C907.2428,576.2858 907.2591,576.3672 907.3568,576.4648 C907.4544,576.5788 907.6335,576.6439 907.7962,576.6439 C908.0078,576.6439 908.1868,576.5462 908.3171,576.3835 C908.3984,576.2695 908.431,576.1393 908.431,575.8138 L908.431,574.7721 C908.431,574.4629 908.4147,574.3652 908.3333,574.2513 C908.2194,574.056 908.0241,573.9421 907.7962,573.9421 C907.5846,573.9421 907.4382,574.0234 907.2754,574.2513 L907.1452,574.2025 Z " fill="#000000"/><text fill="#222222" font-family="Verdana" font-size="12.5" lengthAdjust="spacing" textLength="239.5833" x="923.9583" y="581.9153">DashboardDetailsContainerViewModel</text><!--MD5=[56f8b6c557c3ca934b1b6e8347ba90d6]
class DashboardDetailsContainerViewController--><rect fill="#313238" height="35.3841" id="DashboardDetailsContainerViewController" rx="4.1667" ry="4.1667" style="stroke:#55B2DE;stroke-width:1.0416666666666667;" width="304.1667" x="282.2917" y="559.8958"/><rect fill="#227FAB" height="35.3841" rx="4.1667" ry="4.1667" style="stroke:#227FAB;stroke-width:1.0416666666666667;" width="304.1667" x="282.2917" y="559.8958"/><rect fill="#227FAB" height="4.1667" style="stroke:#227FAB;stroke-width:1.0416666666666667;" width="304.1667" x="282.2917" y="591.1133"/><rect fill="none" height="35.3841" id="DashboardDetailsContainerViewController" rx="4.1667" ry="4.1667" style="stroke:#55B2DE;stroke-width:1.0416666666666667;" width="304.1667" x="282.2917" y="559.8958"/><ellipse cx="296.875" cy="577.5879" fill="#FB8500" rx="10.4167" ry="10.4167" style="stroke:#444444;stroke-width:1.0416666666666667;"/><path d="M298.8118,574.2025 C298.1283,573.877 297.6888,573.7793 297.0378,573.7793 C295.1172,573.7793 293.6361,575.293 293.6361,577.2949 L293.6361,578.125 C293.6361,580.0293 295.1986,581.4128 297.3145,581.4128 C298.2096,581.4128 299.0723,581.1849 299.6094,580.778 C300.0488,580.485 300.2767,580.1595 300.2767,579.8665 C300.2767,579.541 299.9837,579.248 299.6582,579.248 C299.4954,579.248 299.349,579.3132 299.2025,579.4434 C298.8607,579.8014 298.8607,579.8014 298.7305,579.8665 C298.4212,580.0618 297.9167,580.1595 297.347,580.1595 C295.8496,580.1595 294.8893,579.3457 294.8893,578.0924 L294.8893,577.2949 C294.8893,575.9766 295.8171,575.0163 297.0866,575.0163 C297.5098,575.0163 297.9655,575.1302 298.3073,575.3255 C298.6654,575.5208 298.7956,575.6836 298.8607,575.9766 C298.9095,576.2858 298.9258,576.3672 299.0234,576.4648 C299.1211,576.5788 299.3001,576.6439 299.4629,576.6439 C299.6745,576.6439 299.8535,576.5462 299.9837,576.3835 C300.0651,576.2695 300.0977,576.1393 300.0977,575.8138 L300.0977,574.7721 C300.0977,574.4629 300.0814,574.3652 300,574.2513 C299.8861,574.056 299.6908,573.9421 299.4629,573.9421 C299.2513,573.9421 299.1048,574.0234 298.9421,574.2513 L298.8118,574.2025 Z " fill="#000000"/><text fill="#222222" font-family="Verdana" font-size="12.5" lengthAdjust="spacing" textLength="262.5" x="315.625" y="581.9153">DashboardDetailsContainerViewController</text><!--MD5=[0141def5517ee1429dd4f3af3ef995f2]
class KidsWatchViewStateProducer--><rect fill="#313238" height="35.3841" id="KidsWatchViewStateProducer" rx="4.1667" ry="4.1667" style="stroke:#55B2DE;stroke-width:1.0416666666666667;" width="226.0417" x="918.2292" y="701.0417"/><rect fill="#227FAB" height="35.3841" rx="4.1667" ry="4.1667" style="stroke:#227FAB;stroke-width:1.0416666666666667;" width="226.0417" x="918.2292" y="701.0417"/><rect fill="#227FAB" height="4.1667" style="stroke:#227FAB;stroke-width:1.0416666666666667;" width="226.0417" x="918.2292" y="732.2591"/><rect fill="none" height="35.3841" id="KidsWatchViewStateProducer" rx="4.1667" ry="4.1667" style="stroke:#55B2DE;stroke-width:1.0416666666666667;" width="226.0417" x="918.2292" y="701.0417"/><ellipse cx="932.8125" cy="718.7337" fill="#FB8500" rx="10.4167" ry="10.4167" style="stroke:#444444;stroke-width:1.0416666666666667;"/><path d="M934.7493,715.3483 C934.0658,715.0228 933.6263,714.9251 932.9753,714.9251 C931.0547,714.9251 929.5736,716.4388 929.5736,718.4408 L929.5736,719.2708 C929.5736,721.1751 931.1361,722.5586 933.252,722.5586 C934.1471,722.5586 935.0098,722.3307 935.5469,721.9238 C935.9863,721.6309 936.2142,721.3053 936.2142,721.0124 C936.2142,720.6868 935.9212,720.3939 935.5957,720.3939 C935.4329,720.3939 935.2865,720.459 935.14,720.5892 C934.7982,720.9473 934.7982,720.9473 934.668,721.0124 C934.3587,721.2077 933.8542,721.3053 933.2845,721.3053 C931.7871,721.3053 930.8268,720.4915 930.8268,719.2383 L930.8268,718.4408 C930.8268,717.1224 931.7546,716.1621 933.0241,716.1621 C933.4473,716.1621 933.903,716.276 934.2448,716.4714 C934.6029,716.6667 934.7331,716.8294 934.7982,717.1224 C934.847,717.4316 934.8633,717.513 934.9609,717.6107 C935.0586,717.7246 935.2376,717.7897 935.4004,717.7897 C935.612,717.7897 935.791,717.6921 935.9212,717.5293 C936.0026,717.4154 936.0352,717.2852 936.0352,716.9596 L936.0352,715.918 C936.0352,715.6087 936.0189,715.5111 935.9375,715.3971 C935.8236,715.2018 935.6283,715.0879 935.4004,715.0879 C935.1888,715.0879 935.0423,715.1693 934.8796,715.3971 L934.7493,715.3483 Z " fill="#000000"/><text fill="#222222" font-family="Verdana" font-size="12.5" lengthAdjust="spacing" textLength="184.375" x="951.5625" y="723.0611">KidsWatchViewStateProducer</text><!--MD5=[0b267776ad60d47510760946ff620390]
class ChatListViewController--><rect fill="#313238" height="35.3841" id="ChatListViewController" rx="4.1667" ry="4.1667" style="stroke:#55B2DE;stroke-width:1.0416666666666667;" width="181.25" x="940.625" y="883.3333"/><rect fill="#227FAB" height="35.3841" rx="4.1667" ry="4.1667" style="stroke:#227FAB;stroke-width:1.0416666666666667;" width="181.25" x="940.625" y="883.3333"/><rect fill="#227FAB" height="4.1667" style="stroke:#227FAB;stroke-width:1.0416666666666667;" width="181.25" x="940.625" y="914.5508"/><rect fill="none" height="35.3841" id="ChatListViewController" rx="4.1667" ry="4.1667" style="stroke:#55B2DE;stroke-width:1.0416666666666667;" width="181.25" x="940.625" y="883.3333"/><ellipse cx="955.2083" cy="901.0254" fill="#FB8500" rx="10.4167" ry="10.4167" style="stroke:#444444;stroke-width:1.0416666666666667;"/><path d="M957.1452,897.64 C956.4616,897.3145 956.0221,897.2168 955.3711,897.2168 C953.4505,897.2168 951.9694,898.7305 951.9694,900.7324 L951.9694,901.5625 C951.9694,903.4668 953.5319,904.8503 955.6478,904.8503 C956.543,904.8503 957.4056,904.6224 957.9427,904.2155 C958.3822,903.9225 958.61,903.597 958.61,903.304 C958.61,902.9785 958.3171,902.6855 957.9915,902.6855 C957.8288,902.6855 957.6823,902.7507 957.5358,902.8809 C957.194,903.2389 957.194,903.2389 957.0638,903.304 C956.7546,903.4993 956.25,903.597 955.6803,903.597 C954.1829,903.597 953.2227,902.7832 953.2227,901.5299 L953.2227,900.7324 C953.2227,899.4141 954.1504,898.4538 955.4199,898.4538 C955.8431,898.4538 956.2988,898.5677 956.6406,898.763 C956.9987,898.9583 957.1289,899.1211 957.194,899.4141 C957.2428,899.7233 957.2591,899.8047 957.3568,899.9023 C957.4544,900.0163 957.6335,900.0814 957.7962,900.0814 C958.0078,900.0814 958.1868,899.9837 958.3171,899.821 C958.3984,899.707 958.431,899.5768 958.431,899.2513 L958.431,898.2096 C958.431,897.9004 958.4147,897.8027 958.3333,897.6888 C958.2194,897.4935 958.0241,897.3796 957.7962,897.3796 C957.5846,897.3796 957.4382,897.4609 957.2754,897.6888 L957.1452,897.64 Z " fill="#000000"/><text fill="#222222" font-family="Verdana" font-size="12.5" lengthAdjust="spacing" textLength="139.5833" x="973.9583" y="905.3528">ChatListViewController</text><!--MD5=[a22c9e35290616dcf15d1bea63b7ccd2]
class ChatListViewModel--><rect fill="#313238" height="35.3841" id="ChatListViewModel" rx="4.1667" ry="4.1667" style="stroke:#55B2DE;stroke-width:1.0416666666666667;" width="158.3333" x="441.6667" y="701.0417"/><rect fill="#227FAB" height="35.3841" rx="4.1667" ry="4.1667" style="stroke:#227FAB;stroke-width:1.0416666666666667;" width="158.3333" x="441.6667" y="701.0417"/><rect fill="#227FAB" height="4.1667" style="stroke:#227FAB;stroke-width:1.0416666666666667;" width="158.3333" x="441.6667" y="732.2591"/><rect fill="none" height="35.3841" id="ChatListViewModel" rx="4.1667" ry="4.1667" style="stroke:#55B2DE;stroke-width:1.0416666666666667;" width="158.3333" x="441.6667" y="701.0417"/><ellipse cx="456.25" cy="718.7337" fill="#FB8500" rx="10.4167" ry="10.4167" style="stroke:#444444;stroke-width:1.0416666666666667;"/><path d="M458.1868,715.3483 C457.5033,715.0228 457.0638,714.9251 456.4128,714.9251 C454.4922,714.9251 453.0111,716.4388 453.0111,718.4408 L453.0111,719.2708 C453.0111,721.1751 454.5736,722.5586 456.6895,722.5586 C457.5846,722.5586 458.4473,722.3307 458.9844,721.9238 C459.4238,721.6309 459.6517,721.3053 459.6517,721.0124 C459.6517,720.6868 459.3587,720.3939 459.0332,720.3939 C458.8704,720.3939 458.724,720.459 458.5775,720.5892 C458.2357,720.9473 458.2357,720.9473 458.1055,721.0124 C457.7962,721.2077 457.2917,721.3053 456.722,721.3053 C455.2246,721.3053 454.2643,720.4915 454.2643,719.2383 L454.2643,718.4408 C454.2643,717.1224 455.1921,716.1621 456.4616,716.1621 C456.8848,716.1621 457.3405,716.276 457.6823,716.4714 C458.0404,716.6667 458.1706,716.8294 458.2357,717.1224 C458.2845,717.4316 458.3008,717.513 458.3984,717.6107 C458.4961,717.7246 458.6751,717.7897 458.8379,717.7897 C459.0495,717.7897 459.2285,717.6921 459.3587,717.5293 C459.4401,717.4154 459.4727,717.2852 459.4727,716.9596 L459.4727,715.918 C459.4727,715.6087 459.4564,715.5111 459.375,715.3971 C459.2611,715.2018 459.0658,715.0879 458.8379,715.0879 C458.6263,715.0879 458.4798,715.1693 458.3171,715.3971 L458.1868,715.3483 Z " fill="#000000"/><text fill="#222222" font-family="Verdana" font-size="12.5" lengthAdjust="spacing" textLength="116.6667" x="475" y="723.0611">ChatListViewModel</text><!--MD5=[9635ea968ed8ab5a3cf4051654c50d51]
reverse link DeepLinkResolver to AppDelegate--><path codeLine="50" d="M109.375,80.6281 C109.375,100.276 109.375,123.1823 109.375,138.3708 " fill="none" id="DeepLinkResolver-backto-AppDelegate" style="stroke:#2A9FD6;stroke-width:3.125;"/><polygon fill="#2A9FD6" points="109.375,75.1812,105.2083,84.5562,109.375,80.3896,113.5417,84.5562,109.375,75.1812" style="stroke:#2A9FD6;stroke-width:3.125;"/><!--MD5=[c4e996042323fb87f94aea8da27d34dc]
link DeepLinkResolver to DeepLink--><path codeLine="51" d="M211.5583,41.1458 C221.9302,41.1458 232.3021,41.1458 242.674,41.1458 " fill="none" id="DeepLinkResolver-to-DeepLink" style="stroke:#2A9FD6;stroke-width:3.125;"/><polygon fill="#2A9FD6" points="248.0979,41.1458,238.7229,36.9792,242.8896,41.1458,238.7229,45.3125,248.0979,41.1458" style="stroke:#2A9FD6;stroke-width:3.125;"/><!--MD5=[364377e12987df2901a5536546566582]
link AppDelegate to MainRouter--><path codeLine="52" d="M109.375,174.2156 C109.375,199.05 109.375,245.4 109.375,272.9938 " fill="none" id="AppDelegate-to-MainRouter" style="stroke:#2A9FD6;stroke-width:3.125;"/><polygon fill="#2A9FD6" points="109.375,278.25,113.5417,268.875,109.375,273.0417,105.2083,268.875,109.375,278.25" style="stroke:#2A9FD6;stroke-width:3.125;"/><text fill="#FFFFFF" font-family="Verdana" font-size="12.5" lengthAdjust="spacing" textLength="28.125" x="115.625" y="223.0611">calls</text><!--MD5=[8a8f4855a3b2e18fd8fcf7c882cc1be8]
link MainRouter to DashboardRouter--><path codeLine="53" d="M164.875,296.3542 C211.1542,296.3542 278.276,296.3542 333.9542,296.3542 " fill="none" id="MainRouter-to-DashboardRouter" style="stroke:#2A9FD6;stroke-width:3.125;"/><polygon fill="#2A9FD6" points="339.3052,296.3542,329.9302,292.1875,334.0969,296.3542,329.9302,300.5208,339.3052,296.3542" style="stroke:#2A9FD6;stroke-width:3.125;"/><text fill="#FFFFFF" font-family="Verdana" font-size="12.5" lengthAdjust="spacing" textLength="118.75" x="192.7083" y="285.0403">sets as root router</text><!--MD5=[d0abecb9b3fd2782859bf88b0882b199]
link MainRouter to DeepLinkRepository--><path codeLine="54" d="M107.6886,314.375 C105.2536,340.3979 101.0417,391.726 101.0417,435.4167 C101.0417,435.4167 101.0417,435.4167 101.0417,719.7917 C101.0417,757.6563 101.0417,799.9948 101.0417,834.1156 " fill="none" id="MainRouter-to-DeepLinkRepository" style="stroke:#2A9FD6;stroke-width:3.125;"/><polygon fill="#2A9FD6" points="101.0417,839.5198,105.2083,830.1448,101.0417,834.3115,96.875,830.1448,101.0417,839.5198" style="stroke:#2A9FD6;stroke-width:3.125;"/><text fill="#FFFFFF" font-family="Verdana" font-size="12.5" lengthAdjust="spacing" textLength="27.0833" x="122.9167" y="575.1444">sets</text><text fill="#FFFFFF" font-family="Verdana" font-size="12.5" lengthAdjust="spacing" textLength="58.3333" x="107.2917" y="589.6952">deep link</text><!--MD5=[41de488edc391051b0e0fb6703078506]
link DashboardRouter to DashboardContainerController--><path codeLine="55" d="M434.375,330.4552 C434.375,356.0406 434.375,390.7719 434.375,413.1427 " fill="none" id="DashboardRouter-to-DashboardContainerController" style="stroke:#2A9FD6;stroke-width:3.125;"/><polygon fill="#2A9FD6" points="434.375,418.551,438.5417,409.176,434.375,413.3427,430.2083,409.176,434.375,418.551" style="stroke:#2A9FD6;stroke-width:3.125;"/><text fill="#FFFFFF" font-family="Verdana" font-size="12.5" lengthAdjust="spacing" textLength="47.9167" x="440.625" y="379.3111">creates</text><!--MD5=[ffa24c4fcb68f4d8959c68f364a8efff]
link DashboardRouter to DashboardViewModel--><path codeLine="56" d="M529.2583,326.4979 C618.4021,353.8396 749.0625,393.9146 824.5344,417.0625 " fill="none" id="DashboardRouter-to-DashboardViewModel" style="stroke:#2A9FD6;stroke-width:3.125;"/><polygon fill="#2A9FD6" points="829.8719,418.7,822.1303,411.968,824.8924,417.1731,819.6873,419.9352,829.8719,418.7" style="stroke:#2A9FD6;stroke-width:3.125;"/><text fill="#FFFFFF" font-family="Verdana" font-size="12.5" lengthAdjust="spacing" textLength="47.9167" x="732.2917" y="379.3111">creates</text><!--MD5=[b87f348b0d94a05693a578081a2d8a8a]
reverse link DashboardContainerController to DashboardViewModel--><path codeLine="57" d="M555.6438,436.4583 C630.8792,436.4583 725.926,436.4583 794.4427,436.4583 " fill="none" id="DashboardContainerController-backto-DashboardViewModel" style="stroke:#2A9FD6;stroke-width:3.125;stroke-dasharray:7.0,7.0;"/><polygon fill="#2A9FD6" points="550.2615,436.4583,559.6365,440.625,555.4698,436.4583,559.6365,432.2917,550.2615,436.4583" style="stroke:#2A9FD6;stroke-width:3.125;"/><text fill="#FFFFFF" font-family="Verdana" font-size="12.5" lengthAdjust="spacing" textLength="34.375" x="655.2083" y="410.5611">emits</text><text fill="#FFFFFF" font-family="Verdana" font-size="12.5" lengthAdjust="spacing" textLength="195.8333" x="574.4792" y="425.1119">DashboardDetailsCLEViewState</text><!--MD5=[75e9c274f3630222eddf6ca66a6d68cc]
link DashboardContainerController to DashboardDetailsContainerViewModel--><path codeLine="58" d="M506.075,454.2052 C619.1552,480.551 837.9833,531.5344 954.2635,558.626 " fill="none" id="DashboardContainerController-to-DashboardDetailsContainerViewModel" style="stroke:#2A9FD6;stroke-width:3.125;"/><polygon fill="#2A9FD6" points="959.3813,559.8177,951.1958,553.633,954.3087,558.6362,949.3055,561.7491,959.3813,559.8177" style="stroke:#2A9FD6;stroke-width:3.125;"/><text fill="#FFFFFF" font-family="Verdana" font-size="12.5" lengthAdjust="spacing" textLength="47.9167" x="809.375" y="510.5611">creates</text><!--MD5=[2250dd872176cc3548d35b1ff3e74001]
link DashboardContainerController to DashboardDetailsContainerViewController--><path codeLine="59" d="M434.375,454.274 C434.375,479.3323 434.375,526.5667 434.375,554.4271 " fill="none" id="DashboardContainerController-to-DashboardDetailsContainerViewController" style="stroke:#2A9FD6;stroke-width:3.125;"/><polygon fill="#2A9FD6" points="434.375,559.7292,438.5417,550.3542,434.375,554.5208,430.2083,550.3542,434.375,559.7292" style="stroke:#2A9FD6;stroke-width:3.125;"/><text fill="#FFFFFF" font-family="Verdana" font-size="12.5" lengthAdjust="spacing" textLength="47.9167" x="440.625" y="510.5611">creates</text><!--MD5=[3d93237e28759372047cdd37eb900700]
reverse link DashboardDetailsContainerViewController to DashboardDetailsContainerViewModel--><path codeLine="60" d="M591.7625,577.6042 C684.3646,577.6042 800.4958,577.6042 890.1229,577.6042 " fill="none" id="DashboardDetailsContainerViewController-backto-DashboardDetailsContainerViewModel" style="stroke:#2A9FD6;stroke-width:3.125;stroke-dasharray:7.0,7.0;"/><polygon fill="#2A9FD6" points="586.5365,577.6042,595.9115,581.7708,591.7448,577.6042,595.9115,573.4375,586.5365,577.6042" style="stroke:#2A9FD6;stroke-width:3.125;"/><text fill="#FFFFFF" font-family="Verdana" font-size="12.5" lengthAdjust="spacing" textLength="34.375" x="721.3542" y="551.7069">emits</text><text fill="#FFFFFF" font-family="Verdana" font-size="12.5" lengthAdjust="spacing" textLength="255.2083" x="610.9375" y="566.2577">DashboardDetailsContainerCLEViewState</text><!--MD5=[97b53fc688facd66742d128c9b2d6b3a]
reverse link DashboardDetailsContainerViewModel to KidsWatchViewStateProducer--><path codeLine="61" d="M1031.25,600.7146 C1031.25,628.5448 1031.25,675.7813 1031.25,700.875 " fill="none" id="DashboardDetailsContainerViewModel-backto-KidsWatchViewStateProducer" style="stroke:#2A9FD6;stroke-width:3.125;stroke-dasharray:7.0,7.0;"/><polygon fill="#2A9FD6" points="1031.25,595.4198,1027.0833,604.7948,1031.25,600.6281,1035.4167,604.7948,1031.25,595.4198" style="stroke:#2A9FD6;stroke-width:3.125;"/><text fill="#FFFFFF" font-family="Verdana" font-size="12.5" lengthAdjust="spacing" textLength="34.375" x="1147.9167" y="647.0194">emits</text><text fill="#FFFFFF" font-family="Verdana" font-size="12.5" lengthAdjust="spacing" textLength="255.2083" x="1037.5" y="661.5702">DashboardDetailsContainerCLEViewState</text><!--MD5=[d6b100c7867e64bb9caabd8742fd3735]
link KidsWatchViewStateProducer to ChatListViewController--><path codeLine="62" d="M1031.25,736.7448 C1031.25,769.3469 1031.25,840.7875 1031.25,877.3952 " fill="none" id="KidsWatchViewStateProducer-to-ChatListViewController" style="stroke:#2A9FD6;stroke-width:3.125;"/><polygon fill="#2A9FD6" points="1031.25,882.9602,1035.4167,873.5852,1031.25,877.7519,1027.0833,873.5852,1031.25,882.9602" style="stroke:#2A9FD6;stroke-width:3.125;"/><text fill="#FFFFFF" font-family="Verdana" font-size="12.5" lengthAdjust="spacing" textLength="47.9167" x="1037.5" y="792.8528">creates</text><!--MD5=[e9838d209ae87fa31cf9b0f2640be4ba]
reverse link ChatListViewModel to KidsWatchViewStateProducer--><path codeLine="63" d="M605.5917,718.75 C691.1313,718.75 823.7344,718.75 918.1906,718.75 " fill="none" id="ChatListViewModel-backto-KidsWatchViewStateProducer" style="stroke:#2A9FD6;stroke-width:3.125;"/><polygon fill="#2A9FD6" points="600.026,718.75,609.401,722.9167,605.2344,718.75,609.401,714.5833,600.026,718.75" style="stroke:#2A9FD6;stroke-width:3.125;"/><text fill="#FFFFFF" font-family="Verdana" font-size="12.5" lengthAdjust="spacing" textLength="47.9167" x="735.1563" y="692.8528">creates</text><text fill="#FFFFFF" font-family="Verdana" font-size="12.5" lengthAdjust="spacing" textLength="269.7917" x="624.2188" y="707.4036">via DashboardDetailsContainerTabsFactory</text><!--MD5=[41a3fa10037205bb5d23807369a840c6]
link ChatListViewModel to DashboardRouter--><path codeLine="64" d="M441.4885,704.1927 C381.2646,689.3219 302.4104,658.8885 263.5417,597.9167 C219.8594,529.3948 257.7479,488.1635 300,418.75 C320.4792,385.1063 353.101,355.325 381.074,333.6854 " fill="none" id="ChatListViewModel-to-DashboardRouter" style="stroke:#2A9FD6;stroke-width:3.125;"/><polygon fill="#2A9FD6" points="385.5219,330.2823,375.5447,332.6716,381.3859,333.4479,380.6097,339.2891,385.5219,330.2823" style="stroke:#2A9FD6;stroke-width:3.125;"/><text fill="#FFFFFF" font-family="Verdana" font-size="12.5" lengthAdjust="spacing" textLength="65.625" x="275" y="503.2694">calls when</text><text fill="#FFFFFF" font-family="Verdana" font-size="12.5" lengthAdjust="spacing" textLength="82.2917" x="266.6667" y="517.8202">done loading</text><!--MD5=[75c22dd125ab7e32e02848d3642c934c]
link ChatListViewModel to DeepLinkRepository--><path codeLine="65" d="M481.7177,736.5833 C417.7292,764.0521 288.8,819.399 198.8042,858.0323 " fill="none" id="ChatListViewModel-to-DeepLinkRepository" style="stroke:#2A9FD6;stroke-width:3.125;"/><polygon fill="#2A9FD6" points="194.0115,860.0898,204.2699,860.2191,198.7972,858.0347,200.9817,852.562,194.0115,860.0898" style="stroke:#2A9FD6;stroke-width:3.125;"/><text fill="#FFFFFF" font-family="Verdana" font-size="12.5" lengthAdjust="spacing" textLength="40.625" x="423.4375" y="785.5611">resets</text><text fill="#FFFFFF" font-family="Verdana" font-size="12.5" lengthAdjust="spacing" textLength="58.3333" x="414.5833" y="800.1119">deep link</text><!--MD5=[7c99332dde6af8e26b1d92fa656b4165]
@startuml
!include https://raw.githubusercontent.com/bschwarz/puml-themes/master/themes/cyborg-outline/puml-theme-cyborg-outline.puml

skinparam BackgroundColor #313238
skinparam StereotypeCBackgroundColor #fb8500

skinparam StereotypeCBackgroundColor<<S>> #e840e8
skinparam SpotChar<<S>> S
hide <<S>> stereotype

skinparam StereotypeCBackgroundColor<<E>> #10FF30
skinparam SpotChar<<E>> E
hide <<E>> stereotype

' skinparam linetype polyline
' skinparam linetype ortho

!procedure loop_arrowR()
  <<-[#pink]- -
!endprocedure



hide members
show DeepLinkResolver methods
show DeepLink methods
show DeepLinkRepository methods

class DeepLink <<E>> {
+neoChat(deviceId:)
}

class DeepLinkResolver<<S>> {
+parse(url: String): DeepLink?
}

class DeepLinkRepository {
+deepLink: DeepLink?
- -
+setDeepLink(_:DeepLink)
+resetDeepLink()
}


show DashboardRouter methods

class DashboardRouter {
+navigateToChatDetails(...)
}

AppDelegate -up-> DeepLinkResolver
DeepLinkResolver -right-> DeepLink
AppDelegate -d-> MainRouter: calls
MainRouter -right-> DashboardRouter: sets as root router
MainRouter - - - -down-> DeepLinkRepository: sets\ndeep link
DashboardRouter -down-> DashboardContainerController: creates
DashboardRouter -down-> DashboardViewModel: creates
DashboardViewModel .left.> DashboardContainerController: emits\nDashboardDetailsCLEViewState
DashboardContainerController - -> DashboardDetailsContainerViewModel: creates
DashboardContainerController - -> DashboardDetailsContainerViewController: creates
DashboardDetailsContainerViewModel .left.> DashboardDetailsContainerViewController: emits\nDashboardDetailsContainerCLEViewState
    KidsWatchViewStateProducer .up.> DashboardDetailsContainerViewModel : emits\nDashboardDetailsContainerCLEViewState
KidsWatchViewStateProducer -down-> ChatListViewController: creates
KidsWatchViewStateProducer -left-> ChatListViewModel: creates\nvia DashboardDetailsContainerTabsFactory
ChatListViewModel -[norank]-> DashboardRouter: calls when\ndone loading
ChatListViewModel -[norank]-> DeepLinkRepository: resets\ndeep link
@enduml

@startuml



skinparam backgroundColor transparent
skinparam useBetaStyle false







skinparam defaultFontName       "Verdana"
skinparam defaultFontSize       12
skinparam dpi                   100
skinparam shadowing             false
skinparam roundcorner           8
skinparam ParticipantPadding    40
skinparam BoxPadding            40
skinparam Padding               5
skinparam ArrowColor            #ADAFAE
skinparam stereotype {
    CBackgroundColor #777777
    CBorderColor #444444
    ABackgroundColor #5F8F00
    ABorderColor #92C233
    IBackgroundColor #a30000
    IBorderColor #D63333
    EBackgroundColor #cc6d00
    EBorderColor #FFA033
    NBackgroundColor #7a29a3
    NBorderColor #AD5CD6
}
skinparam title {
	FontColor	                 #2A9FD6
	BorderColor	                 #777777
	FontSize	    	         20
	BorderRoundCorner            8
	BorderThickness 	         1
	BackgroundColor              transparent
}

skinparam legend {
	BackgroundColor transparent
	BorderColor #777777
	FontColor #ADAFAE
}

skinparam swimlane {
	BorderColor #9933CC
	BorderThickness 2
	TitleBackgroundColor  #444444-#555
	TitleFontColor #2A9FD6
}


skinparam activity {
		FontColor #2A9FD6
	BorderColor #55B2DE
	BackgroundColor transparent
	BarColor #77B300
	StartColor #9933CC
	EndColor #9933CC
	DiamondBackgroundColor transparent
  	DiamondBorderColor #777777
  	DiamondFontColor #777777
}


skinparam participant {
		FontColor #2A9FD6
	BorderColor #55B2DE
	BackgroundColor transparent
	ParticipantBorderThickness 2
}


skinparam actor {
		FontColor #2A9FD6
	BorderColor #55B2DE
	BackgroundColor transparent
	FontColor #2A9FD6
}


skinparam arrow {
	Thickness 3
	Color #2A9FD6
	FontColor #FFF
}


skinparam sequence {
	BorderColor #2A9FD6
	TitleFontColor #2A9FD6
	BackgroundColor transparent
	StartColor #2A9FD6
	EndColor #2A9FD6
	BoxBackgroundColor transparent
	BoxBorderColor #ADAFAE
	BoxFontColor #ADAFAE
	DelayFontColor #ADAFAE
	LifeLineBorderColor #555
	LifeLineBorderThickness 2
	LifeLineBackgroundColor transparent
	GroupBorderColor #ADAFAE
	GroupFontColor #ADAFAE
	GroupHeaderFontColor #9933CC
	GroupBackgroundColor transparent
	GroupBodyBackgroundColor transparent
	GroupHeaderBackgroundColor transparent
	DividerBackgroundColor transparent
    DividerBorderColor #ADAFAE
    DividerBorderThickness 2
    DividerFontColor #ADAFAE
	ReferenceBackgroundColor transparent
	ReferenceBorderColor #ADAFAE
	ReferenceFontColor #ADAFAE
	ReferenceHeaderFontColor #9933CC
	ReferenceHeaderBackgroundColor transparent
	StereotypeFontColor #2A9FD6
}


skinparam partition {
	BorderColor #2A9FD6
	FontColor #2A9FD6
	BackgroundColor transparent
}


skinparam collections {
		FontColor #2A9FD6
	BorderColor #55B2DE
	BackgroundColor transparent
}


skinparam control {
		FontColor #2A9FD6
	BorderColor #55B2DE
	BackgroundColor transparent
	FontColor #2A9FD6
}


skinparam entity {
		FontColor #2A9FD6
	BorderColor #55B2DE
	BackgroundColor transparent
	FontColor #2A9FD6
}


skinparam boundary {
		FontColor #2A9FD6
	BorderColor #55B2DE
	BackgroundColor transparent
	FontColor #2A9FD6
}


skinparam agent {
	BackgroundColor transparent
	BorderColor #cc6d00
	FontColor #ADAFAE
}


skinparam note {
	BorderThickness 1
	BackgroundColor transparent
	BorderColor #AD5CD6
	FontColor #AD5CD6
}


skinparam artifact {
	BackgroundColor transparent
	BorderColor #BDBFBE
	FontColor #BDBFBE
}


skinparam component {
		FontColor #2A9FD6
	BorderColor #55B2DE
	BackgroundColor transparent
}


skinparam interface {
	BackgroundColor  transparent
	BorderColor  #CC0000
	FontColor #ADAFAE
}


skinparam storage {
	BackgroundColor transparent
  	BorderColor #FFA033
	FontColor #FF8800
}


skinparam node {
	BackgroundColor  transparent
	BorderColor #ADAFAE
	FontColor #ADAFAE
}


skinparam cloud {
	BackgroundColor transparent
	BorderColor #F2FCFE
	FontColor #ADAFAE
}


skinparam database {
		FontColor #2A9FD6
	BorderColor #55B2DE
	BackgroundColor transparent
	FontColor #2A9FD6
}



skinparam class {
		FontColor #2A9FD6
	BorderColor #55B2DE
	BackgroundColor transparent
        FontColor #222
	HeaderBackgroundColor #227FAB
	StereotypeFontColor #ADAFAE
	BorderThickness 1
	AttributeFontColor #ADAFAE
	AttributeFontSize 11
}


skinparam object {
		FontColor #2A9FD6
	BorderColor #55B2DE
	BackgroundColor transparent
	StereotypeFontColor #ADAFAE
	BorderThickness 1
	AttributeFontColor #777777
	AttributeFontSize 11
}


skinparam usecase {
		FontColor #2A9FD6
	BorderColor #55B2DE
	BackgroundColor transparent
	BorderThickness 2
	StereotypeFontColor #2A9FD6
}


skinparam rectangle {
		FontColor #2A9FD6
	BorderColor #55B2DE
	BackgroundColor transparent
	BorderThickness 2
	StereotypeFontColor #2A9FD6
}


skinparam package {
	BackgroundColor transparent
  	BorderColor #2A9FD6
	FontColor #2A9FD6
	BorderThickness 2
}


skinparam folder {
	BackgroundColor transparent
  	BorderColor #FF8800
	FontColor #FF8800
	BorderThickness 2
}


skinparam frame {
	BackgroundColor transparent
  	BorderColor #9933CC
	FontColor #9933CC
	BorderThickness 2
}


skinparam state {
		FontColor #2A9FD6
	BorderColor #55B2DE
	BackgroundColor transparent
	StartColor #9933CC
	EndColor #9933CC
	AttributeFontColor #777777
	AttributeFontSize 11
}


skinparam queue {
		FontColor #2A9FD6
	BorderColor #55B2DE
	BackgroundColor transparent
}


skinparam card {
	BackgroundColor transparent
	BorderColor #9933CC
	FontColor #9933CC
}


skinparam file {
	BackgroundColor transparent
	BorderColor #555
	FontColor #555
}



skinparam BackgroundColor #313238
skinparam StereotypeCBackgroundColor #fb8500

skinparam StereotypeCBackgroundColor<<S>> #e840e8
skinparam SpotChar<<S>> S
hide <<S>> stereotype

skinparam StereotypeCBackgroundColor<<E>> #10FF30
skinparam SpotChar<<E>> E
hide <<E>> stereotype





hide members
show DeepLinkResolver methods
show DeepLink methods
show DeepLinkRepository methods

class DeepLink <<E>> {
+neoChat(deviceId:)
}

class DeepLinkResolver<<S>> {
+parse(url: String): DeepLink?
}

class DeepLinkRepository {
+deepLink: DeepLink?
- -
+setDeepLink(_:DeepLink)
+resetDeepLink()
}


show DashboardRouter methods

class DashboardRouter {
+navigateToChatDetails(...)
}

AppDelegate -up-> DeepLinkResolver
DeepLinkResolver -right-> DeepLink
AppDelegate -d-> MainRouter: calls
MainRouter -right-> DashboardRouter: sets as root router
MainRouter - - - -down-> DeepLinkRepository: sets\ndeep link
DashboardRouter -down-> DashboardContainerController: creates
DashboardRouter -down-> DashboardViewModel: creates
DashboardViewModel .left.> DashboardContainerController: emits\nDashboardDetailsCLEViewState
DashboardContainerController - -> DashboardDetailsContainerViewModel: creates
DashboardContainerController - -> DashboardDetailsContainerViewController: creates
DashboardDetailsContainerViewModel .left.> DashboardDetailsContainerViewController: emits\nDashboardDetailsContainerCLEViewState
    KidsWatchViewStateProducer .up.> DashboardDetailsContainerViewModel : emits\nDashboardDetailsContainerCLEViewState
KidsWatchViewStateProducer -down-> ChatListViewController: creates
KidsWatchViewStateProducer -left-> ChatListViewModel: creates\nvia DashboardDetailsContainerTabsFactory
ChatListViewModel -[norank]-> DashboardRouter: calls when\ndone loading
ChatListViewModel -[norank]-> DeepLinkRepository: resets\ndeep link
@enduml

PlantUML version 1.2021.10(Mon Aug 30 13:43:48 UTC 2021)
(GPL source distribution)
Java Runtime: Java(TM) SE Runtime Environment
JVM: Java HotSpot(TM) 64-Bit Server VM
Default Encoding: UTF-8
Language: en
Country: US
--></g></svg>