<?xml version="1.0" encoding="UTF-8" standalone="no"?><svg xmlns="http://www.w3.org/2000/svg" xmlns:xlink="http://www.w3.org/1999/xlink" contentScriptType="application/ecmascript" contentStyleType="text/css" height="426px" preserveAspectRatio="none" style="width:897px;height:426px;background:#FFFFFF;" version="1.1" viewBox="0 0 897 426" width="897px" zoomAndPan="magnify"><defs><filter height="300%" id="fh3v7nyjln7md" width="300%" x="-1" y="-1"><feGaussianBlur result="blurOut" stdDeviation="2.0"/><feColorMatrix in="blurOut" result="blurOut2" type="matrix" values="0 0 0 0 0 0 0 0 0 0 0 0 0 0 0 0 0 0 .4 0"/><feOffset dx="4.0" dy="4.0" in="blurOut2" result="blurOut3"/><feBlend in="SourceGraphic" in2="blurOut3" mode="normal"/></filter></defs><g><rect fill="#FFFFFF" filter="url(#fh3v7nyjln7md)" height="244.0625" style="stroke:#A80036;stroke-width:1.0;" width="10" x="542" y="129.6953"/><rect fill="#FFFFFF" filter="url(#fh3v7nyjln7md)" height="162.7969" style="stroke:#000000;stroke-width:2.0;" width="721.5" x="162" y="202.9609"/><line style="stroke:#A80036;stroke-width:1.0;stroke-dasharray:5.0,5.0;" x1="83" x2="83" y1="40.2969" y2="382.7578"/><line style="stroke:#A80036;stroke-width:1.0;stroke-dasharray:5.0,5.0;" x1="223" x2="223" y1="40.2969" y2="382.7578"/><line style="stroke:#A80036;stroke-width:1.0;stroke-dasharray:5.0,5.0;" x1="393.5" x2="393.5" y1="40.2969" y2="382.7578"/><line style="stroke:#A80036;stroke-width:1.0;stroke-dasharray:5.0,5.0;" x1="546.5" x2="546.5" y1="40.2969" y2="382.7578"/><line style="stroke:#A80036;stroke-width:1.0;stroke-dasharray:5.0,5.0;" x1="667.5" x2="667.5" y1="40.2969" y2="382.7578"/><line style="stroke:#A80036;stroke-width:1.0;stroke-dasharray:5.0,5.0;" x1="798.5" x2="798.5" y1="40.2969" y2="382.7578"/><line style="stroke:#A80036;stroke-width:1.0;stroke-dasharray:5.0,5.0;" x1="853.5" x2="853.5" y1="40.2969" y2="382.7578"/><rect fill="#FEFECE" filter="url(#fh3v7nyjln7md)" height="30.2969" style="stroke:#A80036;stroke-width:1.5;" width="153" x="5" y="5"/><text fill="#000000" font-family="sans-serif" font-size="14" lengthAdjust="spacing" textLength="139" x="12" y="24.9951">VoIPPushRepository</text><rect fill="#FEFECE" filter="url(#fh3v7nyjln7md)" height="30.2969" style="stroke:#A80036;stroke-width:1.5;" width="153" x="5" y="381.7578"/><text fill="#000000" font-family="sans-serif" font-size="14" lengthAdjust="spacing" textLength="139" x="12" y="401.7529">VoIPPushRepository</text><rect fill="#FEFECE" filter="url(#fh3v7nyjln7md)" height="30.2969" style="stroke:#A80036;stroke-width:1.5;" width="98" x="172" y="5"/><text fill="#000000" font-family="sans-serif" font-size="14" lengthAdjust="spacing" textLength="84" x="179" y="24.9951">CallManager</text><rect fill="#FEFECE" filter="url(#fh3v7nyjln7md)" height="30.2969" style="stroke:#A80036;stroke-width:1.5;" width="98" x="172" y="381.7578"/><text fill="#000000" font-family="sans-serif" font-size="14" lengthAdjust="spacing" textLength="84" x="179" y="401.7529">CallManager</text><rect fill="#FEFECE" filter="url(#fh3v7nyjln7md)" height="30.2969" style="stroke:#A80036;stroke-width:1.5;" width="55" x="364.5" y="5"/><text fill="#000000" font-family="sans-serif" font-size="14" lengthAdjust="spacing" textLength="41" x="371.5" y="24.9951">CallKit</text><rect fill="#FEFECE" filter="url(#fh3v7nyjln7md)" height="30.2969" style="stroke:#A80036;stroke-width:1.5;" width="55" x="364.5" y="381.7578"/><text fill="#000000" font-family="sans-serif" font-size="14" lengthAdjust="spacing" textLength="41" x="371.5" y="401.7529">CallKit</text><rect fill="#FEFECE" filter="url(#fh3v7nyjln7md)" height="30.2969" style="stroke:#A80036;stroke-width:1.5;" width="27" x="531.5" y="5"/><text fill="#000000" font-family="sans-serif" font-size="14" lengthAdjust="spacing" textLength="13" x="538.5" y="24.9951">UI</text><rect fill="#FEFECE" filter="url(#fh3v7nyjln7md)" height="30.2969" style="stroke:#A80036;stroke-width:1.5;" width="27" x="531.5" y="381.7578"/><text fill="#000000" font-family="sans-serif" font-size="14" lengthAdjust="spacing" textLength="13" x="538.5" y="401.7529">UI</text><rect fill="#FEFECE" filter="url(#fh3v7nyjln7md)" height="30.2969" style="stroke:#A80036;stroke-width:1.5;" width="186" x="572.5" y="5"/><text fill="#000000" font-family="sans-serif" font-size="14" lengthAdjust="spacing" textLength="172" x="579.5" y="24.9951">WebRTCPeerConnection</text><rect fill="#FEFECE" filter="url(#fh3v7nyjln7md)" height="30.2969" style="stroke:#A80036;stroke-width:1.5;" width="186" x="572.5" y="381.7578"/><text fill="#000000" font-family="sans-serif" font-size="14" lengthAdjust="spacing" textLength="172" x="579.5" y="401.7529">WebRTCPeerConnection</text><rect fill="#FEFECE" filter="url(#fh3v7nyjln7md)" height="30.2969" style="stroke:#A80036;stroke-width:1.5;" width="48" x="772.5" y="5"/><text fill="#000000" font-family="sans-serif" font-size="14" lengthAdjust="spacing" textLength="34" x="779.5" y="24.9951">WRG</text><rect fill="#FEFECE" filter="url(#fh3v7nyjln7md)" height="30.2969" style="stroke:#A80036;stroke-width:1.5;" width="48" x="772.5" y="381.7578"/><text fill="#000000" font-family="sans-serif" font-size="14" lengthAdjust="spacing" textLength="34" x="779.5" y="401.7529">WRG</text><rect fill="#FEFECE" filter="url(#fh3v7nyjln7md)" height="30.2969" style="stroke:#A80036;stroke-width:1.5;" width="35" x="834.5" y="5"/><text fill="#000000" font-family="sans-serif" font-size="14" lengthAdjust="spacing" textLength="21" x="841.5" y="24.9951">VM</text><rect fill="#FEFECE" filter="url(#fh3v7nyjln7md)" height="30.2969" style="stroke:#A80036;stroke-width:1.5;" width="35" x="834.5" y="381.7578"/><text fill="#000000" font-family="sans-serif" font-size="14" lengthAdjust="spacing" textLength="21" x="841.5" y="401.7529">VM</text><rect fill="#FFFFFF" filter="url(#fh3v7nyjln7md)" height="244.0625" style="stroke:#A80036;stroke-width:1.0;" width="10" x="542" y="129.6953"/><polygon fill="#A80036" points="211,67.4297,221,71.4297,211,75.4297,215,71.4297" style="stroke:#A80036;stroke-width:1.0;"/><line style="stroke:#A80036;stroke-width:1.0;" x1="83.5" x2="217" y1="71.4297" y2="71.4297"/><text fill="#000000" font-family="sans-serif" font-size="13" lengthAdjust="spacing" textLength="90" x="90.5" y="66.3638">VoIP Invitation</text><polygon fill="#A80036" points="382,96.5625,392,100.5625,382,104.5625,386,100.5625" style="stroke:#A80036;stroke-width:1.0;"/><line style="stroke:#A80036;stroke-width:1.0;" x1="223" x2="388" y1="100.5625" y2="100.5625"/><text fill="#000000" font-family="sans-serif" font-size="13" lengthAdjust="spacing" textLength="147" x="230" y="95.4966">reportNewIncomingCall</text><polygon fill="#A80036" points="530,125.6953,540,129.6953,530,133.6953,534,129.6953" style="stroke:#A80036;stroke-width:1.0;"/><line style="stroke:#A80036;stroke-width:1.0;" x1="394" x2="536" y1="129.6953" y2="129.6953"/><text fill="#000000" font-family="sans-serif" font-size="13" lengthAdjust="spacing" textLength="129" x="401" y="124.6294">Show Calling Screen</text><polygon fill="#A80036" points="655.5,154.8281,665.5,158.8281,655.5,162.8281,659.5,158.8281" style="stroke:#A80036;stroke-width:1.0;"/><line style="stroke:#A80036;stroke-width:1.0;" x1="223" x2="661.5" y1="158.8281" y2="158.8281"/><text fill="#000000" font-family="sans-serif" font-size="13" lengthAdjust="spacing" textLength="83" x="230" y="153.7622">Send Answer</text><polygon fill="#A80036" points="234,183.9609,224,187.9609,234,191.9609,230,187.9609" style="stroke:#A80036;stroke-width:1.0;"/><line style="stroke:#A80036;stroke-width:1.0;stroke-dasharray:2.0,2.0;" x1="228" x2="666.5" y1="187.9609" y2="187.9609"/><text fill="#000000" font-family="sans-serif" font-size="13" lengthAdjust="spacing" textLength="112" x="240" y="182.895">Received ICE SDP</text><path d="M162,202.9609 L226,202.9609 L226,209.9609 L216,219.9609 L162,219.9609 L162,202.9609 " fill="#EEEEEE" style="stroke:#000000;stroke-width:1.0;"/><rect fill="none" height="162.7969" style="stroke:#000000;stroke-width:2.0;" width="721.5" x="162" y="202.9609"/><text fill="#000000" font-family="sans-serif" font-size="13" font-weight="bold" lengthAdjust="spacing" textLength="19" x="177" y="216.0278">alt</text><text fill="#000000" font-family="sans-serif" font-size="11" font-weight="bold" lengthAdjust="spacing" textLength="114" x="241" y="215.1714">[voice registered]</text><polygon fill="#A80036" points="786.5,237.2266,796.5,241.2266,786.5,245.2266,790.5,241.2266" style="stroke:#A80036;stroke-width:1.0;"/><line style="stroke:#A80036;stroke-width:1.0;" x1="223" x2="792.5" y1="241.2266" y2="241.2266"/><text fill="#000000" font-family="sans-serif" font-size="13" lengthAdjust="spacing" textLength="156" x="230" y="236.1606">Set Status to InProgress</text><polygon fill="#A80036" points="234,266.3594,224,270.3594,234,274.3594,230,270.3594" style="stroke:#A80036;stroke-width:1.0;"/><line style="stroke:#A80036;stroke-width:1.0;stroke-dasharray:2.0,2.0;" x1="228" x2="797.5" y1="270.3594" y2="270.3594"/><text fill="#000000" font-family="sans-serif" font-size="13" lengthAdjust="spacing" textLength="97" x="240" y="265.2935">Set Successfull</text><polygon fill="#A80036" points="786.5,295.4922,796.5,299.4922,786.5,303.4922,790.5,299.4922" style="stroke:#A80036;stroke-width:1.0;"/><line style="stroke:#A80036;stroke-width:1.0;" x1="223" x2="792.5" y1="299.4922" y2="299.4922"/><text fill="#000000" font-family="sans-serif" font-size="13" lengthAdjust="spacing" textLength="135" x="230" y="294.4263">Set Status to Ringing</text><polygon fill="#A80036" points="234,324.625,224,328.625,234,332.625,230,328.625" style="stroke:#A80036;stroke-width:1.0;"/><line style="stroke:#A80036;stroke-width:1.0;stroke-dasharray:2.0,2.0;" x1="228" x2="797.5" y1="328.625" y2="328.625"/><text fill="#000000" font-family="sans-serif" font-size="13" lengthAdjust="spacing" textLength="97" x="240" y="323.5591">Set Successfull</text><polygon fill="#A80036" points="234,353.7578,224,357.7578,234,361.7578,230,357.7578" style="stroke:#A80036;stroke-width:1.0;"/><line style="stroke:#A80036;stroke-width:1.0;" x1="228" x2="853" y1="357.7578" y2="357.7578"/><text fill="#000000" font-family="sans-serif" font-size="13" lengthAdjust="spacing" textLength="73" x="240" y="352.6919">Answer Call</text><!--MD5=[5c5659c0e8845fcf03103336a82aa708]
@startuml
VoIPPushRepository -> CallManager: VoIP Invitation
CallManager -> CallKit: reportNewIncomingCall
CallKit -> UI ++ : Show Calling Screen
CallManager -> WebRTCPeerConnection: Send Answer
WebRTCPeerConnection - -> CallManager: Received ICE SDP
alt voice registered
CallManager -> WRG: Set Status to InProgress 
WRG - -> CallManager: Set Successfull 
CallManager -> WRG: Set Status to Ringing
WRG - -> CallManager: Set Successfull 
VM -> CallManager: Answer Call

end
@enduml

PlantUML version 1.2021.11(Sat Oct 02 13:26:11 GMT 2021)
(GPL source distribution)
Java Runtime: OpenJDK Runtime Environment
JVM: OpenJDK 64-Bit Server VM
Default Encoding: UTF-8
Language: en
Country: US
--></g></svg>